<svg xmlns="http://www.w3.org/2000/svg" xmlns:xlink="http://www.w3.org/1999/xlink" width="80" height="80" viewBox="0 0 80 80"><defs><style>.a{fill:#fae4ca;}.b{clip-path:url(#a);}.c{fill:#fd9463;}.d,.f{fill:#fce1d5;}.e{fill:#e5b7b7;}.f,.h{fill-rule:evenodd;}.g,.i{fill:none;}.g{stroke:#ba8888;stroke-linecap:round;stroke-linejoin:round;}.i{stroke:#5587c1;stroke-width:1.5px;}.j{fill:#5587c1;}.k{fill:#fff;}.l{fill:#ba8888;}</style><clipPath id="a"><path class="a" d="M40,0A40,40,0,1,1,0,40,40,40,0,0,1,40,0Z" transform="translate(0 0)"/></clipPath></defs><path class="a" d="M40,0A40,40,0,1,1,0,40,40,40,0,0,1,40,0Z" transform="translate(0 0)"/><g class="b" transform="translate(0 0)"><g transform="translate(1031.289 -1459.21)"><path class="c" d="M-949.932,1539s-4.051-31.838-40.743-31.838c-40.325,0-42.614,31.838-42.614,31.838Z"/><path class="d" d="M-992.654,1498.814h0a7.407,7.407,0,0,1,7.407,7.407v5.857a7.407,7.407,0,0,1-7.407,7.407h0a7.408,7.408,0,0,1-7.407-7.407v-5.857A7.407,7.407,0,0,1-992.654,1498.814Z"/><ellipse class="e" cx="7.407" cy="3.617" rx="7.407" ry="3.617" transform="translate(-1000.021 1503.783)"/><path class="f" d="M-979.79,1488.426q2.4,21.39-12.634,21.39t-12.615-21.771l-.336-8.616,15.951-2.32,10.04,4.817.338,4.383Z"/><path class="f" d="M-1004.972,1489.5q-4.206-2-4.206,1.867a5.1,5.1,0,0,0,3.9,5.179l1.425-3.644Z"/><path class="f" d="M-979.8,1489.5q4.206-2,4.206,1.867a5.1,5.1,0,0,1-3.9,5.179l-1.428-3.645Z"/><path class="g" d="M-991.631,1493.081s1.5,8.827-1.577,6.74"/><path class="g" d="M-998.2,1488.9a2.648,2.648,0,0,0-2.582,0"/><path class="g" d="M-984.07,1488.9a2.646,2.646,0,0,0-2.581,0"/><path class="g" d="M-994.34,1505.316a2.19,2.19,0,0,1-2.067-1.089"/><path class="d" d="M-979.31,1483.138l-.518,6.784s-1.252-5.664-3.741-5.534a6.989,6.989,0,0,0-3.809,1.189,6.677,6.677,0,0,1-3.844,1.126,8.27,8.27,0,0,1-4.934-2.02,3.961,3.961,0,0,0-2.712-.949c-.571.041-3.507.2-6.318,5.536.027-6.432,3.635-7.439,3.748-7.469s5.2-1.906,5.786-1.682,2.818,1.267,3.139,1.359,8.46-.536,8.815-.4a8.865,8.865,0,0,1,2,1.022A12.341,12.341,0,0,0-979.31,1483.138Z"/><path class="h" d="M-979.914,1489.756q-.5-5.931-3.677-5.93a8.261,8.261,0,0,0-4.129.979,6.45,6.45,0,0,1-7.921-.653,4.575,4.575,0,0,0-3.406-1.066c-1.835.184-4.779,1.9-6.015,6.317l-1.748.353c-2.608-9.272,2.231-15.773,4.224-16.728,1.469-2.895,5.772-3.154,8.881-3.154s6.009-.915,6.889.487c3.046.738,2.35.014,4.37,2.744,4.854,2.15,5.109,15.05,5.109,15.05A13.428,13.428,0,0,1-979.914,1489.756Z"/><path class="i" d="M-1008.286,1497.458s-.606,5.237,8.737,6.811"/><ellipse class="j" cx="2.118" cy="2.706" rx="2.118" ry="2.706" transform="translate(-1003.063 1505.766) rotate(-77)"/><path class="i" d="M-977.1,1488.73s2.048-19.52-15.252-19.52-15.623,19.52-15.623,19.52"/><path class="k" d="M-976.669,1486.272h0a2.773,2.773,0,0,1,2.774,2.774v5.762a2.773,2.773,0,0,1-2.774,2.774h0a2.774,2.774,0,0,1-2.774-2.774v-5.762A2.774,2.774,0,0,1-976.669,1486.272Z"/><path class="j" d="M-977.09,1486.272h2.2a1,1,0,0,1,1,1v9.31a1,1,0,0,1-1,1h-2.2v-11.31Z"/><path class="k" d="M-1007.666,1486.272h0a2.773,2.773,0,0,1,2.774,2.774v5.762a2.773,2.773,0,0,1-2.774,2.774h0a2.774,2.774,0,0,1-2.774-2.774v-5.762A2.774,2.774,0,0,1-1007.666,1486.272Z"/><path class="j" d="M-1009.44,1486.272h2.2v11.31h-2.2a1,1,0,0,1-1-1v-9.31A1,1,0,0,1-1009.44,1486.272Z"/><ellipse class="l" cx="1" cy="2" rx="1" ry="2" transform="translate(-987 1491)"/><ellipse class="l" cx="1" cy="2" rx="1" ry="2" transform="translate(-999 1491)"/></g></g></svg>