<svg xmlns="http://www.w3.org/2000/svg" width="220" height="70" viewBox="0 0 220 70"><defs><style>.a{fill:rgba(250,194,74,0.3);}.b,.g{fill:#fff;}.c{fill:#9a7035;}.d{fill:#f6ac19;}.e{fill:#bc1224;}.f,.h{fill:#8a5c26;}.f{font-size:14px;font-family:NotoSansCJKtc-Bold, Noto Sans CJK TC;font-weight:700;}.g{opacity:0.5;}.h{font-size:10px;font-family:NotoSansCJKtc-Regular, Noto Sans CJK TC;}</style></defs><g transform="translate(-202 -4004)"><rect class="a" width="220" height="70" rx="10" transform="translate(202 4004)"/><g transform="translate(-36 36)"><circle class="b" cx="15" cy="15" r="15" transform="translate(246 3976)"/><g transform="translate(251 3981)"><path class="c" d="M420.595,415.306a3.431,3.431,0,0,1-.965.142,3.679,3.679,0,0,1-3.588-3.756,3.83,3.83,0,0,1,1.081-2.683,7.192,7.192,0,0,1-.827-3.357,7.036,7.036,0,0,0-3.333,6.042,6.828,6.828,0,0,0,6.667,6.978,6.406,6.406,0,0,0,3.333-.936A6.858,6.858,0,0,1,420.595,415.306Z" transform="translate(-412.963 -398.672)"/><path class="d" d="M449.311,405.652a7.188,7.188,0,0,1-.827,3.357,3.83,3.83,0,0,1,1.082,2.683,3.679,3.679,0,0,1-3.588,3.756,3.431,3.431,0,0,1-.965-.142,6.857,6.857,0,0,1-2.369,2.43,6.406,6.406,0,0,0,3.333.936,6.828,6.828,0,0,0,6.667-6.978A7.036,7.036,0,0,0,449.311,405.652Z" transform="translate(-432.644 -398.672)"/><path class="e" d="M429.524,389.082A3.626,3.626,0,0,1,433,391.907a6.408,6.408,0,0,1,3.194.931v0a6.673,6.673,0,1,0-13.333,0v0a6.41,6.41,0,0,1,3.195-.931A3.626,3.626,0,0,1,429.524,389.082Z" transform="translate(-419.524 -385.858)"/><path class="e" d="M440.508,400.912a2.029,2.029,0,0,0-3.846,0,2.238,2.238,0,0,0-.14.777,2.065,2.065,0,1,0,4.125,0A2.237,2.237,0,0,0,440.508,400.912Z" transform="translate(-428.585 -394.709)"/><path class="c" d="M428.692,416.657a2.025,2.025,0,0,0-1.6.8,2.211,2.211,0,0,0-.46,1.357,2.112,2.112,0,0,0,2.063,2.159,1.952,1.952,0,0,0,.32-.029,2.167,2.167,0,0,0-.32-4.289Z" transform="translate(-422.025 -405.796)"/><path class="d" d="M450.082,417.459a2.025,2.025,0,0,0-1.6-.8,2.167,2.167,0,0,0-.32,4.289,1.949,1.949,0,0,0,.32.029,2.112,2.112,0,0,0,2.063-2.159A2.212,2.212,0,0,0,450.082,417.459Z" transform="translate(-435.145 -405.796)"/></g></g><text class="f" transform="translate(250 4033)"><tspan x="0" y="0">TGA</tspan><tspan y="0">兼職易</tspan></text><g transform="translate(3 -67)"><rect class="g" width="52" height="21" rx="5" transform="translate(247 4112)"/><text class="h" transform="translate(253 4127)"><tspan x="0" y="0">求職招聘</tspan></text></g></g></svg>