<svg xmlns="http://www.w3.org/2000/svg" width="220" height="104" viewBox="0 0 220 104"><defs><style>.a{fill:#f9f9f9;}.b{fill:#979797;font-size:12px;font-family:NotoSansCJKtc-Light, Noto Sans CJK TC;font-weight:300;}.c{fill:rgba(250,194,74,0.3);}.d{fill:#8a5c26;font-size:14px;font-family:NotoSansCJKtc-Regular, Noto Sans CJK TC;}.e,.f,.h{fill:none;}.e,.f{stroke:#fac24a;stroke-width:2px;}.f{stroke-linecap:round;}.g{stroke:none;}</style></defs><g transform="translate(-862 -3678)"><g transform="translate(0 23)"><rect class="a" width="200" height="26" rx="10" transform="translate(872 3686)"/><text class="b" transform="translate(922 3704)"><tspan x="0" y="0">附近的人</tspan></text></g><g transform="translate(0 23)"><rect class="a" width="200" height="26" rx="10" transform="translate(872 3655)"/><text class="b" transform="translate(922 3673)"><tspan x="0" y="0">搜搜看</tspan></text></g><g transform="translate(0 23)"><rect class="c" width="220" height="42" rx="10" transform="translate(862 3717)"/><text class="d" transform="translate(922 3744)"><tspan x="0" y="0">小程序</tspan></text><g transform="translate(-9 10)"><g class="e" transform="translate(886 3713)"><ellipse class="g" cx="15" cy="15" rx="15" ry="15"/><ellipse class="h" cx="15" cy="15" rx="14" ry="14"/></g><path class="f" d="M729.312,3781.138h0s.821-6.628-3.676-6.628-4.432,8.276-.275,9.352c2.852,1.078,3.581,2.184,3.645,5,.134,2.884-1.74,4.421-3.645,4.261s-3.734-1.732-3.395-6.236" transform="translate(3064.143 539.727) rotate(45)"/></g></g><g transform="translate(-11 11)"><path class="f" d="M911.292,3748.09v8" transform="translate(160.708 -12.09)"/><path class="f" d="M911.292,3748.09v8" transform="translate(4833.09 2837.708) rotate(90)"/><path class="f" d="M911.292,3748.09v8" transform="translate(3087.748 444.491) rotate(45)"/></g></g></svg>