<svg xmlns="http://www.w3.org/2000/svg" width="91.651" height="87.564" viewBox="0 0 91.651 87.564"><defs><style>.a{fill:#3b3938;}</style></defs><path class="a" d="M104.888,271.127a16.422,16.422,0,0,1-15.907-27.568,30.343,30.343,0,0,1-3.79-14.7,30.547,30.547,0,1,0,30.55,52.907A30.725,30.725,0,0,1,104.888,271.127Z" transform="translate(-69.916 -198.299)"/><path class="a" d="M127.031,228.86a30.366,30.366,0,0,1-3.788,14.7,16.414,16.414,0,0,1-15.908,27.568,30.726,30.726,0,0,1-10.854,10.64,30.547,30.547,0,1,0,30.55-52.907Z" transform="translate(-50.656 -198.299)"/><path class="a" d="M109.321,225.262a16.457,16.457,0,0,1,15.912,12.367,30.394,30.394,0,0,1,14.639,4.076V241.7a30.55,30.55,0,1,0-61.1,0v.009a30.394,30.394,0,0,1,14.639-4.076A16.458,16.458,0,0,1,109.321,225.262Z" transform="translate(-63.496 -211.144)"/><path class="a" d="M109.265,229.434a9.434,9.434,0,1,0,.64,3.4A9.445,9.445,0,0,0,109.265,229.434Z" transform="translate(-54.628 -202.272)"/><path class="a" d="M91.6,238.71a9.447,9.447,0,1,0,9.451,9.453A9.43,9.43,0,0,0,91.6,238.71Z" transform="translate(-61.048 -191.158)"/><path class="a" d="M116.654,242.22a9.446,9.446,0,1,0,2.108,5.943A9.425,9.425,0,0,0,116.654,242.22Z" transform="translate(-48.208 -191.158)"/></svg>