<svg xmlns="http://www.w3.org/2000/svg" width="1929.999" height="1300.001" viewBox="0 0 1929.999 1300.001"><defs><style>.a{fill:#fff;}</style></defs><g transform="translate(379.999)"><path class="a" d="M2331.856,9561.365a510.913,510.913,0,0,1-50.638-7.727c-16.43-3.362-32.874-7.592-48.876-12.567-15.823-4.921-31.587-10.691-46.858-17.15-15.126-6.4-30.125-13.623-44.58-21.475-14.351-7.8-28.5-16.392-42.05-25.546-13.485-9.111-26.7-18.988-39.261-29.36-12.536-10.345-24.72-21.419-36.217-32.917s-22.572-23.681-32.917-36.217c-10.369-12.565-20.249-25.774-29.36-39.261-9.155-13.552-17.75-27.7-25.546-42.048-7.851-14.454-15.076-29.453-21.475-44.582-6.459-15.271-12.229-31.035-17.15-46.857-4.976-16-9.2-32.444-12.568-48.874a511.02,511.02,0,0,1-7.726-50.641,517.637,517.637,0,0,1,0-104.288,511.113,511.113,0,0,1,7.726-50.639c3.363-16.43,7.592-32.873,12.568-48.876,4.921-15.822,10.691-31.585,17.15-46.855,6.4-15.129,13.624-30.13,21.475-44.582,7.8-14.349,16.391-28.5,25.546-42.05,9.111-13.484,18.988-26.693,29.36-39.261,10.345-12.537,21.42-24.723,32.917-36.218s23.681-22.569,36.217-32.917c12.565-10.371,25.776-20.248,39.261-29.359,13.552-9.154,27.7-17.75,42.05-25.544,14.452-7.851,29.451-15.078,44.58-21.478,15.271-6.456,31.035-12.227,46.858-17.149,16-4.976,32.447-9.205,48.876-12.565a510.344,510.344,0,0,1,50.638-7.729,517.687,517.687,0,0,1,104.288,0,510.35,510.35,0,0,1,50.638,7.729c16.43,3.36,32.874,7.59,48.876,12.565,15.823,4.923,31.587,10.693,46.858,17.149,15.129,6.4,30.128,13.627,44.58,21.478,14.351,7.794,28.5,16.39,42.05,25.544,13.487,9.111,26.7,18.99,39.261,29.359,12.537,10.348,24.723,21.42,36.218,32.917s22.572,23.681,32.917,36.218q3.867,4.686,7.638,9.484.584-8.648,1.454-17.221a511.065,511.065,0,0,1,7.729-50.638c3.36-16.433,7.59-32.876,12.568-48.876,4.921-15.823,10.691-31.588,17.15-46.858,6.4-15.129,13.624-30.128,21.475-44.582,7.793-14.349,16.389-28.5,25.546-42.048,9.111-13.486,18.989-26.7,29.36-39.263,10.345-12.534,21.42-24.721,32.915-36.218s23.681-22.569,36.217-32.914c12.568-10.372,25.776-20.249,39.261-29.36,13.554-9.154,27.7-17.75,42.05-25.546,14.454-7.851,29.453-15.075,44.582-21.475,15.27-6.459,31.035-12.229,46.858-17.149,16-4.979,32.444-9.205,48.874-12.568a511.213,511.213,0,0,1,50.638-7.729,517.711,517.711,0,0,1,104.291,0,511.218,511.218,0,0,1,50.638,7.729c16.43,3.363,32.874,7.59,48.876,12.568,15.82,4.92,31.585,10.69,46.855,17.149,15.129,6.4,30.128,13.624,44.582,21.475,14.349,7.8,28.5,16.392,42.05,25.546,13.485,9.111,26.7,18.988,39.261,29.36,12.534,10.345,24.72,21.42,36.217,32.914s22.57,23.684,32.915,36.218c10.372,12.567,20.249,25.776,29.36,39.263,9.155,13.552,17.75,27.7,25.546,42.048,7.851,14.454,15.076,29.453,21.475,44.582,6.459,15.271,12.229,31.035,17.15,46.858,4.978,16,9.205,32.443,12.568,48.876a511.137,511.137,0,0,1,7.729,50.638,517.637,517.637,0,0,1,0,104.288,511.113,511.113,0,0,1-7.729,50.639c-3.363,16.43-7.59,32.874-12.568,48.876-4.92,15.82-10.691,31.587-17.15,46.855-6.4,15.129-13.624,30.128-21.475,44.582-7.8,14.349-16.391,28.5-25.546,42.05-9.111,13.484-18.988,26.7-29.36,39.261-10.345,12.534-21.42,24.721-32.915,36.218s-23.683,22.569-36.217,32.917c-12.565,10.369-25.776,20.246-39.261,29.357-13.554,9.157-27.7,17.752-42.05,25.546-14.454,7.852-29.454,15.078-44.582,21.475-15.271,6.459-31.035,12.229-46.855,17.152-16,4.976-32.447,9.205-48.876,12.565a510.355,510.355,0,0,1-50.638,7.729,517.52,517.52,0,0,1-104.291,0,510.35,510.35,0,0,1-50.638-7.729c-16.43-3.36-32.874-7.59-48.874-12.565-15.823-4.923-31.587-10.693-46.858-17.152-15.129-6.4-30.128-13.623-44.582-21.475-14.349-7.794-28.5-16.389-42.05-25.546-13.485-9.111-26.693-18.988-39.261-29.357-12.534-10.348-24.72-21.42-36.217-32.917s-22.57-23.681-32.915-36.218q-3.867-4.685-7.64-9.485-.583,8.648-1.452,17.222a511.783,511.783,0,0,1-7.729,50.641c-3.363,16.43-7.592,32.874-12.568,48.874-4.92,15.822-10.691,31.587-17.15,46.857-6.4,15.129-13.624,30.128-21.475,44.582-7.8,14.349-16.391,28.5-25.546,42.048-9.111,13.486-18.991,26.7-29.36,39.261-10.345,12.536-21.42,24.723-32.917,36.217s-23.681,22.572-36.218,32.917c-12.565,10.372-25.774,20.249-39.261,29.36-13.552,9.154-27.7,17.75-42.05,25.546-14.452,7.852-29.451,15.076-44.58,21.475-15.27,6.459-31.035,12.229-46.858,17.15-16,4.976-32.447,9.205-48.876,12.567a510.92,510.92,0,0,1-50.638,7.727,517.115,517.115,0,0,1-104.288,0Zm-2.271-771.879a268.446,268.446,0,0,0-96.545,40.626,270.8,270.8,0,0,0-97.822,118.791,268.715,268.715,0,0,0-15.731,50.684,272.557,272.557,0,0,0,0,108.827,268.423,268.423,0,0,0,40.627,96.545,270.743,270.743,0,0,0,118.791,97.822,268.526,268.526,0,0,0,50.681,15.733,272.641,272.641,0,0,0,108.83,0,268.578,268.578,0,0,0,96.545-40.626,270.8,270.8,0,0,0,97.822-118.791,268.543,268.543,0,0,0,15.734-50.684,272.664,272.664,0,0,0,0-108.827,268.57,268.57,0,0,0-40.627-96.548,270.827,270.827,0,0,0-118.793-97.822,268.734,268.734,0,0,0-50.681-15.73,272.546,272.546,0,0,0-108.83,0Zm910-280a268.533,268.533,0,0,0-96.545,40.624,270.783,270.783,0,0,0-97.822,118.793,268.591,268.591,0,0,0-15.734,50.682,272.679,272.679,0,0,0,0,108.83,268.585,268.585,0,0,0,40.627,96.545,270.824,270.824,0,0,0,118.793,97.822,268.7,268.7,0,0,0,50.681,15.731,272.581,272.581,0,0,0,108.827,0,268.458,268.458,0,0,0,96.548-40.627,270.8,270.8,0,0,0,97.822-118.791,268.734,268.734,0,0,0,15.731-50.681,272.56,272.56,0,0,0,0-108.83,268.456,268.456,0,0,0-40.626-96.545,270.743,270.743,0,0,0-118.791-97.822,268.347,268.347,0,0,0-50.684-15.731,272.533,272.533,0,0,0-108.827,0Z" transform="translate(-2254 -8264)"/></g></svg>