<svg xmlns="http://www.w3.org/2000/svg" xmlns:xlink="http://www.w3.org/1999/xlink" width="326.165" height="790.76" viewBox="0 0 326.165 790.76"><defs><style>.a,.f,.g,.i,.k{fill:none;}.b{fill:#fce1d5;}.c{fill:#fff;}.d{fill:#f2703d;}.e{fill:#efefef;}.f{stroke:#fff;stroke-miterlimit:10;}.f,.g,.i,.k{stroke-linecap:round;}.f,.i{stroke-width:2px;}.g,.i,.k{stroke:#ba8888;stroke-linejoin:round;}.g{stroke-width:1.5px;}.h{fill:#e5b7b7;}.j{fill:#f22725;}.l{fill:#848484;}.m{fill:#f9f9f9;}.n{fill:#f2f2f2;}.o{fill:#f27a88;}.p{clip-path:url(#a);}.q{fill:#fac24a;}.r{fill:#f35601;}.s{fill:#2463e6;}.t{fill:#6b6b6b;}.u{fill:#d3d2d1;}.v{fill:#efa30a;}.w{fill:#e04805;}</style><clipPath id="a"><path class="a" d="M368.016,504.243l164.9-26.679L489.4,367.373l-99.028,31.415S359.954,430.03,368.016,504.243Z"/></clipPath></defs><g transform="translate(-1376 -86)"><g transform="translate(1152.078 51.198)"><ellipse class="b" cx="13.044" cy="12.613" rx="13.044" ry="12.613" transform="translate(512.638 81.385) rotate(-6.325)"/><path class="b" d="M445.589,634.332l-139.567-70.05L316.3,539s51.651,15.329,69.567,19.454c20.649,4.754,50.684,12.492,80.828,30.279Z"/><path class="c" d="M331.541,543.289,318.6,571.173l-16.756-10.044,12.138-24.447Z"/><path class="d" d="M329.99,536.321l-22.26-16.545a8.306,8.306,0,0,0-12.187,2.583L265.5,575.568s-14.048,21.961-7.858,31.645a3.525,3.525,0,0,0,2.775,1.623c10.314.517,11.981-8.774,15.691-11.768,3.89-3.141,26.129-24.946,34.088-26.23,3.9-.628,2.961-2.283.99-3.81a8.412,8.412,0,0,1-2.555-9.992c2.891-6.655,7.844-15.809,13.49-16.641,7.466-1.1,9.453.08,9.248-1.788A3.352,3.352,0,0,0,329.99,536.321Z"/><path class="e" d="M260.416,608.836a11.542,11.542,0,0,0,9.911-4.087c-5.264-8.549,3.212-23.6,3.212-23.6l35.788-60.186-1.6-1.187a8.306,8.306,0,0,0-12.187,2.583L265.5,575.568s-14.048,21.961-7.858,31.645A3.525,3.525,0,0,0,260.416,608.836Z"/><path class="e" d="M299.752,576.705"/><path class="f" d="M302.028,575.059s-2.47,6.164-4.789-2.759"/><path class="f" d="M295.211,580.3s-2.471,6.164-4.79-2.759"/><path class="f" d="M288.393,585.55s-2.47,6.165-4.789-2.758"/><circle class="b" cx="28.252" cy="28.252" r="28.252" transform="translate(431.994 581.712)"/><path class="b" d="M435.106,603.3s9.408-78.514,13.679-121.347l77.275-8.566S513.3,573.5,486.452,621.754Z"/><path class="b" d="M333.513,352.033l-29.5,7.055,39.452,59.973L355.1,410.2Z"/><circle class="b" cx="15.675" cy="15.675" r="15.675" transform="translate(301.913 334.969)"/><path class="g" d="M385.89,225.231"/><path d="M433.773,139.22"/><path class="b" d="M334.8,431.965C341.461,435.915,362,430,362,430s14.956-6.389,15.018-12.395c0,0-.332-12.946-14.689-21.265a9.692,9.692,0,0,0-7.9-.748c-4.124,1.363-13.038,5.4-15.677,10.119-4.2,7.508-7.293,15.9-6.632,21.863a11.3,11.3,0,0,0,2.683,4.391"/><path class="h" d="M334.8,431.965"/><path class="h" d="M375,413l-14,17-14,3-14.88-5.426s8.662-28.227,24.931-32.495l3.669.881a27.538,27.538,0,0,1,9.435,6.623A23.84,23.84,0,0,1,375,413Z"/><path class="h" d="M337.38,410.082A17.341,17.341,0,0,1,341.4,402.4c2.407-2.617,6.517-4.746,8.394-5.961,0,0-6.073-.333-9.719,3.09a9.574,9.574,0,0,0-2.7,10.555"/><path class="h" d="M374.392,409.758l2.093,7.806s-3.622-5.038-7.2-2.444S374.392,409.758,374.392,409.758Z"/><path class="b" d="M410.359,643.268l-70.05,139.567-25.286-10.277s15.329-51.651,19.454-69.567c4.754-20.649,12.492-50.685,30.279-80.828Z"/><ellipse class="b" cx="26.767" cy="28.767" rx="26.767" ry="28.767" transform="translate(361.134 598.556) rotate(-6.325)"/><path class="b" d="M371.084,497.709s-5.542,77.079-6.658,121.473l52.009,15.363s20.27-63.464,29.154-142.674Z"/><path class="c" d="M320.3,754.555l28.774,10.82-8.763,17.46-25.286-10.277Z"/><path class="d" d="M313.466,756.622l-14.835,23.434a8.307,8.307,0,0,0,3.487,11.961L357.423,818s22.951,12.368,32.144,5.472a3.522,3.522,0,0,0,1.411-2.889c-.255-10.325-9.644-11.292-12.908-14.768-3.422-3.645-26.828-24.191-28.7-32.032-.918-3.838-2.5-2.782-3.874-.7a8.412,8.412,0,0,1-9.773,3.3c-6.853-2.385-16.352-6.64-17.6-12.208-1.655-7.363-.626-9.433-2.475-9.088A3.351,3.351,0,0,0,313.466,756.622Z"/><path class="e" d="M390.978,820.582A11.54,11.54,0,0,0,386.162,811c-8.131,5.89-23.774-1.438-23.774-1.438L299.7,778.376l-1.064,1.68a8.307,8.307,0,0,0,3.487,11.961L357.423,818s22.951,12.368,32.144,5.472A3.522,3.522,0,0,0,390.978,820.582Z"/><path class="e" d="M356,783.757"/><path class="f" d="M354.185,781.61s6.333,2-2.392,4.982"/><path class="f" d="M359.926,788.017s6.332,2-2.393,4.982"/><path class="f" d="M365.667,794.423s6.332,2-2.393,4.982"/><path class="b" d="M391.031,232.9l6.906,35.352s9.533,22.187,30.849,14.794,10.637-27.338,10.637-27.338-2.569.284-5.107-4.465S393.9,231.575,393.9,231.575Z"/><path class="b" d="M443.355,254.421l-44.733,13.432-3.763,91.259,86.555-15.9-2.487-22.435s16.9-29.63-6.5-35.868Z"/><path class="b" d="M388.1,220.552l10.178,44.839,32.049-5.36-6.914-39.608Z"/><path class="h" d="M398.342,244.651a79.3,79.3,0,0,0,12.875,13.713c5.849,4.682,14.987,3.827,19.227,1.644a7.864,7.864,0,0,0,4.234-7.611l-.153-1.961a23.3,23.3,0,0,1-5.6,1.557c-31.316-4.722-39.163-27.84-39.163-27.84l-.795.214,2.554,11.252Z"/><path class="b" d="M389.988,224.537s7.484,21.715,37.8,27.9a18.212,18.212,0,0,0,6.784-1.546c5.759-2.281,13.133-7.176,17.249-15.351,6.158-12.232,7.134-37.574,1.6-53.362s-29.766-29.5-54.282-11.647S389.988,224.537,389.988,224.537Z"/><path class="g" d="M434,210l1.683,5.889a5.934,5.934,0,0,0,1.027,2.022l1.863,2.391L434,222"/><path class="i" d="M435.378,191.114s2.15-5,7.622-2.114"/><path class="i" d="M411,194a8.43,8.43,0,0,1,9.765-1.056"/><path class="h" d="M449.457,298.676s-2.563-6.571-11.065-10.659c0,0-2.1-.774,1.214,1.878s7.5,9.253,7.5,9.253,1.526-.2,1.542-.2.813-.273.813-.273"/><circle class="j" cx="3.5" cy="3.5" r="3.5" transform="translate(384.22 222.22)"/><path class="g" d="M445.021,195.568l-8.391,5.464,9.936,1.5"/><path class="g" d="M414.9,208.451l8.745-4.877-9.81-2.172"/><path class="g" d="M426,228s4,6,13,4"/><path class="h" d="M445,178s-12.409,7.749-31.7,1.874L416,173l32-4,6.068,17.733S449,180,445,178Z"/><path d="M441,144s-36-33-73.153,17.383C334.655,206.4,321.455,164,293.2,182.274s-42.533,71.584-19.966,93.055,69.8-7.737,83.928-28.228,31.775-22.422,33.822-14.461L388.5,222.458l4.81-23.87s11.922-1.6,22.175-22.929c0,0,19.35,3.824,29.41-2.168,0,0,9.109,8.509,11.109,19.509C456,193,473,156,441,144Z"/><circle class="b" cx="14.233" cy="14.233" r="14.233" transform="translate(371.745 196.553)"/><path class="h" d="M380.318,203.2s10.974-2.309,11.668,6.379c.745,9.317-7.7,9.623-7.7,9.623s-5.4-.033-4.931-4.934c.465-4.85,6.256-2.886,6.256-2.886s2.6,1.809,4.354-.38c1.109-1.385-.2-3.442-1.8-4.847C386.981,205.112,385.395,203.935,380.318,203.2Z"/><path class="k" d="M380.318,203.2s10.974-2.309,11.668,6.379c.745,9.317-7.7,9.623-7.7,9.623s-5.4-.033-4.931-4.934c.465-4.85,6.256-2.886,6.256-2.886"/><path class="h" d="M393.306,198.588c4.3,2.589,5.179,5.4,5.179,5.4a17.57,17.57,0,0,0,4.356-10.692S397.611,198.177,393.306,198.588Z"/><path class="b" d="M519.66,111.709s-1.31-8.689-16.167-17.214a34.329,34.329,0,0,1-9.454-25.842l38.913-26.448s12.121,17.387,9.908,33.73-3.448,33.584-3.448,33.584Z"/><circle class="b" cx="15.675" cy="15.675" r="15.675" transform="translate(518.737 197.835)"/><path class="b" d="M521.891,204.491l-39.7,28.992a32.851,32.851,0,0,1-4.6,2.812l-36.376,18.334L457,289c48.8-27.209,87.4-63.337,87.4-63.337Z"/><path class="b" d="M521,205s.881-82.9-2.576-102.7l19.666-4.7S541.864,139.6,550,213Z"/><path class="b" d="M333.513,352.033,398,315l6.965-35.451-6.343-11.7s-44.45,25.34-93.7,73.583Z"/><path class="h" d="M522.444,43.37l12.585-1.781s13.46,48.814-9.293,61.4L515.5,104.12l-1.459-1.624s-13.251-9.825-15.464-14.61-3.649-8.651-3.649-8.651Z"/><rect class="l" width="31" height="66" rx="8.242" transform="translate(494.863 38.218) rotate(-6.325)"/><rect class="m" width="24" height="57.613" rx="4.259" transform="translate(498.044 41.093) rotate(-6.325)"/><rect class="b" width="19" height="10" rx="5" transform="translate(521.114 43.131) rotate(-6.325)"/><rect class="b" width="30" height="10" rx="5" transform="translate(517.246 53.621) rotate(-6.325)"/><rect class="b" width="27" height="10" rx="5" transform="translate(519.452 64.444) rotate(-6.325)"/><rect class="b" width="20" height="10" rx="5" transform="translate(523.646 75.046) rotate(-6.325)"/><rect class="b" width="23" height="10" rx="5" transform="translate(499.487 59.489) rotate(74.971)"/><path class="b" d="M396.094,320.146s11.3-4.463,12.055-19.68-11.389-15.883-11.389-15.883l-.666,35.563"/><path class="h" d="M335.474,357.673s-3.677-14.957-12.843-15.953C322.631,341.72,330.542,349.437,335.474,357.673Z"/><path class="h" d="M521.082,192.061S518,217,530,222C530,222,524.165,219.123,521.082,192.061Z"/><path class="h" d="M447.828,491.33s-9.355,79.516-9.342,83.343c0,0-4.237-2.73-6.111-2.451l-11.847,49.532,9.568,4.8a12.351,12.351,0,0,0,17.782-9.408l17.127-128.6-17.177,2.779"/><path class="h" d="M447.828,491.33,446,512l78.18-25.613,1.135-7.593L447.828,491.33"/><path class="h" d="M370.614,504.4s-1.358,18.9-1.486,22.25l74.547-19.215,1.914-15.565L370.614,504.4"/><path class="h" d="M367.46,553.676l-2.121,40.377s-12.622-14.314-7.981-43.184Z"/><path class="b" d="M440.091,255.4"/><path class="c" d="M439.836,255.661s-.22-1.988.774-2.1,1.005,1.381,1.005,1.381Z"/><path class="c" d="M440.61,253.563a1.385,1.385,0,0,1,1.987-.221c1.1.884,15.885,21.755,15.885,21.755l-2.9.321Z"/><path class="c" d="M394.336,270.245s-.184-1.991.811-2.083.981,1.4.981,1.4Z"/><path class="c" d="M395.147,268.162a1.386,1.386,0,0,1,1.992-.185c1.088.9,14.417,23.014,14.417,23.014l-2.871,1.325Z"/><path class="h" d="M441.723,255.068l14.289,20.644-.62,1.332-15.448-21.259Z"/><path class="h" d="M396.128,269.561l-1.9,1.217,14.007,22.369.454-.831Z"/><path class="c" d="M413.955,291.35a50.954,50.954,0,0,0,34.469,7.636A3.618,3.618,0,0,0,451,297.3c1.662-2.683,4.736-9.111,4.185-19.3a3.726,3.726,0,0,1,2.146-3.6h0a3.689,3.689,0,0,1,3.2.049c5.355,2.675,22.509,11.535,25.19,16.55,3.183,5.955,2.349,21.188-4.3,29.495-5.387,6.731,4.675,33.285,8.688,43.12a3.7,3.7,0,0,1-2.3,4.923l-93.265,29.884a3.7,3.7,0,0,1-4.826-3.8c1.112-15.313,4.043-58.253,2.868-70.176a3.7,3.7,0,0,1,2.333-3.786c5.093-2.055,14.82-8.309,13.062-25.8a3.679,3.679,0,0,1,2.4-3.8l.251-.093A3.686,3.686,0,0,1,413.955,291.35Z"/><path class="n" d="M480.69,321.74S475.483,341.255,452.4,341.8s-36.108-8.071-36.108-8.071,14.685,5.415,38.1-1.205S480.69,321.74,480.69,321.74Z"/><path class="o" d="M367.94,504.4l164.9-26.68-43.519-110.19L390.3,398.946S359.878,430.188,367.94,504.4Z"/><g class="p"><circle class="q" cx="3" cy="3" r="3" transform="translate(312.871 344.703)"/><circle class="q" cx="3" cy="3" r="3" transform="translate(332.749 342.499)"/><circle class="q" cx="3" cy="3" r="3" transform="translate(322.815 343.602)"/><circle class="q" cx="3" cy="3" r="3" transform="translate(342.688 341.398)"/><circle class="q" cx="3" cy="3" r="3" transform="translate(352.628 340.296)"/><circle class="q" cx="3" cy="3" r="3" transform="translate(362.567 339.194)"/><circle class="q" cx="3" cy="3" r="3" transform="translate(372.506 338.093)"/><circle class="q" cx="3" cy="3" r="3" transform="translate(382.445 336.991)"/><circle class="q" cx="3" cy="3" r="3" transform="translate(392.384 335.889)"/><circle class="q" cx="3" cy="3" r="3" transform="translate(402.323 334.787)"/><circle class="q" cx="3" cy="3" r="3" transform="translate(412.262 333.686)"/><circle class="q" cx="3" cy="3" r="3" transform="translate(422.201 332.584)"/><circle class="q" cx="3" cy="3" r="3" transform="translate(432.141 331.482)"/><circle class="q" cx="3" cy="3" r="3" transform="translate(442.08 330.381)"/><circle class="q" cx="3" cy="3" r="3" transform="translate(452.019 329.279)"/><circle class="q" cx="3" cy="3" r="3" transform="translate(461.958 328.177)"/><circle class="q" cx="3" cy="3" r="3" transform="translate(471.897 327.076)"/><circle class="q" cx="3" cy="3" r="3" transform="translate(481.836 325.974)"/><circle class="q" cx="3" cy="3" r="3" transform="translate(491.775 324.872)"/><circle class="q" cx="3" cy="3" r="3" transform="translate(501.714 323.77)"/><circle class="q" cx="3" cy="3" r="3" transform="translate(511.654 322.669)"/><circle class="q" cx="3" cy="3" r="3" transform="translate(521.593 321.567)"/><circle class="q" cx="3" cy="3" r="3" transform="translate(531.532 320.465)"/><circle class="q" cx="3" cy="3" r="3" transform="translate(313.973 354.642)"/><circle class="q" cx="3" cy="3" r="3" transform="translate(333.851 352.438)"/><circle class="q" cx="3" cy="3" r="3" transform="translate(323.917 353.541)"/><circle class="q" cx="3" cy="3" r="3" transform="translate(343.79 351.337)"/><circle class="q" cx="3" cy="3" r="3" transform="translate(353.729 350.235)"/><circle class="q" cx="3" cy="3" r="3" transform="translate(363.668 349.133)"/><circle class="q" cx="3" cy="3" r="3" transform="translate(373.607 348.032)"/><circle class="q" cx="3" cy="3" r="3" transform="translate(383.547 346.93)"/><circle class="q" cx="3" cy="3" r="3" transform="translate(393.486 345.828)"/><circle class="q" cx="3" cy="3" r="3" transform="translate(403.425 344.727)"/><circle class="q" cx="3" cy="3" r="3" transform="translate(413.364 343.625)"/><circle class="q" cx="3" cy="3" r="3" transform="translate(423.303 342.523)"/><circle class="q" cx="3" cy="3" r="3" transform="translate(433.242 341.421)"/><circle class="q" cx="3" cy="3" r="3" transform="translate(443.181 340.32)"/><circle class="q" cx="3" cy="3" r="3" transform="translate(453.12 339.218)"/><circle class="q" cx="3" cy="3" r="3" transform="translate(463.06 338.116)"/><circle class="q" cx="3" cy="3" r="3" transform="translate(472.999 337.015)"/><circle class="q" cx="3" cy="3" r="3" transform="translate(482.938 335.913)"/><circle class="q" cx="3" cy="3" r="3" transform="translate(492.877 334.811)"/><circle class="q" cx="3" cy="3" r="3" transform="translate(502.816 333.71)"/><circle class="q" cx="3" cy="3" r="3" transform="translate(512.755 332.608)"/><circle class="q" cx="3" cy="3" r="3" transform="translate(522.694 331.506)"/><circle class="q" cx="3" cy="3" r="3" transform="translate(532.634 330.404)"/><circle class="q" cx="3" cy="3" r="3" transform="translate(315.074 364.581)"/><circle class="q" cx="3" cy="3" r="3" transform="translate(334.953 362.378)"/><circle class="q" cx="3" cy="3" r="3" transform="translate(325.018 363.48)"/><circle class="q" cx="3" cy="3" r="3" transform="translate(344.892 361.276)"/><circle class="q" cx="3" cy="3" r="3" transform="translate(354.831 360.174)"/><circle class="q" cx="3" cy="3" r="3" transform="translate(364.77 359.072)"/><circle class="q" cx="3" cy="3" r="3" transform="translate(374.709 357.971)"/><circle class="q" cx="3" cy="3" r="3" transform="translate(384.648 356.869)"/><circle class="q" cx="3" cy="3" r="3" transform="translate(394.587 355.767)"/><circle class="q" cx="3" cy="3" r="3" transform="translate(404.527 354.666)"/><circle class="q" cx="3" cy="3" r="3" transform="translate(414.466 353.564)"/><circle class="q" cx="3" cy="3" r="3" transform="translate(424.405 352.462)"/><circle class="q" cx="3" cy="3" r="3" transform="translate(434.344 351.361)"/><circle class="q" cx="3" cy="3" r="3" transform="translate(444.283 350.259)"/><circle class="q" cx="3" cy="3" r="3" transform="translate(454.222 349.157)"/><circle class="q" cx="3" cy="3" r="3" transform="translate(464.161 348.055)"/><circle class="q" cx="3" cy="3" r="3" transform="translate(474.1 346.954)"/><circle class="q" cx="3" cy="3" r="3" transform="translate(484.04 345.852)"/><circle class="q" cx="3" cy="3" r="3" transform="translate(493.979 344.75)"/><circle class="q" cx="3" cy="3" r="3" transform="translate(503.918 343.649)"/><circle class="q" cx="3" cy="3" r="3" transform="translate(513.857 342.547)"/><circle class="q" cx="3" cy="3" r="3" transform="translate(523.796 341.445)"/><circle class="q" cx="3" cy="3" r="3" transform="translate(533.735 340.344)"/><circle class="q" cx="3" cy="3" r="3" transform="translate(316.176 374.52)"/><circle class="q" cx="3" cy="3" r="3" transform="translate(336.054 372.317)"/><circle class="q" cx="3" cy="3" r="3" transform="translate(326.12 373.419)"/><circle class="q" cx="3" cy="3" r="3" transform="translate(345.993 371.215)"/><circle class="q" cx="3" cy="3" r="3" transform="translate(355.933 370.113)"/><circle class="q" cx="3" cy="3" r="3" transform="translate(365.872 369.012)"/><circle class="q" cx="3" cy="3" r="3" transform="translate(375.811 367.91)"/><circle class="q" cx="3" cy="3" r="3" transform="translate(385.75 366.808)"/><circle class="q" cx="3" cy="3" r="3" transform="translate(395.689 365.707)"/><circle class="q" cx="3" cy="3" r="3" transform="translate(405.628 364.605)"/><circle class="q" cx="3" cy="3" r="3" transform="translate(415.567 363.503)"/><circle class="q" cx="3" cy="3" r="3" transform="translate(425.507 362.401)"/><circle class="q" cx="3" cy="3" r="3" transform="translate(435.446 361.3)"/><circle class="q" cx="3" cy="3" r="3" transform="translate(445.385 360.198)"/><circle class="q" cx="3" cy="3" r="3" transform="translate(455.324 359.096)"/><circle class="q" cx="3" cy="3" r="3" transform="translate(465.263 357.995)"/><circle class="q" cx="3" cy="3" r="3" transform="translate(475.202 356.893)"/><circle class="q" cx="3" cy="3" r="3" transform="translate(485.141 355.791)"/><circle class="q" cx="3" cy="3" r="3" transform="translate(495.08 354.69)"/><circle class="q" cx="3" cy="3" r="3" transform="translate(505.02 353.588)"/><circle class="q" cx="3" cy="3" r="3" transform="translate(514.959 352.486)"/><circle class="q" cx="3" cy="3" r="3" transform="translate(524.898 351.384)"/><circle class="q" cx="3" cy="3" r="3" transform="translate(534.837 350.283)"/><circle class="q" cx="3" cy="3" r="3" transform="translate(317.278 384.459)"/><circle class="q" cx="3" cy="3" r="3" transform="translate(337.156 382.256)"/><circle class="q" cx="3" cy="3" r="3" transform="translate(327.222 383.358)"/><circle class="q" cx="3" cy="3" r="3" transform="translate(347.095 381.154)"/><circle class="q" cx="3" cy="3" r="3" transform="translate(357.034 380.052)"/><circle class="q" cx="3" cy="3" r="3" transform="translate(366.973 378.951)"/><circle class="q" cx="3" cy="3" r="3" transform="translate(376.913 377.849)"/><circle class="q" cx="3" cy="3" r="3" transform="translate(386.852 376.747)"/><circle class="q" cx="3" cy="3" r="3" transform="translate(396.791 375.646)"/><circle class="q" cx="3" cy="3" r="3" transform="translate(406.73 374.544)"/><circle class="q" cx="3" cy="3" r="3" transform="translate(416.669 373.442)"/><circle class="q" cx="3" cy="3" r="3" transform="translate(426.608 372.341)"/><circle class="q" cx="3" cy="3" r="3" transform="translate(436.547 371.239)"/><circle class="q" cx="3" cy="3" r="3" transform="translate(446.486 370.137)"/><circle class="q" cx="3" cy="3" r="3" transform="translate(456.426 369.035)"/><circle class="q" cx="3" cy="3" r="3" transform="translate(466.365 367.934)"/><circle class="q" cx="3" cy="3" r="3" transform="translate(476.304 366.832)"/><circle class="q" cx="3" cy="3" r="3" transform="translate(486.243 365.73)"/><circle class="q" cx="3" cy="3" r="3" transform="translate(496.182 364.629)"/><circle class="q" cx="3" cy="3" r="3" transform="translate(506.121 363.527)"/><circle class="q" cx="3" cy="3" r="3" transform="translate(516.06 362.425)"/><circle class="q" cx="3" cy="3" r="3" transform="translate(526 361.324)"/><circle class="q" cx="3" cy="3" r="3" transform="translate(535.939 360.222)"/><circle class="q" cx="3" cy="3" r="3" transform="translate(318.379 394.398)"/><circle class="q" cx="3" cy="3" r="3" transform="translate(338.258 392.195)"/><circle class="q" cx="3" cy="3" r="3" transform="translate(328.323 393.297)"/><circle class="q" cx="3" cy="3" r="3" transform="translate(348.197 391.093)"/><circle class="q" cx="3" cy="3" r="3" transform="translate(358.136 389.992)"/><circle class="q" cx="3" cy="3" r="3" transform="translate(368.075 388.89)"/><circle class="q" cx="3" cy="3" r="3" transform="translate(378.014 387.788)"/><circle class="q" cx="3" cy="3" r="3" transform="translate(387.953 386.686)"/><circle class="q" cx="3" cy="3" r="3" transform="translate(397.893 385.585)"/><circle class="q" cx="3" cy="3" r="3" transform="translate(407.832 384.483)"/><circle class="q" cx="3" cy="3" r="3" transform="translate(417.771 383.381)"/><circle class="q" cx="3" cy="3" r="3" transform="translate(427.71 382.28)"/><circle class="q" cx="3" cy="3" r="3" transform="translate(437.649 381.178)"/><circle class="q" cx="3" cy="3" r="3" transform="translate(447.588 380.076)"/><circle class="q" cx="3" cy="3" r="3" transform="translate(457.527 378.975)"/><circle class="q" cx="3" cy="3" r="3" transform="translate(467.466 377.873)"/><circle class="q" cx="3" cy="3" r="3" transform="translate(477.406 376.771)"/><circle class="q" cx="3" cy="3" r="3" transform="translate(487.345 375.669)"/><circle class="q" cx="3" cy="3" r="3" transform="translate(497.284 374.568)"/><circle class="q" cx="3" cy="3" r="3" transform="translate(507.223 373.466)"/><circle class="q" cx="3" cy="3" r="3" transform="translate(517.162 372.364)"/><circle class="q" cx="3" cy="3" r="3" transform="translate(527.101 371.263)"/><circle class="q" cx="3" cy="3" r="3" transform="translate(537.04 370.161)"/><circle class="q" cx="3" cy="3" r="3" transform="translate(319.481 404.337)"/><circle class="q" cx="3" cy="3" r="3" transform="translate(339.359 402.134)"/><circle class="q" cx="3" cy="3" r="3" transform="translate(329.425 403.236)"/><circle class="q" cx="3" cy="3" r="3" transform="translate(349.299 401.032)"/><circle class="q" cx="3" cy="3" r="3" transform="translate(359.238 399.931)"/><circle class="q" cx="3" cy="3" r="3" transform="translate(369.177 398.829)"/><circle class="q" cx="3" cy="3" r="3" transform="translate(379.116 397.727)"/><circle class="q" cx="3" cy="3" r="3" transform="translate(389.055 396.626)"/><circle class="q" cx="3" cy="3" r="3" transform="translate(398.994 395.524)"/><circle class="q" cx="3" cy="3" r="3" transform="translate(408.933 394.422)"/><circle class="q" cx="3" cy="3" r="3" transform="translate(418.872 393.32)"/><circle class="q" cx="3" cy="3" r="3" transform="translate(428.812 392.219)"/><circle class="q" cx="3" cy="3" r="3" transform="translate(438.751 391.117)"/><circle class="q" cx="3" cy="3" r="3" transform="translate(448.69 390.015)"/><circle class="q" cx="3" cy="3" r="3" transform="translate(458.629 388.914)"/><circle class="q" cx="3" cy="3" r="3" transform="translate(468.568 387.812)"/><circle class="q" cx="3" cy="3" r="3" transform="translate(478.507 386.71)"/><circle class="q" cx="3" cy="3" r="3" transform="translate(488.446 385.609)"/><circle class="q" cx="3" cy="3" r="3" transform="translate(498.385 384.507)"/><circle class="q" cx="3" cy="3" r="3" transform="translate(508.325 383.405)"/><circle class="q" cx="3" cy="3" r="3" transform="translate(518.264 382.303)"/><circle class="q" cx="3" cy="3" r="3" transform="translate(528.203 381.202)"/><circle class="q" cx="3" cy="3" r="3" transform="translate(538.142 380.1)"/><circle class="q" cx="3" cy="3" r="3" transform="translate(320.583 414.277)"/><circle class="q" cx="3" cy="3" r="3" transform="translate(340.461 412.073)"/><circle class="q" cx="3" cy="3" r="3" transform="translate(330.527 413.175)"/><circle class="q" cx="3" cy="3" r="3" transform="translate(350.4 410.971)"/><circle class="q" cx="3" cy="3" r="3" transform="translate(360.339 409.87)"/><circle class="q" cx="3" cy="3" r="3" transform="translate(370.279 408.768)"/><circle class="q" cx="3" cy="3" r="3" transform="translate(380.218 407.666)"/><circle class="q" cx="3" cy="3" r="3" transform="translate(390.157 406.565)"/><circle class="q" cx="3" cy="3" r="3" transform="translate(400.096 405.463)"/><circle class="q" cx="3" cy="3" r="3" transform="translate(410.035 404.361)"/><circle class="q" cx="3" cy="3" r="3" transform="translate(419.974 403.26)"/><circle class="q" cx="3" cy="3" r="3" transform="translate(429.913 402.158)"/><circle class="q" cx="3" cy="3" r="3" transform="translate(439.852 401.056)"/><circle class="q" cx="3" cy="3" r="3" transform="translate(449.792 399.955)"/><circle class="q" cx="3" cy="3" r="3" transform="translate(459.731 398.853)"/><circle class="q" cx="3" cy="3" r="3" transform="translate(469.67 397.751)"/><circle class="q" cx="3" cy="3" r="3" transform="translate(479.609 396.649)"/><circle class="q" cx="3" cy="3" r="3" transform="translate(489.548 395.548)"/><circle class="q" cx="3" cy="3" r="3" transform="translate(499.487 394.446)"/><circle class="q" cx="3" cy="3" r="3" transform="translate(509.426 393.344)"/><circle class="q" cx="3" cy="3" r="3" transform="translate(519.365 392.243)"/><circle class="q" cx="3" cy="3" r="3" transform="translate(529.305 391.141)"/><circle class="q" cx="3" cy="3" r="3" transform="translate(539.244 390.039)"/><circle class="q" cx="3" cy="3" r="3" transform="translate(321.685 424.216)"/><circle class="q" cx="3" cy="3" r="3" transform="translate(341.563 422.012)"/><circle class="q" cx="3" cy="3" r="3" transform="translate(331.628 423.115)"/><circle class="q" cx="3" cy="3" r="3" transform="translate(351.502 420.911)"/><circle class="q" cx="3" cy="3" r="3" transform="translate(361.441 419.809)"/><circle class="q" cx="3" cy="3" r="3" transform="translate(371.38 418.707)"/><circle class="q" cx="3" cy="3" r="3" transform="translate(381.319 417.606)"/><circle class="q" cx="3" cy="3" r="3" transform="translate(391.258 416.504)"/><circle class="q" cx="3" cy="3" r="3" transform="translate(401.198 415.402)"/><circle class="q" cx="3" cy="3" r="3" transform="translate(411.137 414.3)"/><circle class="q" cx="3" cy="3" r="3" transform="translate(421.076 413.199)"/><circle class="q" cx="3" cy="3" r="3" transform="translate(431.015 412.097)"/><circle class="q" cx="3" cy="3" r="3" transform="translate(440.954 410.995)"/><circle class="q" cx="3" cy="3" r="3" transform="translate(450.893 409.894)"/><circle class="q" cx="3" cy="3" r="3" transform="translate(460.832 408.792)"/><circle class="q" cx="3" cy="3" r="3" transform="translate(470.772 407.69)"/><circle class="q" cx="3" cy="3" r="3" transform="translate(480.711 406.589)"/><circle class="q" cx="3" cy="3" r="3" transform="translate(490.65 405.487)"/><circle class="q" cx="3" cy="3" r="3" transform="translate(500.589 404.385)"/><circle class="q" cx="3" cy="3" r="3" transform="translate(510.528 403.283)"/><circle class="q" cx="3" cy="3" r="3" transform="translate(520.467 402.182)"/><circle class="q" cx="3" cy="3" r="3" transform="translate(530.406 401.08)"/><circle class="q" cx="3" cy="3" r="3" transform="translate(540.345 399.978)"/><circle class="q" cx="3" cy="3" r="3" transform="translate(322.786 434.155)"/><circle class="q" cx="3" cy="3" r="3" transform="translate(342.665 431.951)"/><circle class="q" cx="3" cy="3" r="3" transform="translate(332.73 433.054)"/><circle class="q" cx="3" cy="3" r="3" transform="translate(352.604 430.85)"/><circle class="q" cx="3" cy="3" r="3" transform="translate(362.543 429.748)"/><circle class="q" cx="3" cy="3" r="3" transform="translate(372.482 428.646)"/><circle class="q" cx="3" cy="3" r="3" transform="translate(382.421 427.545)"/><circle class="q" cx="3" cy="3" r="3" transform="translate(392.36 426.443)"/><circle class="q" cx="3" cy="3" r="3" transform="translate(402.299 425.341)"/><circle class="q" cx="3" cy="3" r="3" transform="translate(412.238 424.24)"/><circle class="q" cx="3" cy="3" r="3" transform="translate(422.178 423.138)"/><circle class="q" cx="3" cy="3" r="3" transform="translate(432.117 422.036)"/><circle class="q" cx="3" cy="3" r="3" transform="translate(442.056 420.934)"/><circle class="q" cx="3" cy="3" r="3" transform="translate(451.995 419.833)"/><circle class="q" cx="3" cy="3" r="3" transform="translate(461.934 418.731)"/><circle class="q" cx="3" cy="3" r="3" transform="translate(471.873 417.629)"/><circle class="q" cx="3" cy="3" r="3" transform="translate(481.812 416.528)"/><circle class="q" cx="3" cy="3" r="3" transform="translate(491.751 415.426)"/><circle class="q" cx="3" cy="3" r="3" transform="translate(501.691 414.324)"/><circle class="q" cx="3" cy="3" r="3" transform="translate(511.63 413.223)"/><circle class="q" cx="3" cy="3" r="3" transform="translate(521.569 412.121)"/><circle class="q" cx="3" cy="3" r="3" transform="translate(531.508 411.019)"/><circle class="q" cx="3" cy="3" r="3" transform="translate(541.447 409.918)"/><circle class="q" cx="3" cy="3" r="3" transform="translate(323.888 444.094)"/><circle class="q" cx="3" cy="3" r="3" transform="translate(343.766 441.891)"/><circle class="q" cx="3" cy="3" r="3" transform="translate(333.832 442.993)"/><circle class="q" cx="3" cy="3" r="3" transform="translate(353.705 440.789)"/><circle class="q" cx="3" cy="3" r="3" transform="translate(363.645 439.687)"/><circle class="q" cx="3" cy="3" r="3" transform="translate(373.584 438.585)"/><circle class="q" cx="3" cy="3" r="3" transform="translate(383.523 437.484)"/><circle class="q" cx="3" cy="3" r="3" transform="translate(393.462 436.382)"/><circle class="q" cx="3" cy="3" r="3" transform="translate(403.401 435.28)"/><circle class="q" cx="3" cy="3" r="3" transform="translate(413.34 434.179)"/><circle class="q" cx="3" cy="3" r="3" transform="translate(423.279 433.077)"/><circle class="q" cx="3" cy="3" r="3" transform="translate(433.218 431.975)"/><circle class="q" cx="3" cy="3" r="3" transform="translate(443.158 430.874)"/><circle class="q" cx="3" cy="3" r="3" transform="translate(453.097 429.772)"/><circle class="q" cx="3" cy="3" r="3" transform="translate(463.036 428.67)"/><circle class="q" cx="3" cy="3" r="3" transform="translate(472.975 427.569)"/><circle class="q" cx="3" cy="3" r="3" transform="translate(482.914 426.467)"/><circle class="q" cx="3" cy="3" r="3" transform="translate(492.853 425.365)"/><circle class="q" cx="3" cy="3" r="3" transform="translate(502.792 424.263)"/><circle class="q" cx="3" cy="3" r="3" transform="translate(512.731 423.162)"/><circle class="q" cx="3" cy="3" r="3" transform="translate(522.671 422.06)"/><circle class="q" cx="3" cy="3" r="3" transform="translate(532.61 420.958)"/><circle class="q" cx="3" cy="3" r="3" transform="translate(542.549 419.857)"/><circle class="q" cx="3" cy="3" r="3" transform="translate(324.99 454.033)"/><circle class="q" cx="3" cy="3" r="3" transform="translate(344.868 451.83)"/><circle class="q" cx="3" cy="3" r="3" transform="translate(334.934 452.932)"/><circle class="q" cx="3" cy="3" r="3" transform="translate(354.807 450.728)"/><circle class="q" cx="3" cy="3" r="3" transform="translate(364.746 449.626)"/><circle class="q" cx="3" cy="3" r="3" transform="translate(374.685 448.525)"/><circle class="q" cx="3" cy="3" r="3" transform="translate(384.624 447.423)"/><circle class="q" cx="3" cy="3" r="3" transform="translate(394.564 446.321)"/><circle class="q" cx="3" cy="3" r="3" transform="translate(404.503 445.22)"/><circle class="q" cx="3" cy="3" r="3" transform="translate(414.442 444.118)"/><circle class="q" cx="3" cy="3" r="3" transform="translate(424.381 443.016)"/><circle class="q" cx="3" cy="3" r="3" transform="translate(434.32 441.914)"/><circle class="q" cx="3" cy="3" r="3" transform="translate(444.259 440.813)"/><circle class="q" cx="3" cy="3" r="3" transform="translate(454.198 439.711)"/><circle class="q" cx="3" cy="3" r="3" transform="translate(464.137 438.609)"/><circle class="q" cx="3" cy="3" r="3" transform="translate(474.077 437.508)"/><circle class="q" cx="3" cy="3" r="3" transform="translate(484.016 436.406)"/><circle class="q" cx="3" cy="3" r="3" transform="translate(493.955 435.304)"/><circle class="q" cx="3" cy="3" r="3" transform="translate(503.894 434.203)"/><circle class="q" cx="3" cy="3" r="3" transform="translate(513.833 433.101)"/><circle class="q" cx="3" cy="3" r="3" transform="translate(523.772 431.999)"/><circle class="q" cx="3" cy="3" r="3" transform="translate(533.711 430.897)"/><circle class="q" cx="3" cy="3" r="3" transform="translate(543.651 429.796)"/><circle class="q" cx="3" cy="3" r="3" transform="translate(326.091 463.972)"/><circle class="q" cx="3" cy="3" r="3" transform="translate(345.97 461.769)"/><circle class="q" cx="3" cy="3" r="3" transform="translate(336.035 462.871)"/><circle class="q" cx="3" cy="3" r="3" transform="translate(355.909 460.667)"/><circle class="q" cx="3" cy="3" r="3" transform="translate(365.848 459.565)"/><circle class="q" cx="3" cy="3" r="3" transform="translate(375.787 458.464)"/><circle class="q" cx="3" cy="3" r="3" transform="translate(385.726 457.362)"/><circle class="q" cx="3" cy="3" r="3" transform="translate(395.665 456.26)"/><circle class="q" cx="3" cy="3" r="3" transform="translate(405.604 455.159)"/><circle class="q" cx="3" cy="3" r="3" transform="translate(415.544 454.057)"/><circle class="q" cx="3" cy="3" r="3" transform="translate(425.483 452.955)"/><circle class="q" cx="3" cy="3" r="3" transform="translate(435.422 451.854)"/><circle class="q" cx="3" cy="3" r="3" transform="translate(445.361 450.752)"/><circle class="q" cx="3" cy="3" r="3" transform="translate(455.3 449.65)"/><circle class="q" cx="3" cy="3" r="3" transform="translate(465.239 448.548)"/><circle class="q" cx="3" cy="3" r="3" transform="translate(475.178 447.447)"/><circle class="q" cx="3" cy="3" r="3" transform="translate(485.117 446.345)"/><circle class="q" cx="3" cy="3" r="3" transform="translate(495.057 445.243)"/><circle class="q" cx="3" cy="3" r="3" transform="translate(504.996 444.142)"/><circle class="q" cx="3" cy="3" r="3" transform="translate(514.935 443.04)"/><circle class="q" cx="3" cy="3" r="3" transform="translate(524.874 441.938)"/><circle class="q" cx="3" cy="3" r="3" transform="translate(534.813 440.837)"/><circle class="q" cx="3" cy="3" r="3" transform="translate(544.752 439.735)"/><circle class="q" cx="3" cy="3" r="3" transform="translate(327.193 473.911)"/><circle class="q" cx="3" cy="3" r="3" transform="translate(347.071 471.708)"/><circle class="q" cx="3" cy="3" r="3" transform="translate(337.137 472.81)"/><circle class="q" cx="3" cy="3" r="3" transform="translate(357.01 470.606)"/><circle class="q" cx="3" cy="3" r="3" transform="translate(366.95 469.505)"/><circle class="q" cx="3" cy="3" r="3" transform="translate(376.889 468.403)"/><circle class="q" cx="3" cy="3" r="3" transform="translate(386.828 467.301)"/><circle class="q" cx="3" cy="3" r="3" transform="translate(396.767 466.199)"/><circle class="q" cx="3" cy="3" r="3" transform="translate(406.706 465.098)"/><circle class="q" cx="3" cy="3" r="3" transform="translate(416.645 463.996)"/><circle class="q" cx="3" cy="3" r="3" transform="translate(426.584 462.894)"/><circle class="q" cx="3" cy="3" r="3" transform="translate(436.523 461.793)"/><circle class="q" cx="3" cy="3" r="3" transform="translate(446.463 460.691)"/><circle class="q" cx="3" cy="3" r="3" transform="translate(456.402 459.589)"/><circle class="q" cx="3" cy="3" r="3" transform="translate(466.341 458.488)"/><circle class="q" cx="3" cy="3" r="3" transform="translate(476.28 457.386)"/><circle class="q" cx="3" cy="3" r="3" transform="translate(486.219 456.284)"/><circle class="q" cx="3" cy="3" r="3" transform="translate(496.158 455.182)"/><circle class="q" cx="3" cy="3" r="3" transform="translate(506.097 454.081)"/><circle class="q" cx="3" cy="3" r="3" transform="translate(516.036 452.979)"/><circle class="q" cx="3" cy="3" r="3" transform="translate(525.976 451.877)"/><circle class="q" cx="3" cy="3" r="3" transform="translate(535.915 450.776)"/><circle class="q" cx="3" cy="3" r="3" transform="translate(545.854 449.674)"/><circle class="q" cx="3" cy="3" r="3" transform="translate(328.295 483.85)"/><circle class="q" cx="3" cy="3" r="3" transform="translate(348.173 481.647)"/><circle class="q" cx="3" cy="3" r="3" transform="translate(338.239 482.749)"/><circle class="q" cx="3" cy="3" r="3" transform="translate(358.112 480.545)"/><circle class="q" cx="3" cy="3" r="3" transform="translate(368.051 479.444)"/><circle class="q" cx="3" cy="3" r="3" transform="translate(377.99 478.342)"/><circle class="q" cx="3" cy="3" r="3" transform="translate(387.93 477.24)"/><circle class="q" cx="3" cy="3" r="3" transform="translate(397.869 476.139)"/><circle class="q" cx="3" cy="3" r="3" transform="translate(407.808 475.037)"/><circle class="q" cx="3" cy="3" r="3" transform="translate(417.747 473.935)"/><circle class="q" cx="3" cy="3" r="3" transform="translate(427.686 472.834)"/><circle class="q" cx="3" cy="3" r="3" transform="translate(437.625 471.732)"/><circle class="q" cx="3" cy="3" r="3" transform="translate(447.564 470.63)"/><circle class="q" cx="3" cy="3" r="3" transform="translate(457.503 469.528)"/><circle class="q" cx="3" cy="3" r="3" transform="translate(467.443 468.427)"/><circle class="q" cx="3" cy="3" r="3" transform="translate(477.382 467.325)"/><circle class="q" cx="3" cy="3" r="3" transform="translate(487.321 466.223)"/><circle class="q" cx="3" cy="3" r="3" transform="translate(497.26 465.122)"/><circle class="q" cx="3" cy="3" r="3" transform="translate(507.199 464.02)"/><circle class="q" cx="3" cy="3" r="3" transform="translate(517.138 462.918)"/><circle class="q" cx="3" cy="3" r="3" transform="translate(527.077 461.817)"/><circle class="q" cx="3" cy="3" r="3" transform="translate(537.016 460.715)"/><circle class="q" cx="3" cy="3" r="3" transform="translate(546.956 459.613)"/><circle class="q" cx="3" cy="3" r="3" transform="translate(329.396 493.79)"/><circle class="q" cx="3" cy="3" r="3" transform="translate(349.275 491.586)"/><circle class="q" cx="3" cy="3" r="3" transform="translate(339.34 492.689)"/><circle class="q" cx="3" cy="3" r="3" transform="translate(359.214 490.485)"/><circle class="q" cx="3" cy="3" r="3" transform="translate(369.153 489.383)"/><circle class="q" cx="3" cy="3" r="3" transform="translate(379.092 488.281)"/><circle class="q" cx="3" cy="3" r="3" transform="translate(389.031 487.179)"/><circle class="q" cx="3" cy="3" r="3" transform="translate(398.97 486.078)"/><circle class="q" cx="3" cy="3" r="3" transform="translate(408.91 484.976)"/><circle class="q" cx="3" cy="3" r="3" transform="translate(418.849 483.874)"/><circle class="q" cx="3" cy="3" r="3" transform="translate(428.788 482.773)"/><circle class="q" cx="3" cy="3" r="3" transform="translate(438.727 481.671)"/><circle class="q" cx="3" cy="3" r="3" transform="translate(448.666 480.569)"/><circle class="q" cx="3" cy="3" r="3" transform="translate(458.605 479.468)"/><circle class="q" cx="3" cy="3" r="3" transform="translate(468.544 478.366)"/><circle class="q" cx="3" cy="3" r="3" transform="translate(478.483 477.264)"/><circle class="q" cx="3" cy="3" r="3" transform="translate(488.423 476.162)"/><circle class="q" cx="3" cy="3" r="3" transform="translate(498.362 475.061)"/><circle class="q" cx="3" cy="3" r="3" transform="translate(508.301 473.959)"/><circle class="q" cx="3" cy="3" r="3" transform="translate(518.24 472.857)"/><circle class="q" cx="3" cy="3" r="3" transform="translate(528.179 471.756)"/><circle class="q" cx="3" cy="3" r="3" transform="translate(538.118 470.654)"/><circle class="q" cx="3" cy="3" r="3" transform="translate(548.057 469.552)"/><circle class="q" cx="3" cy="3" r="3" transform="translate(330.498 503.729)"/><circle class="q" cx="3" cy="3" r="3" transform="translate(350.376 501.525)"/><circle class="q" cx="3" cy="3" r="3" transform="translate(340.442 502.628)"/><circle class="q" cx="3" cy="3" r="3" transform="translate(360.316 500.424)"/><circle class="q" cx="3" cy="3" r="3" transform="translate(370.255 499.322)"/><circle class="q" cx="3" cy="3" r="3" transform="translate(380.194 498.22)"/><circle class="q" cx="3" cy="3" r="3" transform="translate(390.133 497.119)"/><circle class="q" cx="3" cy="3" r="3" transform="translate(400.072 496.017)"/><circle class="q" cx="3" cy="3" r="3" transform="translate(410.011 494.915)"/><circle class="q" cx="3" cy="3" r="3" transform="translate(419.95 493.813)"/><circle class="q" cx="3" cy="3" r="3" transform="translate(429.889 492.712)"/><circle class="q" cx="3" cy="3" r="3" transform="translate(439.829 491.61)"/><circle class="q" cx="3" cy="3" r="3" transform="translate(449.768 490.508)"/><circle class="q" cx="3" cy="3" r="3" transform="translate(459.707 489.407)"/><circle class="q" cx="3" cy="3" r="3" transform="translate(469.646 488.305)"/><circle class="q" cx="3" cy="3" r="3" transform="translate(479.585 487.203)"/><circle class="q" cx="3" cy="3" r="3" transform="translate(489.524 486.102)"/><circle class="q" cx="3" cy="3" r="3" transform="translate(499.463 485)"/><circle class="q" cx="3" cy="3" r="3" transform="translate(509.402 483.898)"/><circle class="q" cx="3" cy="3" r="3" transform="translate(519.342 482.796)"/><circle class="q" cx="3" cy="3" r="3" transform="translate(529.281 481.695)"/><circle class="q" cx="3" cy="3" r="3" transform="translate(539.22 480.593)"/><circle class="q" cx="3" cy="3" r="3" transform="translate(549.159 479.491)"/><circle class="q" cx="3" cy="3" r="3" transform="translate(331.6 513.668)"/><circle class="q" cx="3" cy="3" r="3" transform="translate(351.478 511.464)"/><circle class="q" cx="3" cy="3" r="3" transform="translate(341.544 512.567)"/><circle class="q" cx="3" cy="3" r="3" transform="translate(361.417 510.363)"/><circle class="q" cx="3" cy="3" r="3" transform="translate(371.356 509.261)"/><circle class="q" cx="3" cy="3" r="3" transform="translate(381.296 508.159)"/><circle class="q" cx="3" cy="3" r="3" transform="translate(391.235 507.058)"/><circle class="q" cx="3" cy="3" r="3" transform="translate(401.174 505.956)"/><circle class="q" cx="3" cy="3" r="3" transform="translate(411.113 504.854)"/><circle class="q" cx="3" cy="3" r="3" transform="translate(421.052 503.753)"/><circle class="q" cx="3" cy="3" r="3" transform="translate(430.991 502.651)"/><circle class="q" cx="3" cy="3" r="3" transform="translate(440.93 501.549)"/><circle class="q" cx="3" cy="3" r="3" transform="translate(450.869 500.448)"/><circle class="q" cx="3" cy="3" r="3" transform="translate(460.809 499.346)"/><circle class="q" cx="3" cy="3" r="3" transform="translate(470.748 498.244)"/><circle class="q" cx="3" cy="3" r="3" transform="translate(480.687 497.142)"/><circle class="q" cx="3" cy="3" r="3" transform="translate(490.626 496.041)"/><circle class="q" cx="3" cy="3" r="3" transform="translate(500.565 494.939)"/><circle class="q" cx="3" cy="3" r="3" transform="translate(510.504 493.837)"/><circle class="q" cx="3" cy="3" r="3" transform="translate(520.443 492.736)"/><circle class="q" cx="3" cy="3" r="3" transform="translate(530.382 491.634)"/><circle class="q" cx="3" cy="3" r="3" transform="translate(540.322 490.532)"/><circle class="q" cx="3" cy="3" r="3" transform="translate(550.261 489.431)"/><circle class="q" cx="3" cy="3" r="3" transform="translate(332.702 523.607)"/><circle class="q" cx="3" cy="3" r="3" transform="translate(352.58 521.404)"/><circle class="q" cx="3" cy="3" r="3" transform="translate(342.645 522.506)"/><circle class="q" cx="3" cy="3" r="3" transform="translate(362.519 520.302)"/><circle class="q" cx="3" cy="3" r="3" transform="translate(372.458 519.2)"/><circle class="q" cx="3" cy="3" r="3" transform="translate(382.397 518.099)"/><circle class="q" cx="3" cy="3" r="3" transform="translate(392.336 516.997)"/><circle class="q" cx="3" cy="3" r="3" transform="translate(402.275 515.895)"/><circle class="q" cx="3" cy="3" r="3" transform="translate(412.215 514.793)"/><circle class="q" cx="3" cy="3" r="3" transform="translate(422.154 513.692)"/><circle class="q" cx="3" cy="3" r="3" transform="translate(432.093 512.59)"/><circle class="q" cx="3" cy="3" r="3" transform="translate(442.032 511.488)"/><circle class="q" cx="3" cy="3" r="3" transform="translate(451.971 510.387)"/><circle class="q" cx="3" cy="3" r="3" transform="translate(461.91 509.285)"/><circle class="q" cx="3" cy="3" r="3" transform="translate(471.849 508.183)"/><circle class="q" cx="3" cy="3" r="3" transform="translate(481.788 507.082)"/><circle class="q" cx="3" cy="3" r="3" transform="translate(491.728 505.98)"/><circle class="q" cx="3" cy="3" r="3" transform="translate(501.667 504.878)"/><circle class="q" cx="3" cy="3" r="3" transform="translate(511.606 503.776)"/><circle class="q" cx="3" cy="3" r="3" transform="translate(521.545 502.675)"/><circle class="q" cx="3" cy="3" r="3" transform="translate(531.484 501.573)"/><circle class="q" cx="3" cy="3" r="3" transform="translate(541.423 500.471)"/><circle class="q" cx="3" cy="3" r="3" transform="translate(551.362 499.37)"/><circle class="q" cx="3" cy="3" r="3" transform="translate(333.803 533.546)"/><circle class="q" cx="3" cy="3" r="3" transform="translate(353.682 531.343)"/><circle class="q" cx="3" cy="3" r="3" transform="translate(343.747 532.445)"/><circle class="q" cx="3" cy="3" r="3" transform="translate(363.621 530.241)"/><circle class="q" cx="3" cy="3" r="3" transform="translate(373.56 529.139)"/><circle class="q" cx="3" cy="3" r="3" transform="translate(383.499 528.038)"/><circle class="q" cx="3" cy="3" r="3" transform="translate(393.438 526.936)"/><circle class="q" cx="3" cy="3" r="3" transform="translate(403.377 525.834)"/><circle class="q" cx="3" cy="3" r="3" transform="translate(413.316 524.733)"/><circle class="q" cx="3" cy="3" r="3" transform="translate(423.255 523.631)"/><circle class="q" cx="3" cy="3" r="3" transform="translate(433.195 522.529)"/><circle class="q" cx="3" cy="3" r="3" transform="translate(443.134 521.427)"/><circle class="q" cx="3" cy="3" r="3" transform="translate(453.073 520.326)"/><circle class="q" cx="3" cy="3" r="3" transform="translate(463.012 519.224)"/><circle class="q" cx="3" cy="3" r="3" transform="translate(472.951 518.122)"/><circle class="q" cx="3" cy="3" r="3" transform="translate(482.89 517.021)"/><circle class="q" cx="3" cy="3" r="3" transform="translate(492.829 515.919)"/><circle class="q" cx="3" cy="3" r="3" transform="translate(502.768 514.817)"/><circle class="q" cx="3" cy="3" r="3" transform="translate(512.708 513.716)"/><circle class="q" cx="3" cy="3" r="3" transform="translate(522.647 512.614)"/><circle class="q" cx="3" cy="3" r="3" transform="translate(532.586 511.512)"/><circle class="q" cx="3" cy="3" r="3" transform="translate(542.525 510.41)"/><circle class="q" cx="3" cy="3" r="3" transform="translate(552.464 509.309)"/><circle class="q" cx="3" cy="3" r="3" transform="translate(334.905 543.485)"/><circle class="q" cx="3" cy="3" r="3" transform="translate(354.783 541.282)"/><circle class="q" cx="3" cy="3" r="3" transform="translate(344.849 542.384)"/><circle class="q" cx="3" cy="3" r="3" transform="translate(364.722 540.18)"/><circle class="q" cx="3" cy="3" r="3" transform="translate(374.661 539.078)"/><circle class="q" cx="3" cy="3" r="3" transform="translate(384.601 537.977)"/><circle class="q" cx="3" cy="3" r="3" transform="translate(394.54 536.875)"/><circle class="q" cx="3" cy="3" r="3" transform="translate(404.479 535.773)"/><circle class="q" cx="3" cy="3" r="3" transform="translate(414.418 534.672)"/><circle class="q" cx="3" cy="3" r="3" transform="translate(424.357 533.57)"/><circle class="q" cx="3" cy="3" r="3" transform="translate(434.296 532.468)"/><circle class="q" cx="3" cy="3" r="3" transform="translate(444.235 531.367)"/><circle class="q" cx="3" cy="3" r="3" transform="translate(454.174 530.265)"/><circle class="q" cx="3" cy="3" r="3" transform="translate(464.114 529.163)"/><circle class="q" cx="3" cy="3" r="3" transform="translate(474.053 528.061)"/><circle class="q" cx="3" cy="3" r="3" transform="translate(483.992 526.96)"/><circle class="q" cx="3" cy="3" r="3" transform="translate(493.931 525.858)"/><circle class="q" cx="3" cy="3" r="3" transform="translate(503.87 524.756)"/><circle class="q" cx="3" cy="3" r="3" transform="translate(513.809 523.655)"/><circle class="q" cx="3" cy="3" r="3" transform="translate(523.748 522.553)"/><circle class="q" cx="3" cy="3" r="3" transform="translate(533.688 521.451)"/><circle class="q" cx="3" cy="3" r="3" transform="translate(543.627 520.35)"/><circle class="q" cx="3" cy="3" r="3" transform="translate(553.566 519.248)"/><circle class="q" cx="3" cy="3" r="3" transform="translate(336.007 553.424)"/><circle class="q" cx="3" cy="3" r="3" transform="translate(355.885 551.221)"/><circle class="q" cx="3" cy="3" r="3" transform="translate(345.951 552.323)"/><circle class="q" cx="3" cy="3" r="3" transform="translate(365.824 550.119)"/><circle class="q" cx="3" cy="3" r="3" transform="translate(375.763 549.018)"/><circle class="q" cx="3" cy="3" r="3" transform="translate(385.702 547.916)"/><circle class="q" cx="3" cy="3" r="3" transform="translate(395.641 546.814)"/><circle class="q" cx="3" cy="3" r="3" transform="translate(405.581 545.713)"/><circle class="q" cx="3" cy="3" r="3" transform="translate(415.52 544.611)"/><circle class="q" cx="3" cy="3" r="3" transform="translate(425.459 543.509)"/><circle class="q" cx="3" cy="3" r="3" transform="translate(435.398 542.407)"/><circle class="q" cx="3" cy="3" r="3" transform="translate(445.337 541.306)"/><circle class="q" cx="3" cy="3" r="3" transform="translate(455.276 540.204)"/><circle class="q" cx="3" cy="3" r="3" transform="translate(465.215 539.102)"/><circle class="q" cx="3" cy="3" r="3" transform="translate(475.154 538.001)"/><circle class="q" cx="3" cy="3" r="3" transform="translate(485.094 536.899)"/><circle class="q" cx="3" cy="3" r="3" transform="translate(495.033 535.797)"/><circle class="q" cx="3" cy="3" r="3" transform="translate(504.972 534.695)"/><circle class="q" cx="3" cy="3" r="3" transform="translate(514.911 533.594)"/><circle class="q" cx="3" cy="3" r="3" transform="translate(524.85 532.492)"/><circle class="q" cx="3" cy="3" r="3" transform="translate(534.789 531.39)"/><circle class="q" cx="3" cy="3" r="3" transform="translate(544.728 530.289)"/><circle class="q" cx="3" cy="3" r="3" transform="translate(554.667 529.187)"/><circle class="q" cx="3" cy="3" r="3" transform="translate(337.108 563.364)"/><circle class="q" cx="3" cy="3" r="3" transform="translate(356.987 561.16)"/><circle class="q" cx="3" cy="3" r="3" transform="translate(347.052 562.262)"/><circle class="q" cx="3" cy="3" r="3" transform="translate(366.926 560.058)"/><circle class="q" cx="3" cy="3" r="3" transform="translate(376.865 558.957)"/><circle class="q" cx="3" cy="3" r="3" transform="translate(386.804 557.855)"/><circle class="q" cx="3" cy="3" r="3" transform="translate(396.743 556.753)"/><circle class="q" cx="3" cy="3" r="3" transform="translate(406.682 555.652)"/><circle class="q" cx="3" cy="3" r="3" transform="translate(416.621 554.55)"/><circle class="q" cx="3" cy="3" r="3" transform="translate(426.561 553.448)"/><circle class="q" cx="3" cy="3" r="3" transform="translate(436.5 552.347)"/><circle class="q" cx="3" cy="3" r="3" transform="translate(446.439 551.245)"/><circle class="q" cx="3" cy="3" r="3" transform="translate(456.378 550.143)"/><circle class="q" cx="3" cy="3" r="3" transform="translate(466.317 549.041)"/><circle class="q" cx="3" cy="3" r="3" transform="translate(476.256 547.94)"/><circle class="q" cx="3" cy="3" r="3" transform="translate(486.195 546.838)"/><circle class="q" cx="3" cy="3" r="3" transform="translate(496.134 545.736)"/><circle class="q" cx="3" cy="3" r="3" transform="translate(506.074 544.635)"/><circle class="q" cx="3" cy="3" r="3" transform="translate(516.013 543.533)"/><circle class="q" cx="3" cy="3" r="3" transform="translate(525.952 542.431)"/><circle class="q" cx="3" cy="3" r="3" transform="translate(535.891 541.33)"/><circle class="q" cx="3" cy="3" r="3" transform="translate(545.83 540.228)"/><circle class="q" cx="3" cy="3" r="3" transform="translate(555.769 539.126)"/><circle class="q" cx="3" cy="3" r="3" transform="translate(338.21 573.303)"/><circle class="q" cx="3" cy="3" r="3" transform="translate(358.088 571.099)"/><circle class="q" cx="3" cy="3" r="3" transform="translate(348.154 572.202)"/><circle class="q" cx="3" cy="3" r="3" transform="translate(368.027 569.998)"/><circle class="q" cx="3" cy="3" r="3" transform="translate(377.967 568.896)"/><circle class="q" cx="3" cy="3" r="3" transform="translate(387.906 567.794)"/><circle class="q" cx="3" cy="3" r="3" transform="translate(397.845 566.692)"/><circle class="q" cx="3" cy="3" r="3" transform="translate(407.784 565.591)"/><circle class="q" cx="3" cy="3" r="3" transform="translate(417.723 564.489)"/><circle class="q" cx="3" cy="3" r="3" transform="translate(427.662 563.387)"/><circle class="q" cx="3" cy="3" r="3" transform="translate(437.601 562.286)"/><circle class="q" cx="3" cy="3" r="3" transform="translate(447.54 561.184)"/><circle class="q" cx="3" cy="3" r="3" transform="translate(457.48 560.082)"/><circle class="q" cx="3" cy="3" r="3" transform="translate(467.419 558.981)"/><circle class="q" cx="3" cy="3" r="3" transform="translate(477.358 557.879)"/><circle class="q" cx="3" cy="3" r="3" transform="translate(487.297 556.777)"/><circle class="q" cx="3" cy="3" r="3" transform="translate(497.236 555.675)"/><circle class="q" cx="3" cy="3" r="3" transform="translate(507.175 554.574)"/><circle class="q" cx="3" cy="3" r="3" transform="translate(517.114 553.472)"/><circle class="q" cx="3" cy="3" r="3" transform="translate(527.053 552.37)"/><circle class="q" cx="3" cy="3" r="3" transform="translate(536.993 551.269)"/><circle class="q" cx="3" cy="3" r="3" transform="translate(546.932 550.167)"/><circle class="q" cx="3" cy="3" r="3" transform="translate(556.871 549.065)"/><circle class="q" cx="3" cy="3" r="3" transform="translate(339.312 583.242)"/><circle class="q" cx="3" cy="3" r="3" transform="translate(359.19 581.038)"/><circle class="q" cx="3" cy="3" r="3" transform="translate(349.256 582.141)"/><circle class="q" cx="3" cy="3" r="3" transform="translate(369.129 579.937)"/><circle class="q" cx="3" cy="3" r="3" transform="translate(379.068 578.835)"/><circle class="q" cx="3" cy="3" r="3" transform="translate(389.007 577.733)"/><circle class="q" cx="3" cy="3" r="3" transform="translate(398.947 576.632)"/><circle class="q" cx="3" cy="3" r="3" transform="translate(408.886 575.53)"/><circle class="q" cx="3" cy="3" r="3" transform="translate(418.825 574.428)"/><circle class="q" cx="3" cy="3" r="3" transform="translate(428.764 573.326)"/><circle class="q" cx="3" cy="3" r="3" transform="translate(438.703 572.225)"/><circle class="q" cx="3" cy="3" r="3" transform="translate(448.642 571.123)"/><circle class="q" cx="3" cy="3" r="3" transform="translate(458.581 570.021)"/><circle class="q" cx="3" cy="3" r="3" transform="translate(468.52 568.92)"/><circle class="q" cx="3" cy="3" r="3" transform="translate(478.46 567.818)"/><circle class="q" cx="3" cy="3" r="3" transform="translate(488.399 566.716)"/><circle class="q" cx="3" cy="3" r="3" transform="translate(498.338 565.615)"/><circle class="q" cx="3" cy="3" r="3" transform="translate(508.277 564.513)"/><circle class="q" cx="3" cy="3" r="3" transform="translate(518.216 563.411)"/><circle class="q" cx="3" cy="3" r="3" transform="translate(528.155 562.31)"/><circle class="q" cx="3" cy="3" r="3" transform="translate(538.094 561.208)"/><circle class="q" cx="3" cy="3" r="3" transform="translate(548.033 560.106)"/><circle class="q" cx="3" cy="3" r="3" transform="translate(557.973 559.004)"/></g><path class="r" d="M306.717,472.562l32.632-54.67c3.49-4.4,12.867-12.957,17.651-15.892,8.294-5.089,17.054-4.946,28,6,15,15-9,55-9,55l-26.946,57.9-4.36-4.622L372,460s24-40,7-52c-15.839-11.18-39.879,20.827-45,29-3.269,5.216-5,7-8,14l-14.515,27.751Z"/><path class="r" d="M293.606,453.732l12.715,3.417L362.586,526.8l-6.742,4.714S292.07,480.586,293.606,453.732Z"/><path class="s" d="M306.8,482.94l14.683-10.354,33.477,48.759-14.5,7.464Z"/><path class="t" d="M358.917,523.543l-3.954-2.2-14.5,7.464,5.013,2.483Z"/><path class="u" d="M325.725,473.724l33.192,49.818-3.954-2.2-33.477-48.759Z"/><path class="v" d="M297.545,464.417,339,417c3.49-4.4,9.216-10.065,14-13,8.294-5.089,21.33-5.088,31,7,16,20-16.509,63.723-16.509,63.723L339.882,512.75l-4.36-4.622,32.492-48.034S395,424,371.575,408.791C358.31,400.179,337.406,426.013,332,434c-1.327,1.96-4.579,5.107-6,7l-23.687,29.606Z"/><path class="w" d="M270.7,606.628s11.245-3.794,16.748,1.093l75.141-80.92s-8.967-4.682-4.033,2.324Z"/><path class="v" d="M293.606,453.732l-69.684,73.3,46.775,79.6,87.856-77.5S300.5,470.354,293.606,453.732Z"/><rect class="b" width="19" height="10" rx="5" transform="translate(344.68 438.451) rotate(-146.709)"/><rect class="b" width="30" height="10" rx="5" transform="translate(354.348 432.836) rotate(-146.709)"/><rect class="b" width="27" height="10" rx="5" transform="translate(359.55 423.093) rotate(-146.709)"/><rect class="b" width="20" height="10" rx="5" transform="translate(363.08 412.251) rotate(-146.709)"/><rect class="b" width="23" height="10" rx="5" transform="matrix(0.827, -0.563, 0.563, 0.827, 356.078, 424.858)"/></g></g></svg>