<svg xmlns="http://www.w3.org/2000/svg" width="232.037" height="150.201" viewBox="0 0 232.037 150.201"><defs><style>.a,.b{fill:#3b3938;}.a{stroke:#3b3938;stroke-miterlimit:10;stroke-width:0.403px;}</style></defs><g transform="translate(-29.194 -211.144)"><g transform="translate(29.194 321.717)"><g transform="translate(104.621)"><path class="a" d="M100.738,280.722c-.3-.459-.6-.914-.894-1.361s-.624-.9-.976-1.361a1.809,1.809,0,0,1-.428-1.2,1.775,1.775,0,0,1,.631-1.037,1.474,1.474,0,0,1,1.22-.386,2.287,2.287,0,0,1,1.342,1.12,21.65,21.65,0,0,1,1.2,1.849q.629,1.076,1.239,2.377H114.2q.732-1.258,1.261-2.317t.894-1.951a1.917,1.917,0,0,1,.813-1.1,2.083,2.083,0,0,1,1.465.04,1.366,1.366,0,0,1,.771.731,1.862,1.862,0,0,1-.2,1.3q-.406.815-.792,1.647t-.833,1.646h9.838a2.039,2.039,0,0,1,1.239.347,1.3,1.3,0,0,1,.469,1.118,1.469,1.469,0,0,1-.426,1.078,1.744,1.744,0,0,1-1.282.426H116.188v3.091h4.351a13.988,13.988,0,0,1,2.073.121,2.386,2.386,0,0,1,1.2.488,1.765,1.765,0,0,1,.549,1.1,12.423,12.423,0,0,1,.122,1.953v3.008h2.765a2.449,2.449,0,0,1,1.3.324,1.274,1.274,0,0,1,.528,1.18,1.328,1.328,0,0,1-.509,1.1,2.046,2.046,0,0,1-1.32.407h-2.765v3.048a12.013,12.013,0,0,1-.122,1.932,1.942,1.942,0,0,1-.549,1.118,2.188,2.188,0,0,1-1.2.53,14,14,0,0,1-2.073.121h-2.724q2.355,1.791,4.8,3.455a50.938,50.938,0,0,0,4.39,2.726,4.568,4.568,0,0,1,1.789,1.423,1.412,1.412,0,0,1-.081,1.382,1.319,1.319,0,0,1-1.057.752,3.12,3.12,0,0,1-1.91-.63,97.178,97.178,0,0,1-9.555-6.709V313q0,1.625-1.382,1.627A1.42,1.42,0,0,1,113.221,313v-9.8h-8.254v9.84a1.423,1.423,0,0,1-1.546,1.625q-1.5,0-1.5-1.625v-7.2a53.353,53.353,0,0,1-4.654,3.557,47.911,47.911,0,0,1-4.411,2.7,2.629,2.629,0,0,1-1.911.466,1.655,1.655,0,0,1-.935-1,1.747,1.747,0,0,1,.1-1.22,2.451,2.451,0,0,1,1.161-.975q2.642-1.384,4.878-2.846a44.22,44.22,0,0,0,4.432-3.334H94.233q-1.829,0-1.829-1.5a1.284,1.284,0,0,1,.486-1.1,2.187,2.187,0,0,1,1.342-.366h7.683v-3.781H91.632q-1.791,0-1.789-1.5t1.789-1.5h10.285v-3.781H94.842a2.216,2.216,0,0,1-1.3-.345,1.327,1.327,0,0,1-.488-1.161,1.17,1.17,0,0,1,.488-1.076,2.432,2.432,0,0,1,1.3-.3h7.074V283.69H91.59a1.713,1.713,0,0,1-1.261-.407,1.426,1.426,0,0,1-.405-1.057,1.487,1.487,0,0,1,.405-1.1,1.728,1.728,0,0,1,1.261-.407Zm4.228,6.06h8.254V283.69h-8.254Zm0,6.667h8.254v-3.781h-8.254Zm0,6.79h8.254v-3.781h-8.254Zm11.221-10.571v3.781h5.286V290.2q0-.528-.812-.528Zm4.473,10.571q.813,0,.813-.733v-3.048h-5.286v3.781Z" transform="translate(-89.843 -275.243)"/><path class="a" d="M118.108,311.023a2.542,2.542,0,0,1-1.282.243q-.468-.083-.792-.854a1.5,1.5,0,0,1,0-1.444,2.362,2.362,0,0,1,1.22-.914c.135-.053.285-.109.447-.162s.311-.109.447-.162V280.571h-.569q-1.628,0-1.627-1.463a1.469,1.469,0,0,1,.366-1.138,1.9,1.9,0,0,1,1.261-.326h10.735a1.739,1.739,0,0,1,1.178.326,1.463,1.463,0,0,1,.366,1.138q0,1.462-1.544,1.463h-.367v32.037a1.625,1.625,0,0,1-.385,1.22,1.512,1.512,0,0,1-1.078.366c-.95,0-1.423-.528-1.423-1.585v-4.594q-1.829.893-3.416,1.606T118.108,311.023ZM121.035,287h4.024v-6.424h-4.024Zm0,9.229h4.024v-6.343h-4.024Zm0,10.407q1.014-.445,2.013-.914t2.011-1V299.11h-4.024Zm18.782,4.228a27.37,27.37,0,0,0,3.476-3.353,31.637,31.637,0,0,0,2.786-3.761q-.326-1.34-.59-2.7T145,298.175q-.223-1.5-.385-3.233t-.286-3.761H130.223q-1.749,0-1.747-1.423a1.412,1.412,0,0,1,.426-1.159,2.1,2.1,0,0,1,1.321-.345h3.09a2.647,2.647,0,0,1-.285-.569q-.406-1.1-.65-1.727t-.609-1.606a1.637,1.637,0,0,1-.122-.956,1.112,1.112,0,0,1,.528-.794,2.4,2.4,0,0,1-1.32-.324,1.12,1.12,0,0,1-.509-1.018,1.375,1.375,0,0,1,.405-1.157,2.553,2.553,0,0,1,1.465-.305H135.1q-.163-.406-.305-.833c-.095-.285-.209-.6-.345-.956a3.066,3.066,0,0,1-.283-1.321c.026-.338.269-.618.731-.833q1.666-.934,2.358,1.139c.135.405.271.84.405,1.3s.285.963.447,1.5h2.969a2.243,2.243,0,0,1,1.261.324,1.271,1.271,0,0,1,.486,1.139,1.248,1.248,0,0,1-1.259,1.342,1.463,1.463,0,0,1,.447,1.749q-.326,1.139-.63,2.072t-.631,1.83h3.457q-.083-2.194-.143-4.777t-.1-5.672a4.208,4.208,0,0,1,.224-1.5,1.148,1.148,0,0,1,1.076-.65,1.377,1.377,0,0,1,1.3.405,2.784,2.784,0,0,1,.366,1.628q-.041,3.048.021,5.649t.141,4.92h5.855a2.114,2.114,0,0,1,1.3.345,1.378,1.378,0,0,1,.447,1.159q0,1.426-1.747,1.423h-5.693q.163,2.562.367,4.677t.528,3.942q.691-1.542,1.261-3.109t1.014-3.274a2.6,2.6,0,0,1,.712-1.3,1.356,1.356,0,0,1,1.282-.2q1.34.367.852,2.2a38.573,38.573,0,0,1-1.768,5.144,42.436,42.436,0,0,1-2.458,4.9q.2.857.426,1.647t.507,1.566a9.086,9.086,0,0,0,1.139,2.722c.055,0,.1-.066.143-.2a6.141,6.141,0,0,0,.141-.712c.055-.338.128-.8.224-1.382s.223-1.335.386-2.256a2.841,2.841,0,0,1,.549-1.525,1.4,1.4,0,0,1,1.037-.264,1.528,1.528,0,0,1,1.2.53,2.674,2.674,0,0,1,.143,1.706,27,27,0,0,1-.611,3.538,9.784,9.784,0,0,1-.852,2.3,3.509,3.509,0,0,1-1.078,1.261,2.234,2.234,0,0,1-1.24.386,2.845,2.845,0,0,1-2.094-1.24,8.7,8.7,0,0,1-1.606-3.314q-.122-.448-.243-.833c-.081-.259-.164-.523-.245-.792a31.969,31.969,0,0,1-5.082,5.772,2.655,2.655,0,0,1-1.4.731,1.323,1.323,0,0,1-1.2-.528,1.5,1.5,0,0,1-.366-1.159A2.111,2.111,0,0,1,139.817,310.859ZM134,309.8a3.153,3.153,0,0,1-2.541-.792,4.084,4.084,0,0,1-.63-2.541V296.1a3.823,3.823,0,0,1,.63-2.46A3.268,3.268,0,0,1,134,292.89h5a3.42,3.42,0,0,1,2.582.752,3.661,3.661,0,0,1,.669,2.46v10.367a3.543,3.543,0,0,1-.752,2.684,3.818,3.818,0,0,1-2.5.649Zm-.285-10.041h5.732v-3.293a.918.918,0,0,0-.183-.569.644.644,0,0,0-.549-.243H134.37c-.435,0-.65.271-.65.813Zm5.732,2.724h-5.732v3.742a.927.927,0,0,0,.183.568.559.559,0,0,0,.467.245h4.351q.732,0,.731-.812Zm-5.082-19.069c.164.354.3.666.407.937s.2.528.285.773.167.5.264.752.209.547.347.873a2.439,2.439,0,0,1,.162.812,1.123,1.123,0,0,1-.245.692h2.2q.448-1.056.752-2.011c.2-.637.412-1.4.63-2.3a3.355,3.355,0,0,1,.305-.813,2.432,2.432,0,0,1,.386-.53h-6.017a1.665,1.665,0,0,1,.243.326C134.168,283.064,134.261,283.228,134.37,283.416Zm15.9-4.39q.856,1.221,1.5,2.258t1.465,2.539a2.709,2.709,0,0,1,.426,1.5,1.341,1.341,0,0,1-.752,1.016q-1.34.732-2.236-1.016-.691-1.3-1.32-2.358t-1.566-2.356a1.74,1.74,0,0,1-.326-1.261,1.235,1.235,0,0,1,.773-1.016A1.48,1.48,0,0,1,150.266,279.026Z" transform="translate(-70.987 -275.01)"/><path class="a" d="M150.26,292.1a3.137,3.137,0,0,1-2.541-.835,4.234,4.234,0,0,1-.671-2.663v-8.7a4.052,4.052,0,0,1,.671-2.622,3.229,3.229,0,0,1,2.541-.794h22.522a3.379,3.379,0,0,1,2.562.794,3.811,3.811,0,0,1,.731,2.622v8.7a3.979,3.979,0,0,1-.731,2.663,3.28,3.28,0,0,1-2.562.835H156.155c-.381.542-.766,1.044-1.159,1.5s-.778.907-1.159,1.34h21.427q3.943,0,3.945,3.659,0,2.318-.041,3.862t-.143,2.582c-.069.69-.141,1.28-.223,1.768s-.178.963-.285,1.423a6.656,6.656,0,0,1-2.115,3.8,6.772,6.772,0,0,1-4.432,1.28,18.074,18.074,0,0,1-2.643-.2c-.921-.135-1.939-.34-3.048-.609a2.56,2.56,0,0,1-1.444-.711,1.582,1.582,0,0,1-.021-1.363,2.613,2.613,0,0,1,.2-.65.7.7,0,0,1,.366-.347,1.455,1.455,0,0,1,.671-.06,8.5,8.5,0,0,1,1.118.2q1.5.326,2.662.507a13.121,13.121,0,0,0,2.015.185,3.592,3.592,0,0,0,2.641-.856,5.3,5.3,0,0,0,1.22-2.8c.081-.49.157-.928.224-1.323a11.551,11.551,0,0,0,.141-1.361c.028-.514.048-1.152.062-1.911s.019-1.747.019-2.969q0-1.136-1.259-1.137h-2.888a34.6,34.6,0,0,1-3.312,4.816,32.391,32.391,0,0,1-3.883,3.945,37.7,37.7,0,0,1-4.6,3.353q-2.479,1.545-5.406,3.05a3.42,3.42,0,0,1-1.627.405,1.409,1.409,0,0,1-1.139-.894,1.47,1.47,0,0,1,.021-1.282,2.5,2.5,0,0,1,1.484-1.239,35.12,35.12,0,0,0,8.7-5.084,27.044,27.044,0,0,0,6.22-7.073h-6.139a32.792,32.792,0,0,1-6.993,6.728,41.76,41.76,0,0,1-9.595,5.1q-2.031.732-2.643-.611a1.3,1.3,0,0,1,.1-1.361,3.669,3.669,0,0,1,1.646-1,41.993,41.993,0,0,0,7.236-3.64,30.441,30.441,0,0,0,6.3-5.223h-7.6a30.2,30.2,0,0,1-5.936,3.943,3.262,3.262,0,0,1-1.565.488c-.366-.028-.685-.338-.957-.935a3.746,3.746,0,0,1-.264-.752.833.833,0,0,1,.062-.55,1.361,1.361,0,0,1,.426-.467,7.74,7.74,0,0,1,.833-.509,30.379,30.379,0,0,0,4.859-2.967,23.916,23.916,0,0,0,4.166-4.064Zm22.726-11.791q0-.774-.609-.773H150.626q-.53,0-.53.773v2.562h22.889Zm0,5.406H150.1v2.562c0,.543.176.813.53.813h21.751c.405,0,.609-.269.609-.812Z" transform="translate(-51.994 -274.341)"/></g><g transform="translate(0 1.628)"><path class="b" d="M40.766,312.552a1.154,1.154,0,0,1-.338-.859V280.961H30.389a1.157,1.157,0,0,1-1.2-1.2v-2.029a1.233,1.233,0,0,1,.338-.911,1.163,1.163,0,0,1,.857-.338H55.351a1.15,1.15,0,0,1,.885.338,1.3,1.3,0,0,1,.311.911v2.029a1.157,1.157,0,0,1-1.2,1.2H45.366v30.731a1.119,1.119,0,0,1-.364.859,1.251,1.251,0,0,1-.883.338h-2.5A1.154,1.154,0,0,1,40.766,312.552Z" transform="translate(-29.194 -275.969)"/><path class="b" d="M51.277,309.884q-3.744-3.744-4-10.14-.052-1.56-.052-4.889,0-3.379.052-4.889.207-6.342,3.978-10.062t10.531-3.717a16.515,16.515,0,0,1,7.747,1.665,13.081,13.081,0,0,1,4.784,3.978,8.472,8.472,0,0,1,1.716,4.29v.1a.887.887,0,0,1-.338.7,1.144,1.144,0,0,1-.754.286H72.025a1.022,1.022,0,0,1-.7-.209,1.941,1.941,0,0,1-.442-.78,8.464,8.464,0,0,0-3.069-4.107,9.883,9.883,0,0,0-6.031-1.665,9.509,9.509,0,0,0-6.864,2.393q-2.5,2.391-2.653,7.383-.054,1.509-.052,4.628,0,3.069.052,4.628.155,5.046,2.653,7.437a9.509,9.509,0,0,0,6.864,2.393,10.1,10.1,0,0,0,7.071-2.419q2.652-2.419,2.653-7.255V297.4H63.548a1.12,1.12,0,0,1-.857-.362,1.252,1.252,0,0,1-.338-.885v-1.561a1.251,1.251,0,0,1,.338-.883,1.121,1.121,0,0,1,.857-.364H75.2a1.165,1.165,0,0,1,1.247,1.247v4.94a15.254,15.254,0,0,1-1.742,7.411,11.92,11.92,0,0,1-5.07,4.94,16.69,16.69,0,0,1-7.851,1.742Q55.021,313.629,51.277,309.884Z" transform="translate(-16.124 -276.187)"/><path class="b" d="M66.343,312.579a1.009,1.009,0,0,1-.312-.73l.105-.571,12.9-33.645a1.618,1.618,0,0,1,1.663-1.145h3.328a1.62,1.62,0,0,1,1.665,1.145l12.9,33.645.1.571a.967.967,0,0,1-.338.73,1.084,1.084,0,0,1-.752.31H95.151a1.275,1.275,0,0,1-.857-.286,1.364,1.364,0,0,1-.442-.6l-2.912-7.488H73.728l-2.86,7.488a1.368,1.368,0,0,1-1.3.883h-2.5A1,1,0,0,1,66.343,312.579ZM75.236,300.2H89.485L82.36,281.534Z" transform="translate(-2.486 -275.969)"/></g></g><g transform="translate(99.441 211.144)"><path class="b" d="M104.888,271.127a16.422,16.422,0,0,1-15.907-27.568,30.343,30.343,0,0,1-3.79-14.7,30.547,30.547,0,1,0,30.55,52.907A30.725,30.725,0,0,1,104.888,271.127Z" transform="translate(-69.916 -198.299)"/><path class="b" d="M127.031,228.86a30.366,30.366,0,0,1-3.788,14.7,16.414,16.414,0,0,1-15.908,27.568,30.726,30.726,0,0,1-10.854,10.64,30.547,30.547,0,1,0,30.55-52.907Z" transform="translate(-50.656 -198.299)"/><path class="b" d="M109.321,225.262a16.457,16.457,0,0,1,15.912,12.367,30.394,30.394,0,0,1,14.639,4.076V241.7a30.55,30.55,0,1,0-61.1,0v.009a30.394,30.394,0,0,1,14.639-4.076A16.458,16.458,0,0,1,109.321,225.262Z" transform="translate(-63.496 -211.144)"/><path class="b" d="M109.265,229.434a9.434,9.434,0,1,0,.64,3.4A9.445,9.445,0,0,0,109.265,229.434Z" transform="translate(-54.628 -202.272)"/><path class="b" d="M91.6,238.71a9.447,9.447,0,1,0,9.451,9.453A9.43,9.43,0,0,0,91.6,238.71Z" transform="translate(-61.048 -191.158)"/><path class="b" d="M116.654,242.22a9.446,9.446,0,1,0,2.108,5.943A9.425,9.425,0,0,0,116.654,242.22Z" transform="translate(-48.208 -191.158)"/></g></g></svg>