<svg xmlns="http://www.w3.org/2000/svg" xmlns:xlink="http://www.w3.org/1999/xlink" width="150" height="150" viewBox="0 0 150 150"><defs><style>.a,.n,.q,.t{fill:none;}.b{clip-path:url(#a);}.c{fill:#414141;}.d{fill:#161616;}.e{fill:#e9e8e8;}.f{fill:#515151;}.g{fill:#dbae4f;}.h{fill:#c3cad5;}.i{fill:#d9d8d8;}.j{fill:#f3d7cb;}.k,.m{fill:#d1d6df;isolation:isolate;}.k{opacity:0.552;}.l{fill:#b8c1d0;}.m{opacity:0.773;}.n{stroke:#a67273;stroke-linejoin:round;}.n,.q,.t{stroke-linecap:round;}.o{fill:#a67273;}.p{fill:#d8a3a5;}.q{stroke:#d8a3a5;stroke-miterlimit:10;}.r{fill:#fff;}.s{fill:#ed7a4e;}.t{stroke:#eb6939;stroke-width:1.5px;}.u{fill:#eb6939;}</style><clipPath id="a"><circle class="a" cx="75" cy="75" r="75"/></clipPath></defs><g class="b"><g transform="translate(37.969 12.383)"><path class="c" d="M1665.018,1257s-13.314,9.545-2.544,47.076h44.981s10.575-33.052-4.868-47.076A70.009,70.009,0,0,1,1665.018,1257Z" transform="translate(-1648.342 -1136.192)"/><g transform="translate(0 18.387)"><path class="d" d="M1625.822,716.127s-2.431,23.871-10,26.12-9.277,5.018-9.917,10.192,4.159,9.973,11.73,9.333,23.78-5.651,23.78-5.651V716.127Z" transform="translate(-1605.847 -716.127)"/><path class="d" d="M1809.627,716.127s2.431,23.871,10,26.12,9.277,5.018,9.917,10.192-4.159,9.973-11.73,9.333-23.78-5.651-23.78-5.651V716.127Z" transform="translate(-1758.4 -716.127)"/></g><path class="e" d="M1638.13,949.516s-9.739,35.107,9.308,40.735l-3.52-27.987Z" transform="translate(-1629.999 -886.934)"/><g transform="translate(8.131 43.732)"><path class="e" d="M1648.787,868.823s.565-18.849,27.33-18.849V929.6a34.851,34.851,0,0,1-15.044-3l.061-27.813Z" transform="translate(-1648.787 -849.974)"/><path class="e" d="M1818.907,868s.969-18.025-25.8-18.025V929.6a39.02,39.02,0,0,0,16.228-3l-.061-27.813Z" transform="translate(-1765.782 -849.974)"/><g transform="translate(4.772 2.898)"><path class="f" d="M1678.236,866.088s1.525-.921,1.893-.8,16.416,33.479,16.416,33.479v36.781l-2.039,4.894a2.542,2.542,0,0,1-2.351,1.566c-3.05-.005-9.557-.307-14.394-2.553a1.814,1.814,0,0,1-1.029-1.926l1.811-11.546a12.579,12.579,0,0,0-.019-4.02l-4.429-26.58a7.892,7.892,0,0,1-.014-2.5Z" transform="translate(-1673.988 -865.277)"/><path class="f" d="M1811.42,866.088s-1.525-.921-1.893-.8-16.416,33.479-16.416,33.479v36.781l2.039,4.894a2.542,2.542,0,0,0,2.351,1.566c3.05-.005,9.557-.307,14.394-2.553a1.814,1.814,0,0,0,1.029-1.926l-1.811-11.546a12.579,12.579,0,0,1,.019-4.02l4.429-26.58a7.888,7.888,0,0,0,.014-2.5Z" transform="translate(-1770.554 -865.277)"/><circle class="g" cx="1.326" cy="1.326" r="1.326" transform="translate(21.232 38.184)"/><circle class="g" cx="1.326" cy="1.326" r="1.326" transform="translate(21.232 49.167)"/><circle class="g" cx="1.326" cy="1.326" r="1.326" transform="translate(21.232 60.15)"/></g><g transform="translate(26.572 8.133)"><circle class="h" cx="0.757" cy="0.757" r="0.757"/><circle class="h" cx="0.757" cy="0.757" r="0.757" transform="translate(0 6.249)"/><circle class="h" cx="0.757" cy="0.757" r="0.757" transform="translate(0 12.498)"/><circle class="h" cx="0.757" cy="0.757" r="0.757" transform="translate(0 18.747)"/></g></g><path class="i" d="M1890.2,872.165s8.457,3.848,9.964,23.166,7.806,32.5,7.806,32.5-9.871,5.215-16.492-10.133l2.895-17.015a19.1,19.1,0,0,0-.282-3.434Z" transform="translate(-1836.356 -824.231)"/><path class="j" d="M0,0H10.358a0,0,0,0,1,0,0V5.807a5.179,5.179,0,0,1-5.179,5.179h0A5.179,5.179,0,0,1,0,5.807V0A0,0,0,0,1,0,0Z" transform="translate(30.387 39.818)"/><path class="j" d="M1798.119,1505.6V1623.9s2.9,4.071,12.593,6.363c9.676,2.291,10.112-2.348,10.112-2.348-7.366-1.364-15.755-6.609-15.755-6.609s10.756-81.956,14.6-115.7Z" transform="translate(-1761.71 -1337.719)"/><path class="j" d="M1678.219,1627.911s.435,4.639,10.112,2.348,12.593-6.363,12.593-6.363V1505.6h-21.568c3.844,33.744,14.619,115.7,14.619,115.7S1685.585,1626.567,1678.219,1627.911Z" transform="translate(-1664.514 -1337.719)"/><path class="c" d="M1798.119,2130.3v13.18c3.219.947,7.84,0,7.84,0v-2.5s23.538,6.1,23.538-.776-8.673-5.908-8.673-5.908-.436,4.639-10.112,2.348C1801.035,2134.374,1798.119,2130.3,1798.119,2130.3Z" transform="translate(-1761.71 -1844.125)"/><path class="c" d="M1632.419,2140.306c0,6.874,23.538.776,23.538.776v2.5s4.62.947,7.84,0V2130.4s-2.9,4.071-12.593,6.362c-9.676,2.292-10.112-2.348-10.112-2.348S1632.419,2133.432,1632.419,2140.306Z" transform="translate(-1627.387 -1844.205)"/><g transform="translate(44.989 40.007)"><path class="h" d="M1843.429,938.92a1.74,1.74,0,0,0,.189.776,1.7,1.7,0,0,0,.4.511,2.149,2.149,0,0,0,1.42.53h57.3a1.926,1.926,0,0,0,2.007-1.818,1.72,1.72,0,0,0-.587-1.288,2.15,2.15,0,0,0-1.42-.53h-57.32a1.956,1.956,0,0,0-.568.076A1.834,1.834,0,0,0,1843.429,938.92Z" transform="translate(-1843.429 -916.878)"/><path class="h" d="M1865.229,860.641h52.188c-3.106-14.259-17.876-17.118-23.708-17.686-1.477-.151-2.386-.151-2.386-.151s-.909,0-2.386.151a37.319,37.319,0,0,0-9.809,2.291,24.75,24.75,0,0,0-8.484,5.359,19.053,19.053,0,0,0-3.143,4.09A20.56,20.56,0,0,0,1865.229,860.641Z" transform="translate(-1861.101 -840.436)"/><path class="h" d="M1990.429,832.689v.151c1.477-.151,2.386-.151,2.386-.151s.909,0,2.386.151v-.151a2.386,2.386,0,0,0-4.772,0Z" transform="translate(-1962.593 -830.303)"/><path class="k" d="M2037.95,864.225s-4.1-14.7-22.765-16.377c.207-.055,16.823,1.208,19.719,16.377C2034.668,864.256,2037.95,864.225,2037.95,864.225Z" transform="translate(-1982.661 -844.524)"/><path class="l" d="M1848.04,937.462c0,.057.074.109.184.154a2.006,2.006,0,0,0,.386.1,8.155,8.155,0,0,0,1.38.1h55.678c1.067,0,1.95-.161,1.95-.36,0-.1-.221-.191-.57-.255a8.2,8.2,0,0,0-1.38-.1h-55.7c-.184,0-.368,0-.552.015C1848.629,937.159,1848.04,937.3,1848.04,937.462Z" transform="translate(-1847.167 -916.879)"/><path class="m" d="M2007.515,834.049a2.2,2.2,0,0,0-1.61-2.032,2.231,2.231,0,0,1,1.174,1.968C2007.052,833.992,2007.515,834.049,2007.515,834.049Z" transform="translate(-1975.138 -831.693)"/></g><g transform="translate(22.423 5.993)"><circle class="j" cx="13.153" cy="13.153" r="13.153"/><path class="j" d="M1737.635,742.792s-7.639-.154-9.974-7.375-3.148-12.017-3.127-15.283h13.1Z" transform="translate(-1724.482 -706.981)"/><path class="j" d="M1793.719,742.792s7.639-.154,9.974-7.375,3.148-12.017,3.127-15.283h-13.1Z" transform="translate(-1780.566 -706.981)"/></g><g transform="translate(29.069 19.815)"><path class="n" d="M1761.915,724.068a1.886,1.886,0,0,0-2.32,0" transform="translate(-1759.55 -723.669)"/><path class="n" d="M1817.915,724.068a1.886,1.886,0,0,0-2.32,0" transform="translate(-1804.946 -723.669)"/><path class="n" d="M1783.494,799.073s-.785.984-3.008.984a4.8,4.8,0,0,1-3.211-.984h0" transform="translate(-1773.882 -784.794)"/><ellipse class="o" cx="1.205" cy="2.035" rx="1.205" ry="2.035" transform="translate(10.604 1.72)"/><ellipse class="o" cx="1.205" cy="2.035" rx="1.205" ry="2.035" transform="translate(0 1.72)"/><path class="n" d="M1792.806,751.426l.939,4.345-1.306.693" transform="translate(-1786.174 -746.17)"/></g><path class="p" d="M1766.319,831.831s5.133,3.775,10.358.01v2.067s-4.33,6.028-10.358,0Z" transform="translate(-1735.932 -791.535)"/><path class="p" d="M1772.081,658.934s5.118,10.95,17.079,11.24l-16.1-13.733Z" transform="translate(-1740.603 -649.357)"/><path class="d" d="M1712.938,639.813s5.272-2.578,8.9-11.206c0,0,.682-2.311,1.583-.756.613,1.058,7.71,11.89,15.667,11.89l2.7.072s2.066-20.783-15.855-20.783S1710.912,639,1710.1,639.813Z" transform="translate(-1690.36 -619.03)"/><path class="j" d="M1710.477,732.131s-3.728.616-4.794-2.53.918-4.879,3.4-3.266A23.413,23.413,0,0,1,1710.477,732.131Z" transform="translate(-1686.539 -705.518)"/><path class="j" d="M1854.913,732.131s3.727.616,4.794-2.53-.918-4.879-3.4-3.266A23.407,23.407,0,0,0,1854.913,732.131Z" transform="translate(-1807.749 -705.518)"/><path class="q" d="M1785.532,816.144a2.946,2.946,0,0,0,1.491.258,3.849,3.849,0,0,0,1.591-.258h0" transform="translate(-1751.506 -778.818)"/><path class="i" d="M1667.073,1050.674a14.75,14.75,0,0,1-3.1-2.4s-.72-1.226.773-.213,2.126,1.381,2.126,1.381Z" transform="translate(-1652.823 -966.496)"/><path class="i" d="M1708.3,864.526l15.457,31.152,15.113-31.328,1.091.523-16.2,33.143-16.2-33.136Z" transform="translate(-1688.298 -817.896)"/><path class="r" d="M1942.819,994.5" transform="translate(-1879.009 -923.402)"/><path class="e" d="M1924.918,994.5v28.169a3.47,3.47,0,0,0,.189,1.174h0c.719,2.292,3.541,4,6.893,4h.246c3.352,0,6.154-1.706,6.893-4a4.117,4.117,0,0,0,.189-1.174V994.5Z" transform="translate(-1864.497 -923.402)"/><path class="j" d="M1942.619,956.3l.038,7.234h7.593v-2.575c13.843.72,14.089-4.658,14.089-4.658Z" transform="translate(-1878.847 -892.436)"/><path class="p" d="M1798.119,1505.6v118.314s1.035,1.1,1.414,1.387V1505.6Z" transform="translate(-1761.71 -1337.719)"/><path class="p" d="M1792.067,1505.6v118.314s-1.035,1.1-1.414,1.387V1505.6Z" transform="translate(-1755.658 -1337.719)"/><path class="d" d="M1798.119,2130.4v13.18a9.9,9.9,0,0,0,2.023.342l-.609-12.135Z" transform="translate(-1761.71 -1844.205)"/><path class="d" d="M1789.458,2130.4v13.18a9.9,9.9,0,0,1-2.023.342l.609-12.135Z" transform="translate(-1753.049 -1844.205)"/><g transform="translate(28.112 46.75)"><g transform="translate(5.14 1.075)"><path class="s" d="M1781.445,873.778v.1a1.487,1.487,0,0,0,.038.291,2.187,2.187,0,0,0,2.151,1.822h.019a2.216,2.216,0,0,0,2.21-2.113v-.1h0a2.192,2.192,0,0,0-2.194-2.19h-.014a2.18,2.18,0,0,0-2.209,2.15C1781.445,873.752,1781.445,873.765,1781.445,873.778Z" transform="translate(-1781.445 -871.588)"/><path class="t" d="M1786.336,874.06a1.777,1.777,0,0,0-2.068,1.248" transform="translate(-1783.733 -873.562)"/><path class="t" d="M1783.555,883.469a1.613,1.613,0,0,0,0,.313,1.381,1.381,0,0,0,.071.29" transform="translate(-1783.149 -881.219)"/></g><g transform="translate(8.611)"><path class="s" d="M1799.776,869.163l6.087,3.183v-6.435Z" transform="translate(-1799.776 -865.911)"/><path class="u" d="M1826.048,865.911v6.435l-1.372-.7v-5.01Z" transform="translate(-1819.962 -865.911)"/></g><path class="s" d="M1760.388,869.163l-6.087,3.183v-6.435Z" transform="translate(-1754.301 -865.911)"/><path class="u" d="M1754.3,865.911v6.435l1.372-.7v-5.01Z" transform="translate(-1754.301 -865.911)"/></g></g></g></svg>