<svg xmlns="http://www.w3.org/2000/svg" xmlns:xlink="http://www.w3.org/1999/xlink" width="150" height="150" viewBox="0 0 150 150"><defs><style>.a,.g,.j,.q,.s{fill:none;}.b{clip-path:url(#a);}.c{fill:#42232e;}.d{fill:#e9e8e8;}.e{fill:#f3d7cb;}.f{fill:#414141;}.g{stroke:#a67273;stroke-linejoin:round;}.g,.j,.q,.s{stroke-linecap:round;}.h{fill:#a67273;}.i{fill:#d8a3a5;}.j{stroke:#d8a3a5;}.j,.q{stroke-miterlimit:10;}.k{fill:#fff;}.l{fill:#161616;}.m{fill:#d9d8d8;}.n{fill:#515151;}.o{fill:#707071;}.p{fill:#dbae4f;}.q{stroke:#363536;stroke-width:3px;}.r{fill:#ed7a4e;}.s{stroke:#eb6939;stroke-width:1.5px;}.t{fill:#eb6939;}</style><clipPath id="a"><circle class="a" cx="75" cy="75" r="75"/></clipPath></defs><g transform="translate(0 0)"><g class="b"><g transform="translate(34.433 10.487)"><path class="c" d="M2499.111,762.777s4.1,13.613-7.72,19.9-7.625,17.7,3.323,13.539c0,0,2.013,4.452,9.075,1.535s6.335-4.939,6.335-4.939l.114-3.694V762.137Z" transform="translate(-2476.315 -746.932)"/><path class="c" d="M2687.819,762.777s-4.1,13.613,7.72,19.9,7.625,17.7-3.323,13.539c0,0-2.013,4.452-9.075,1.535s-6.335-4.939-6.335-4.939l-.114-3.694V762.137Z" transform="translate(-2632.286 -746.932)"/><path class="d" d="M2503.8,941.642s.565-18.85,27.33-18.85v79.628s-10.574.117-18.784-2.553l3.8-28.261Z" transform="translate(-2492.131 -877.165)"/><path class="d" d="M2673.917,940.817s.969-18.025-25.8-18.025v79.628a72.46,72.46,0,0,0,18.785-2.553l-2.617-28.261Z" transform="translate(-2609.125 -877.165)"/><path class="e" d="M0,0H10.358a0,0,0,0,1,0,0V5.807a5.179,5.179,0,0,1-5.179,5.179h0A5.179,5.179,0,0,1,0,5.807V0A0,0,0,0,1,0,0Z" transform="translate(33.923 41.713)"/><path class="e" d="M2648.146,1578.42v118.295s2.9,4.071,12.593,6.363c9.677,2.291,10.112-2.348,10.112-2.348-7.366-1.363-15.755-6.609-15.755-6.609s10.756-81.956,14.6-115.7Z" transform="translate(-2609.145 -1408.641)"/><path class="e" d="M2528.246,1700.729s.436,4.639,10.112,2.348,12.593-6.363,12.593-6.363V1578.42h-21.568c3.844,33.744,14.619,115.7,14.619,115.7S2535.612,1699.385,2528.246,1700.729Z" transform="translate(-2511.95 -1408.641)"/><path class="f" d="M2647.771,2203.122v13.18c3.219.947,7.84,0,7.84,0v-2.5s23.538,6.1,23.538-.776-8.673-5.908-8.673-5.908-.436,4.639-10.112,2.348C2650.687,2207.193,2647.771,2203.122,2647.771,2203.122Z" transform="translate(-2608.841 -1915.048)"/><path class="f" d="M2482.446,2213.125c0,6.874,23.538.776,23.538.776v2.5s4.62.947,7.84,0v-13.179s-2.9,4.071-12.593,6.362c-9.676,2.291-10.112-2.348-10.112-2.348S2482.446,2206.251,2482.446,2213.125Z" transform="translate(-2474.823 -1915.128)"/><g transform="translate(25.959 7.888)"><circle class="e" cx="13.153" cy="13.153" r="13.153"/><path class="e" d="M2592.646,815.61s-7.639-.154-9.973-7.375-3.148-12.017-3.127-15.283h13.1Z" transform="translate(-2579.493 -779.799)"/><path class="e" d="M2648.73,815.61s7.639-.154,9.974-7.375,3.148-12.017,3.127-15.283h-13.1Z" transform="translate(-2635.577 -779.799)"/></g><g transform="translate(32.604 21.71)"><path class="g" d="M2616.925,796.886a1.886,1.886,0,0,0-2.32,0" transform="translate(-2614.56 -796.487)"/><path class="g" d="M2672.925,796.886a1.886,1.886,0,0,0-2.32,0" transform="translate(-2659.956 -796.487)"/><path class="g" d="M2638.5,872.891s-.785.984-3.008.984a4.793,4.793,0,0,1-3.21-.984h0" transform="translate(-2628.893 -858.423)"/><ellipse class="h" cx="1.205" cy="2.035" rx="1.205" ry="2.035" transform="translate(10.604 1.72)"/><ellipse class="h" cx="1.205" cy="2.035" rx="1.205" ry="2.035" transform="translate(0 1.72)"/><path class="g" d="M2647.816,824.244l.939,4.345-1.306.693" transform="translate(-2641.185 -818.988)"/></g><path class="i" d="M2621.33,904.649s5.133,3.775,10.358.01v2.067s-4.331,6.028-10.358,0Z" transform="translate(-2587.407 -862.457)"/><path class="e" d="M2565.488,804.95s-3.728.615-4.794-2.53.918-4.879,3.4-3.266A23.417,23.417,0,0,1,2565.488,804.95Z" transform="translate(-2538.015 -776.441)"/><path class="e" d="M2709.923,804.95s3.728.615,4.794-2.53-.918-4.879-3.4-3.266A23.409,23.409,0,0,0,2709.923,804.95Z" transform="translate(-2659.224 -776.441)"/><path class="j" d="M2640.543,888.963a2.947,2.947,0,0,0,1.491.258,3.852,3.852,0,0,0,1.591-.258h0" transform="translate(-2602.982 -849.742)"/><path class="k" d="M2797.83,1067.321" transform="translate(-2730.485 -994.325)"/><path class="i" d="M2648.146,1578.42v118.314s1.035,1.1,1.414,1.387v-119.7Z" transform="translate(-2609.145 -1408.641)"/><path class="i" d="M2642.094,1578.42v118.314s-1.035,1.1-1.414,1.387v-119.7Z" transform="translate(-2603.093 -1408.641)"/><path class="l" d="M2648.146,2203.221V2216.4a9.913,9.913,0,0,0,2.023.342l-.609-12.135Z" transform="translate(-2609.145 -1915.128)"/><path class="l" d="M2639.484,2203.221V2216.4a9.913,9.913,0,0,1-2.023.342l.61-12.135Z" transform="translate(-2600.483 -1915.128)"/><path class="i" d="M2562.681,744.247s6.032,4.278,11.683-10.757c0,0,1.219-4.743,4.369-3.784l-6.308-3.36Z" transform="translate(-2539.864 -717.917)"/><path class="m" d="M2548.922,1271.374l-.639,3.377s15.658,4.573,37.819-.2l-1.376-12.635-34.068-.979Z" transform="translate(-2528.193 -1151.276)"/><path class="c" d="M2569.472,684.208c-23.466-9.983-21.821,14.644-21.644,17.42s-3.411,4.02-3.411,4.02c2.346,2.317,9.49,5.147,12.975-5.09s6.536-6.931,6.536-6.931,5.536,3.422,8.172,3.791h0a39.512,39.512,0,0,0,4.088,11.388l2.956-4.829C2586.822,682.969,2569.472,684.208,2569.472,684.208Z" transform="translate(-2525.059 -681.839)"/><g transform="translate(15.087 45.627)"><path class="n" d="M2537.8,922.792s-5.47.951-5.973,2.621c-.445,1.48-5.281,15.567-6.379,18.762-.108.314-.22.625-.334.937-.579,1.585-3.092,9.464-.68,21.093,0,0,3.72,11.083,2.12,15.162-1.043,2.659-3.173,8.46-4.53,12.178a2.663,2.663,0,0,0,2.358,3.571l16.847.914,4.6-8.268,0-44.233S2540.886,926.356,2537.8,922.792Z" transform="translate(-2521.86 -922.792)"/><g transform="translate(24.073)"><path class="n" d="M2657.023,922.792s5.47.951,5.973,2.621c.445,1.48,5.281,15.567,6.379,18.762.108.314.22.625.334.937.578,1.585,3.092,9.464.68,21.093,0,0-3.72,11.083-2.12,15.162,1.042,2.659,3.173,8.46,4.529,12.178a2.662,2.662,0,0,1-2.358,3.571l-16.847.914-4.6-8.268,0-44.233S2653.935,926.356,2657.023,922.792Z" transform="translate(-2648.985 -922.792)"/></g><g transform="translate(2.521 1.579)"><path class="o" d="M2676.335,935.391a23.349,23.349,0,0,1,1.843-4.261s4.855,10.777,7.594,17.306a32.85,32.85,0,0,1,2.544,18.734s-4.119,15.9-1.507,23.315a89.405,89.405,0,0,0,5.8,13.39l-4.294.233s-1.667-4.14-5.089-12.682c-2.833-7.074-1.479-14.124.168-20.757a30.841,30.841,0,0,0,.746-10.572,36.312,36.312,0,0,0-1.6-7.883C2680.412,946.012,2676.335,935.391,2676.335,935.391Z" transform="translate(-2649.604 -931.13)"/><path class="o" d="M2551.448,935.391a23.361,23.361,0,0,0-1.844-4.261s-4.855,10.777-7.594,17.306a32.847,32.847,0,0,0-2.544,18.734s4.119,15.9,1.507,23.315a89.423,89.423,0,0,1-5.8,13.39l4.294.233s1.667-4.14,5.089-12.682c2.834-7.074,1.479-14.124-.168-20.757a30.841,30.841,0,0,1-.746-10.572,36.312,36.312,0,0,1,1.6-7.883C2547.371,946.012,2551.448,935.391,2551.448,935.391Z" transform="translate(-2535.172 -931.13)"/><path class="o" d="M2606.945,1022.951l0,44.233-4.708,8.268-5.05-.274s5.752-12.438,5.05-20.435-4.8-16.983.768-30.778l2.546-5.754Z" transform="translate(-2585.446 -1001.721)"/><path class="o" d="M2648.72,1022.951l0,44.233,4.707,8.268,5.051-.274s-5.752-12.438-5.051-20.435,4.8-16.983-.768-30.778l-2.546-5.754Z" transform="translate(-2627.216 -1001.721)"/></g><g transform="translate(22.747 26.243)"><circle class="p" cx="1.326" cy="1.326" r="1.326"/><circle class="p" cx="1.326" cy="1.326" r="1.326" transform="translate(0 10.983)"/><circle class="p" cx="1.326" cy="1.326" r="1.326" transform="translate(0 21.966)"/><circle class="p" cx="1.326" cy="1.326" r="1.326" transform="translate(0 32.949)"/></g></g><g transform="translate(0 47.872)"><path class="d" d="M2467.373,934.644s-11.78,4.764-14.226,13.45-10.959,39.262-10.959,39.262h14.02l3.191-13.7a36.982,36.982,0,0,1,1.117-18.94C2463.98,944.164,2467.373,934.644,2467.373,934.644Z" transform="translate(-2442.188 -934.644)"/><circle class="d" cx="7.623" cy="7.623" r="7.623" transform="translate(0 45.965)"/><path class="d" d="M2482.443,1201.938l24.25-1.611.686-10.3s-17.843.13-19.605-1.159Z" transform="translate(-2474.82 -1140.728)"/><path class="i" d="M2611.521,1193.149l-.552,8.286s12.424,4.2,15.652-.549c4.088-6.008-3.021-6.115-4.3-6.221s1-4.264-3.092-2.239C2617.106,1193.474,2611.521,1193.149,2611.521,1193.149Z" transform="translate(-2579.008 -1143.161)"/></g><g transform="translate(29.287 47.872)"><path class="d" d="M2721.9,934.644s11.779,4.764,14.226,13.45,10.959,39.262,10.959,39.262h-14.02l-3.191-13.7a36.982,36.982,0,0,0-1.117-18.94C2725.3,944.164,2721.9,934.644,2721.9,934.644Z" transform="translate(-2698.222 -934.644)"/><circle class="d" cx="7.623" cy="7.623" r="7.623" transform="translate(33.621 45.965)"/><path class="d" d="M2707.9,1201.938l-24.25-1.611-.686-10.3s17.843.13,19.6-1.159Z" transform="translate(-2666.659 -1140.728)"/><path class="e" d="M2613.2,1193.149l.552,8.286s-12.424,4.2-15.652-.549c-4.088-6.008,3.021-6.115,4.3-6.221s-1-4.264,3.092-2.239C2607.615,1193.474,2613.2,1193.149,2613.2,1193.149Z" transform="translate(-2596.847 -1143.161)"/></g><path class="f" d="M2525.954,1489.284h7.384v-156.92a61,61,0,0,1-18.789-2.547s-9.964,8.858-7.693,25.973S2525.954,1489.284,2525.954,1489.284Z" transform="translate(-2494.337 -1207.115)"/><path class="f" d="M2655.53,1487.995h-7.384v-156.92a67.452,67.452,0,0,0,18.814-2.848s9.939,9.159,7.668,26.274S2655.53,1487.995,2655.53,1487.995Z" transform="translate(-2609.145 -1205.825)"/><line class="q" y1="122.155" transform="translate(39.001 160.014)"/><path class="m" d="M2608.281,925.106l1.109-.165s5.962,15.663,6.6,19.787c0,0,4.8-18.309,6.663-19.747l.936.143s-3.925,6.492-7.647,22.219C2615.941,947.342,2608.609,926.314,2608.281,925.106Z" transform="translate(-2576.829 -878.907)"/><g transform="translate(31.714 53.621)"><g transform="translate(5.14 1.075)"><path class="r" d="M2636.81,972.875v.1a1.477,1.477,0,0,0,.038.291,2.188,2.188,0,0,0,2.152,1.822h.019a2.216,2.216,0,0,0,2.209-2.113v-.1h0a2.192,2.192,0,0,0-2.194-2.19h-.014a2.18,2.18,0,0,0-2.209,2.15Z" transform="translate(-2636.81 -970.685)"/><path class="s" d="M2641.7,973.157a1.776,1.776,0,0,0-2.068,1.248" transform="translate(-2639.098 -972.658)"/><path class="s" d="M2638.92,982.566a1.592,1.592,0,0,0,0,.313,1.372,1.372,0,0,0,.071.29" transform="translate(-2638.514 -980.316)"/></g><g transform="translate(8.611)"><path class="r" d="M2655.141,968.26l6.087,3.183v-6.435Z" transform="translate(-2655.141 -965.008)"/><path class="t" d="M2681.414,965.008v6.435l-1.372-.7v-5.01Z" transform="translate(-2675.327 -965.008)"/></g><path class="r" d="M2615.753,968.26l-6.087,3.183v-6.435Z" transform="translate(-2609.666 -965.008)"/><path class="t" d="M2609.666,965.008v6.435l1.372-.7v-5.01Z" transform="translate(-2609.666 -965.008)"/></g></g></g></g></svg>