<svg xmlns="http://www.w3.org/2000/svg" xmlns:xlink="http://www.w3.org/1999/xlink" width="150" height="150" viewBox="0 0 150 150"><defs><style>.a,.f,.i,.s,.u,.v,.z{fill:none;}.b{clip-path:url(#a);}.c{fill:#f3d7cb;}.d{fill:#e9e8e8;}.e{fill:#414141;}.f{stroke:#a67273;stroke-linejoin:round;}.f,.i,.s,.u,.v,.z{stroke-linecap:round;}.g{fill:#a67273;}.h{fill:#d8a3a5;}.i{stroke:#d8a3a5;}.i,.q{stroke-miterlimit:10;}.j{fill:#d9d8d8;}.k{fill:#161616;}.l{fill:#305a44;opacity:0.865;}.l,.u,.v{isolation:isolate;}.m,.q{fill:#42232e;}.n{fill:#2c4f3c;}.o{fill:#fff;}.p{fill:#771019;}.q{stroke:#42232e;stroke-width:1.016px;}.r{fill:#a33538;}.s{stroke:#365b48;}.t{fill:#ecebeb;}.u{stroke:#fff;stroke-width:3px;opacity:0.4;}.v{stroke:#d3d3d3;stroke-width:2px;opacity:0.253;}.w{fill:#c3cad5;}.x{fill:#dbae4f;}.y{fill:#ed7a4e;}.z{stroke:#eb6939;stroke-width:1.5px;}.aa{fill:#eb6939;}.ab{fill:#261611;}</style><clipPath id="a"><circle class="a" cx="75" cy="75" r="75"/></clipPath></defs><g class="b"><g transform="translate(7.325 9.072)"><rect class="c" width="13.12" height="5.517" transform="translate(66.714 283.585)"/><rect class="c" width="13.12" height="5.517" transform="translate(52.461 283.585)"/><path class="d" d="M3979.626,2339.179s32.483,30.359,22.032,56.165c-1.493,4.55-10.262,8.211-22.032,7.358Z" transform="translate(-3892.184 -2284.587)"/><path class="e" d="M3723.361,2771.514l11.537,147.125h15.689V2771.514Z" transform="translate(-3684.446 -2635.054)"/><path class="e" d="M3894.79,2771.514l-11.537,147.125h-15.689V2771.514Z" transform="translate(-3801.342 -2635.054)"/><path class="d" d="M29,0h0a29,29,0,0,1,29,29V86.662a0,0,0,0,1,0,0H0a0,0,0,0,1,0,0V29A29,29,0,0,1,29,0Z" transform="translate(37.177 49.797)"/><path class="c" d="M0,0H10.358a0,0,0,0,1,0,0V5.807a5.179,5.179,0,0,1-5.179,5.179h0A5.179,5.179,0,0,1,0,5.807V0A0,0,0,0,1,0,0Z" transform="translate(60.831 43.128)"/><g transform="translate(52.867 9.303)"><circle class="c" cx="13.153" cy="13.153" r="13.153"/><path class="c" d="M3810.416,2192.132s-7.639-.154-9.974-7.375-3.148-12.017-3.127-15.283h13.1Z" transform="translate(-3797.263 -2156.322)"/><path class="c" d="M3866.5,2192.132s7.639-.154,9.973-7.375,3.147-12.017,3.127-15.283h-13.1Z" transform="translate(-3853.347 -2156.322)"/></g><g transform="translate(59.513 23.125)"><path class="f" d="M3834.695,2173.408a1.886,1.886,0,0,0-2.32,0" transform="translate(-3832.33 -2173.009)"/><path class="f" d="M3890.695,2173.408a1.886,1.886,0,0,0-2.32,0" transform="translate(-3877.726 -2173.009)"/><path class="f" d="M3856.274,2249.412s-.785.984-3.008.984a4.793,4.793,0,0,1-3.21-.984h0" transform="translate(-3846.663 -2234.944)"/><ellipse class="g" cx="1.205" cy="2.035" rx="1.205" ry="2.035" transform="translate(10.604 1.72)"/><ellipse class="g" cx="1.205" cy="2.035" rx="1.205" ry="2.035" transform="translate(0 1.72)"/><path class="f" d="M3865.586,2200.766l.939,4.345-1.306.693" transform="translate(-3858.955 -2195.51)"/></g><path class="h" d="M3814.376,2107.734s-7.251,7.144-14.342,5.812a7.715,7.715,0,0,1-2.094,4.3l-.625-10.112,16.155-6.345,4.638,1.439Z" transform="translate(-3744.396 -2091.826)"/><path class="h" d="M3839.1,2281.171s5.132,3.775,10.358.01v2.067s-4.331,6.027-10.358,0Z" transform="translate(-3778.269 -2237.564)"/><path class="c" d="M3783.258,2181.471s-3.728.615-4.794-2.53.918-4.879,3.4-3.266A23.42,23.42,0,0,1,3783.258,2181.471Z" transform="translate(-3728.876 -2151.548)"/><path class="c" d="M3927.693,2181.471s3.728.615,4.794-2.53-.918-4.879-3.4-3.266A23.42,23.42,0,0,0,3927.693,2181.471Z" transform="translate(-3850.085 -2151.548)"/><path class="i" d="M3858.313,2265.484a2.946,2.946,0,0,0,1.491.259,3.848,3.848,0,0,0,1.591-.259h0" transform="translate(-3793.844 -2224.847)"/><path class="j" d="M3714.183,2477.217a7.72,7.72,0,0,0,1.6.166h.284a7.909,7.909,0,0,0,7.215-4.8c.019-.02.019-.039.038-.078a8.379,8.379,0,0,0,.681-3.308v-37.916h-9.814Z" transform="translate(-3677.006 -2359.252)"/><path class="k" d="M3786.366,2056.547c.187-9.625-12.059-4.949-21.158-.754s-12.156,11.8-3.981,15.284a10.915,10.915,0,0,0,2.752.764h0a8.336,8.336,0,0,0,.3,3.175c.23.6.617,1.857.617,1.857.847-.8,1.553-4.939,1.553-4.939h0c6.409-.387,12.088-5.335,12.088-5.335.4-.323,2.21-1.417,3.506-2.188,0,0,1.8,5.43,6.049,8.181h0a19.687,19.687,0,0,0,1.354,5.736c.18-.847,1.008-3.312,1.008-3.312s3.615-2.944,4.183-10.906S3786.366,2056.547,3786.366,2056.547Z" transform="translate(-3711.291 -2050.888)"/><path class="d" d="M3687.686,2431.285v36.679a7.884,7.884,0,0,1-.682,3.2c-.019.038-.019.057-.038.076a7.919,7.919,0,0,1-7.215,4.639h-.284a7.932,7.932,0,0,1-7.934-7.93v-36.665Z" transform="translate(-3642.432 -2359.252)"/><path class="d" d="M3706.415,2324.057a29.785,29.785,0,0,0-17.009,20.914h9.81Z" transform="translate(-3656.921 -2272.329)"/><path class="c" d="M3651.784,2392.685l-.038,7.309h-6.42v-2.9a.453.453,0,0,0-.451-.455h-.022c-6.722.284-9.506-1.193-10.661-2.424a.915.915,0,0,1,.682-1.534Z" transform="translate(-3611.968 -2327.961)"/><g transform="translate(0 17.528)"><path class="l" d="M3663.584,2175.822v16.361h6.76v4.052h-10.188V2173.3a5.1,5.1,0,0,1,3.181-4.715v-13.274h0a.489.489,0,0,1-.492-.485v-.007a.474.474,0,0,1,.473-.474h3.864a.481.481,0,0,1,.473.473.5.5,0,0,1-.473.492v13.274a5.1,5.1,0,0,1,3.181,4.715v2.519h-6.779Z" transform="translate(-3633.211 -2152.284)"/><path class="m" d="M3680.8,2143.865v1.647h-3.844v-1.647a.42.42,0,0,1,.417-.417h3.01a.4.4,0,0,1,.417.378A.343.343,0,0,1,3680.8,2143.865Z" transform="translate(-3646.829 -2143.448)"/><path class="n" d="M3662.237,2309.911v-14.989a4.448,4.448,0,0,1,3.149.375c1.319.856,6.365,0,6.365,0v14.614Z" transform="translate(-3634.897 -2266.13)"/><path class="o" d="M3593.724,2334.742a.517.517,0,0,1-.511.511h-7.044a.509.509,0,0,1-.511-.507v0a.517.517,0,0,1,.511-.511h2.992v-8.181h1.06v8.181h2.992a.509.509,0,0,1,.511.507Z" transform="translate(-3572.818 -2291.472)"/><path class="o" d="M3591.2,2294.75a8.062,8.062,0,0,1-.739,3.655h-8.067a6.552,6.552,0,0,1-.663-2.31,10.1,10.1,0,0,1-.076-1.344h9.544Z" transform="translate(-3569.573 -2266.099)"/><path class="p" d="M3593.443,2314.05a4.426,4.426,0,0,1-3.806,2.443h-.455a4.426,4.426,0,0,1-3.446-1.837,6.519,6.519,0,0,1-.379-.606Z" transform="translate(-3572.575 -2281.744)"/><path class="q" d="M3568.531,2376.461a1.661,1.661,0,0,1-.493,1.174l-.114.114h0c-.038.038-.076.057-.114.095l-.019.019c-.019.019-.057.038-.076.057a.14.14,0,0,1-.076.038c-.057.019-.114.057-.171.076-.038.019-.057.019-.094.038a.172.172,0,0,1-.095.019.069.069,0,0,0-.057.019c-.019,0-.038.019-.076.019h-.019c-.038,0-.076.019-.114.019H3519.5a1.649,1.649,0,0,1-1.647-1.647,1.9,1.9,0,0,1,.436-1.174,1.129,1.129,0,0,1,.8-.473h47.644a.968.968,0,0,1,.246.038.78.78,0,0,1,.094.019l.227.057c.038.019.057.019.095.038a1.769,1.769,0,0,1,.663.4l.057.057a.829.829,0,0,1,.114.133c.019.038.038.057.057.095h0a.415.415,0,0,0,.057.095h0l.057.114a1.26,1.26,0,0,1,.057.152A.867.867,0,0,1,3568.531,2376.461Z" transform="translate(-3517.857 -2331.032)"/><circle class="r" cx="0.379" cy="0.379" r="0.379" transform="translate(14.581 32.682)"/><circle class="r" cx="0.189" cy="0.189" r="0.189" transform="translate(16.664 33.818)"/><circle class="r" cx="0.189" cy="0.189" r="0.189" transform="translate(18.558 32.871)"/><path class="s" d="M3677.048,2159.491h2.661" transform="translate(-3646.903 -2156.453)"/><path class="s" d="M3693.761,2159.491h.59" transform="translate(-3660.451 -2156.453)"/><rect class="o" width="6.779" height="16.361" transform="translate(30.374 23.538)"/><rect class="t" width="6.06" height="7.385" transform="translate(31.056 25.107)"/><rect class="t" width="6.06" height="0.379" transform="translate(31.056 33.439)"/><rect class="t" width="4.355" height="0.379" transform="translate(31.056 34.954)"/><rect class="t" width="6.06" height="0.379" transform="translate(31.056 36.28)"/><rect class="t" width="6.06" height="0.379" transform="translate(31.056 37.794)"/><path class="u" d="M3665.665,2232.758s-2.659.832-2.708,4.513" transform="translate(-3635.48 -2215.846)"/><path class="u" d="M3662.957,2261.951v.928" transform="translate(-3635.48 -2239.511)"/><path class="v" d="M3583.926,2298.143s.027,2.661,1.614,4.006" transform="translate(-3571.415 -2268.85)"/></g><path class="e" d="M3866.375,2356.793s9.2-5.309,10.315-12.347-4.3-3.347,0-9.336a173.024,173.024,0,0,1,12.378-14.422,15.315,15.315,0,0,0-10.536-5.687Z" transform="translate(-3800.379 -2264.988)"/><path class="e" d="M3768.873,2356.793s-9.2-5.309-10.315-12.347,4.3-3.347,0-9.336a172.958,172.958,0,0,0-12.378-14.422,15.316,15.316,0,0,1,10.536-5.687Z" transform="translate(-3702.943 -2264.988)"/><path class="w" d="M3865.522,2337.036h.284l-.011,37.163h-.263C3865.531,2372.39,3865.522,2337.036,3865.522,2337.036Z" transform="translate(-3799.687 -2282.85)"/><g transform="translate(66.21 45.799)"><path class="d" d="M3876.238,2296.779l-3.553-4.034s.266,4.532-5.179,7.061v3.993S3875.453,2300.156,3876.238,2296.779Z" transform="translate(-3867.506 -2292.745)"/><path class="j" d="M3867.506,2321.07s6.56-2.346,8.732-7.02c0,0,.684.034.977.064C3877.215,2314.114,3876.967,2318.777,3867.506,2321.07Z" transform="translate(-3867.506 -2310.016)"/></g><g transform="translate(56.126 45.799)"><path class="d" d="M3819.409,2296.779l3.553-4.034s-.266,4.532,5.179,7.061v3.993S3820.194,2300.156,3819.409,2296.779Z" transform="translate(-3818.432 -2292.745)"/><path class="j" d="M3823.959,2321.07s-6.56-2.346-8.732-7.02c0,0-.684.034-.977.064C3814.25,2314.114,3814.5,2318.777,3823.959,2321.07Z" transform="translate(-3814.25 -2310.016)"/></g><g transform="translate(65.171 59.252)"><circle class="w" cx="0.757" cy="0.757" r="0.757"/><circle class="w" cx="0.757" cy="0.757" r="0.757" transform="translate(0 6.249)"/><circle class="w" cx="0.757" cy="0.757" r="0.757" transform="translate(0 12.498)"/><circle class="w" cx="0.757" cy="0.757" r="0.757" transform="translate(0 18.747)"/></g><g transform="translate(64.603 95.828)"><circle class="x" cx="1.326" cy="1.326" r="1.326"/><circle class="x" cx="1.326" cy="1.326" r="1.326" transform="translate(0 10.983)"/><circle class="x" cx="1.326" cy="1.326" r="1.326" transform="translate(0 21.966)"/><circle class="x" cx="1.326" cy="1.326" r="1.326" transform="translate(0 32.949)"/></g><g transform="translate(58.58 52.996)"><g transform="translate(5.14 1.075)"><path class="y" d="M3854.353,2338.621v.1a1.513,1.513,0,0,0,.038.291,2.188,2.188,0,0,0,2.152,1.822h.019a2.216,2.216,0,0,0,2.209-2.113v-.1h0a2.192,2.192,0,0,0-2.194-2.19h-.014a2.18,2.18,0,0,0-2.209,2.15C3854.353,2338.594,3854.353,2338.607,3854.353,2338.621Z" transform="translate(-3854.353 -2336.43)"/><path class="z" d="M3859.244,2338.9a1.777,1.777,0,0,0-2.068,1.249" transform="translate(-3856.641 -2338.404)"/><path class="z" d="M3856.463,2348.311a1.591,1.591,0,0,0,0,.313,1.371,1.371,0,0,0,.072.29" transform="translate(-3856.057 -2346.061)"/></g><g transform="translate(8.611)"><path class="y" d="M3872.684,2334.005l6.087,3.183v-6.436Z" transform="translate(-3872.684 -2330.753)"/><path class="aa" d="M3898.957,2330.753v6.436l-1.372-.7v-5.01Z" transform="translate(-3892.87 -2330.753)"/></g><path class="y" d="M3833.3,2334.005l-6.087,3.183v-6.436Z" transform="translate(-3827.209 -2330.753)"/><path class="aa" d="M3827.209,2330.753v6.436l1.371-.7v-5.01Z" transform="translate(-3827.209 -2330.753)"/></g><path class="j" d="M4020.52,2453.678l3.513,41.194a21.569,21.569,0,0,1-3.513.77Z" transform="translate(-3925.334 -2377.405)"/><path class="ab" d="M3697.279,3577.595h15.4v15.2h-34.909s-4.159-8.051,11.943-7.6c3.093,0,6.292-.826,6.825-3.385S3697.279,3577.595,3697.279,3577.595Z" transform="translate(-3647.094 -3288.493)"/><path class="ab" d="M3885.563,3577.595h-15.4v15.2h34.909s4.159-8.051-11.943-7.6c-3.092,0-6.291-.826-6.825-3.385S3885.563,3577.595,3885.563,3577.595Z" transform="translate(-3803.454 -3288.493)"/><path class="h" d="M3637.173,2395.85s8.657.447,14.815-1.961l.006-1.2h-16.91a.965.965,0,0,0-.682,1.534C3635.087,2395.5,3637.173,2395.85,3637.173,2395.85Z" transform="translate(-3612.177 -2327.961)"/></g></g></svg>