<svg xmlns="http://www.w3.org/2000/svg" width="52.335" height="50" viewBox="0 0 52.335 50"><defs><style>.a{fill:#1d1d1d;}</style></defs><path class="a" d="M432.933,429.786a9.378,9.378,0,0,1-9.084-15.741,17.342,17.342,0,0,1-2.163-8.393,17.442,17.442,0,1,0,17.445,30.209A17.539,17.539,0,0,1,432.933,429.786Z" transform="translate(-412.963 -388.201)"/><path class="a" d="M460.089,405.652a17.332,17.332,0,0,1-2.163,8.393,9.373,9.373,0,0,1-9.083,15.741,17.535,17.535,0,0,1-6.2,6.075,17.442,17.442,0,1,0,17.445-30.209Z" transform="translate(-416.477 -388.201)"/><path class="a" d="M440.3,393.919a9.4,9.4,0,0,1,9.086,7.063,17.348,17.348,0,0,1,8.359,2.327V403.3a17.445,17.445,0,1,0-34.889,0v.005a17.354,17.354,0,0,1,8.359-2.327A9.4,9.4,0,0,1,440.3,393.919Z" transform="translate(-414.134 -385.858)"/><path class="a" d="M446.952,402.986a5.389,5.389,0,1,0,.365,1.941A5.395,5.395,0,0,0,446.952,402.986Z" transform="translate(-415.752 -387.477)"/><path class="a" d="M432.026,416.657a5.394,5.394,0,1,0,5.4,5.4A5.385,5.385,0,0,0,432.026,416.657Z" transform="translate(-414.581 -389.504)"/><path class="a" d="M456.008,418.661a5.4,5.4,0,1,0,1.2,3.393A5.385,5.385,0,0,0,456.008,418.661Z" transform="translate(-416.923 -389.504)"/></svg>