<svg xmlns="http://www.w3.org/2000/svg" xmlns:xlink="http://www.w3.org/1999/xlink" width="590" height="398" viewBox="0 0 590 398"><defs><style>.a,.aa,.e,.g,.h,.t,.v{fill:none;}.b{fill:#fac24a;}.c{fill:#fce1d5;}.d{fill:#e5b7b7;}.e,.g,.h{stroke:#ba8888;stroke-linecap:round;stroke-linejoin:round;}.e{stroke-width:2px;}.f{fill:#ba8888;}.g{stroke-width:1.5px;}.i{fill:#fff;}.j{fill:#cbcbcb;}.k{fill:#ce6171;}.l{fill:#646464;}.m{fill:#231815;}.n{fill:#505050;}.o{fill:#e57f23;}.p{fill:#f27a88;}.q{fill:#ededec;}.r{fill:url(#a);}.s{opacity:0.5;}.t,.v{stroke:#fff;stroke-miterlimit:10;}.u{fill:#442b2b;}.v{stroke-width:0.474px;}.w{fill:#fdd17e;}.x{fill:#f0c26a;}.y{fill:#ad9362;}.z{fill:#e8e8e8;}.aa{stroke:#1d1d1d;stroke-width:6px;}.ab{fill:#1d1d1d;}.ac{fill:#f0bb4c;}.ad{fill:#ced2db;}</style><linearGradient id="a" y1="0.5" x2="1" y2="0.5" gradientUnits="objectBoundingBox"><stop offset="0" stop-color="#102151"/><stop offset="1" stop-color="#0b1d46"/></linearGradient></defs><g transform="translate(-50 -4571)"><rect class="a" width="590" height="398" transform="translate(50 4571)"/><g transform="translate(-2164.619 1341.87)"><path class="b" d="M2656.642,3266.9l134.726-20.248a21.873,21.873,0,0,1,24.881,18.38l44.582,296.644a21.873,21.873,0,0,1-18.38,24.881l-134.726,20.247a21.873,21.873,0,0,1-24.881-18.38l-44.582-296.644A21.873,21.873,0,0,1,2656.642,3266.9Z" transform="translate(-187.646 -0.66)"/><path class="c" d="M2782.795,3524.49c.583-.046,9.288.921,15.883-3.229L2797.4,3508h-5.8Z" transform="translate(-262.405 -135.737)"/><g transform="translate(2521.535 3336.534)"><path class="d" d="M2794,3518.955s0,.484,3.869.967c0,0,2.748,6.257,3.55,6.514l3.045-.507s-3.879-5.968-4.753-8.89a6.769,6.769,0,0,1-5.08.788Z" transform="translate(-2789.726 -3476.938)"/><g transform="translate(5.544 9.007)"><circle class="c" cx="18.579" cy="18.579" r="18.579"/><path class="c" d="M2796.63,3485.005s5.335,17.271,10.419,22.355c4.836,4.836,11.87,5.671,17,4.382,2.2-.552,4.372-2.3,6.2-4.588a21.357,21.357,0,0,0,4.488-15.166,124.941,124.941,0,0,0-2.024-13.71Z" transform="translate(-2796.628 -3465.931)"/><path class="e" d="M2829.7,3487.523a4.077,4.077,0,0,1,3.374-.166" transform="translate(-2813.702 -3470.464)"/><path class="e" d="M2853.718,3486.207a4.079,4.079,0,0,1,3.374-.166" transform="translate(-2826.107 -3469.784)"/><g transform="translate(16.07 19.668)"><ellipse class="f" cx="1.957" cy="3.523" rx="1.957" ry="3.523" transform="translate(0 0.592) rotate(-8.704)"/></g><g transform="translate(28.161 18.701)"><ellipse class="f" cx="1.957" cy="3.523" rx="1.957" ry="3.523" transform="translate(0 0.592) rotate(-8.704)"/></g><g transform="translate(20.849 36.339)"><path class="g" d="M2839.735,3528.468s5.49,2.917,8.748-.583" transform="translate(-2839.735 -3527.885)"/></g><path class="g" d="M2848.794,3504.767l2.911,6.287-3.493-.629" transform="translate(-2823.264 -3479.609)"/></g><path class="d" d="M2819.686,3465.435s8.775,8.147,20.382,6.7c0,0,2.9-.483,3.741-2.128l-.355-.774c-.484-.967-24.08-4.753-24.08-4.753l.312.958" transform="translate(-2802.828 -3449.797)"/><g transform="translate(0 0)"><path d="M2807.571,3446.521s5.048,8.378,19.889,8.6S2841.089,3436,2841.089,3436s-7.413,6.018-9.535,4.918c-1.172-.607-15.587-12.068-27.229-3.824-8.085,5.193-7.631,9.936-7.631,9.936Z" transform="translate(-2791.114 -3434.124)"/><g transform="translate(0 8.175)"><path d="M2805.5,3460.034a9.044,9.044,0,0,0,.334,1.06c.8,2.058,3.459,10.625-5.335,15.951-10.05,6.087-15.418-10.861-6.917-22.151C2801.1,3444.9,2804.758,3457.1,2805.5,3460.034Z" transform="translate(-2787.328 -3451.028)"/><path d="M2789.92,3463s-10.97,12.861.406,30.89a.176.176,0,0,0,.326-.1c-.242-6.23,5.36-13.012,5.36-13.012Z" transform="translate(-2785.163 -3457.21)"/></g></g><g transform="translate(1.251 30.225)"><circle class="c" cx="5.489" cy="5.489" r="5.489"/><path class="d" d="M2794.331,3501.439s4.3-.418,4.2,2.941a3.148,3.148,0,0,1-3.361,3.361s-2.069-.242-1.681-2.1c.384-1.839,2.521-.841,2.521-.841a1.255,1.255,0,0,0,1.685.039c.484-.484.07-1.328-.484-1.935A5.063,5.063,0,0,0,2794.331,3501.439Z" transform="translate(-2790.688 -3499.1)"/><path class="h" d="M2794.331,3501.439s4.3-.418,4.2,2.941a3.148,3.148,0,0,1-3.361,3.361s-2.069-.242-1.681-2.1c.384-1.839,2.521-.841,2.521-.841" transform="translate(-2790.688 -3499.1)"/></g></g><g transform="translate(2495.2 3298.939)"><path class="i" d="M2742.941,3383.768c3.869-11.124,17.847-36.045,32.622-24.31s12.84,24.793,13.323,31.081c0,0-32.887,12.091-32.887,14.025s-.649-9.3-4.353-2.418c-3.385,6.287-18.862,9.189-20.8-3.869C2729.335,3388.05,2740.552,3390.635,2742.941,3383.768Z" transform="translate(-2730.71 -3356.389)"/><path class="i" d="M2784.451,3454.554s20.886-19.332,40.141-17.411a19.57,19.57,0,0,0-8.705-10.156s-17.411-.967-32.887,14.025Z" transform="translate(-2757.711 -3392.837)"/><path class="j" d="M2815.887,3427c-29.5,5.32-32.887,14.025-32.887,14.025s.395,3.362.439,4.1,9.719-11.359,36.076-15.468A16.329,16.329,0,0,0,2815.887,3427Z" transform="translate(-2757.711 -3392.85)"/><path class="j" d="M2777.754,3433.845s5.439-1.688,4.472-11.845C2782.226,3422,2781.021,3430.213,2777.754,3433.845Z" transform="translate(-2755.002 -3390.268)"/><path class="j" d="M2781.483,3437.084a13.518,13.518,0,0,0,6.054-12.084S2785.1,3433.693,2781.483,3437.084Z" transform="translate(-2756.927 -3391.818)"/></g><path class="k" d="M2613.676,3600s-2.281.89-.657,5.522,2.107,22.045,5.977,22.528C2619,3628.051,2627.7,3624.666,2613.676,3600Z" transform="translate(-174.437 -183.243)"/><circle class="c" cx="10.039" cy="10.039" r="10.039" transform="translate(2428.543 3422.624)"/><g transform="translate(2313.384 3477.584)"><circle class="c" cx="15.448" cy="15.448" r="15.448" transform="translate(94.477 93.383)"/><path class="c" d="M2627.283,3747.824s-35.911,70.146-49.606,96.358l-28.083-14.1s37.7-95.541,41.068-104.307Z" transform="translate(-2455.372 -3725.771)"/><path class="c" d="M2466.134,3898.2s-27.591-8.1-38.519-10.63-65.634-5.794-69.327-7.229a14.155,14.155,0,0,0-2.661,14.284l107.574,34.507Z" transform="translate(-2354.774 -3805.585)"/></g><path class="c" d="M2692.781,3545.049s-65.325,26.793-81.121,32.488l2.692,19.881s20.687-1.127,53.09-12.735Z" transform="translate(-174.037 -154.868)"/><path class="c" d="M2549.723,3618.64,2504,3663.308l8.706,7.255s34.338-26.6,46.429-35.305Z" transform="translate(-118.445 -192.868)"/><circle class="c" cx="9.431" cy="9.431" r="9.431" transform="translate(2604.641 3384.837)"/><path class="c" d="M2793.509,3540.287l80.767-6.287v18.862L2779,3571.724Z" transform="translate(-260.446 -149.163)"/><path class="l" d="M2634.1,3726h-29.018L2578,3785l40.142,15.476,23.7-31.436Z" transform="translate(-156.656 -248.305)"/><path class="i" d="M2671.5,3556.2l5.8,30.469,52.219-47.6S2691.813,3544.6,2671.5,3556.2Z" transform="translate(-204.936 -151.78)"/><path class="i" d="M2688.836,3627.04s17.411.483,23.7,1.934,8.714.678,9.918-4.739,25.387-51.846,33.609-58.617,15.025-30.846,7.271-31.141-29.315-1.094-49.245,11.88S2684,3584,2684,3584Z" transform="translate(-211.391 -149.345)"/><rect class="m" width="4.148" height="3.268" rx="1.634" transform="translate(2530.42 3422.803) rotate(30)"/><rect class="m" width="4.148" height="3.268" rx="1.634" transform="translate(2521.714 3438.279) rotate(30)"/><rect class="m" width="4.148" height="3.268" rx="1.634" transform="translate(2513.009 3452.788) rotate(30)"/><rect class="m" width="4.148" height="3.268" rx="1.634" transform="translate(2506.722 3467.297) rotate(30)"/><path class="j" d="M2803.678,3601.9s-14.038,3.918-24.678.049c0,0,5.486,5.252,20.4,5.528Z" transform="translate(-260.446 -184.223)"/><path class="j" d="M2682.181,3592.219s14.863-32.116,35.334-40.625c0,0-22.176,7.586-37.608,32.425Z" transform="translate(-209.278 -158.248)"/><path class="j" d="M2911,3552s.967,10.156,3.869,11.124A64.407,64.407,0,0,1,2911,3552Z" transform="translate(-328.606 -158.457)"/><path class="j" d="M2918,3552s.967,10.156,3.869,11.124A64.407,64.407,0,0,1,2918,3552Z" transform="translate(-332.221 -158.457)"/><path class="l" d="M2657.908,3726s-12.075,35.305,24.2,43.043L2674.367,3726Z" transform="translate(-196.922 -248.305)"/><path class="n" d="M2683.585,3793.585s-22.334-5.777-24.709-20.057c0,0-1.612,24.592,18.078,28.854Z" transform="translate(-198.401 -272.847)"/><g transform="translate(2274.619 3538.872)"><path class="o" d="M2320.28,3863.1c-4.07-1.887-21.7-9.931-26.869-10.146l-18.153,48.178,5.471,1a4.316,4.316,0,0,0,3.292-.985c2.622-2.2,8.145-7.092,11.39-11.751,3.864-5.547,15.347-6.644,17.942-6.824a.826.826,0,0,0,.716-.533l6.723-17.679A1,1,0,0,0,2320.28,3863.1Z" transform="translate(-2274.949 -3852.734)"/><circle class="i" cx="4.633" cy="4.633" r="4.633" transform="translate(27.239 12.491)"/><path class="i" d="M2279.442,3901.787s15.378-39.033,18.855-47.851a24.861,24.861,0,0,0-5.318-1.441l-18.36,48.667Z" transform="translate(-2274.619 -3852.495)"/><rect class="b" width="51.931" height="0.484" transform="translate(2.33 48.994) rotate(-70.003)"/><circle class="b" cx="3.432" cy="3.432" r="3.432" transform="translate(28.44 13.692)"/></g><path class="i" d="M2367.342,3881.991l-5.1,15-5.7-1.829,5.337-13.784Z" transform="translate(-42.3 -328.535)"/><path class="d" d="M2580.318,3850.826l-4.695,11.908,36.318,5.746,2.344-4.558Z" transform="translate(-155.429 -312.761)"/><path class="d" d="M2563.536,3899.538l-2.1,5.323s-2.313,3.122,5.425,3.122C2566.862,3907.983,2562.146,3906.569,2563.536,3899.538Z" transform="translate(-147.936 -337.914)"/><path class="p" d="M2657.338,3665.58H2623s25.973-50.308,30.639-56.591Z" transform="translate(-179.892 -187.885)"/><path class="p" d="M2642.508,3574.285s-20.254,8.568-27.508,12.437c0,0,7.254,22.247,5.32,28.051,0,0,16.015-4.11,19.131-6.167,0,0,5.928-8.207,6.941-12.87Z" transform="translate(-175.762 -169.965)"/><path class="k" d="M2654.276,3618.735s-14.642,28.251-23.2,46.74l-8.075.111s27.567-53.2,30.469-56.585Z" transform="translate(-179.892 -187.89)"/><path class="d" d="M2612,3610.9s4.088,15.8,2.528,19.989l4.57-.458s.658-3.212-4.187-20.56Z" transform="translate(-174.212 -188.341)"/><path class="q" d="M2779,3532.3l4.836-8.3a46.731,46.731,0,0,0,5.8,3.385,18.261,18.261,0,0,1,3.869,2.418S2781.418,3533.347,2779,3532.3Z" transform="translate(-260.446 -143.999)"/><g transform="translate(2477.446 3475.726)"><g transform="translate(14.993 5.354)"><circle class="c" cx="15.448" cy="15.448" r="15.448" transform="translate(99.201 33.427)"/><path class="c" d="M2740.96,3733s74.957,24.322,103.01,33.683l-9.467,29.966s-100.314-22.056-109.5-23.991Z" transform="translate(-2725 -3733)"/><path class="c" d="M2951,3835.456s22.66,17.7,31.885,24.085,56.131,27.108,59.036,29.8a14.154,14.154,0,0,0,7.74-12.3l-84.527-69.263Z" transform="translate(-2841.699 -3771.616)"/></g><g transform="translate(0)"><path class="r" d="M2694,3722.931l8.222,44.011,112.2,24.665s58.031,44.366,72.059,48.541l17.753-21.114s-62.245-53.543-71.434-58.379-97.694-32.887-109.3-35.305S2695.935,3720.512,2694,3722.931Z" transform="translate(-2694 -3721.929)"/><g class="s" transform="translate(0.738 6.075)"><path class="t" d="M2705.88,3792.082l108.444,21.792s10.346,2.108,17.6,8.4,52.083,43.832,63.765,50.45" transform="translate(-2700.872 -3764.229)"/><path class="t" d="M2898.115,3861.059l-67.974-54.725s-3.869-2.9-12.574-4.353c-10.3-1.717-114.2-23.9-114.2-23.9" transform="translate(-2699.573 -3756.999)"/><path class="t" d="M2699.958,3759.141l113.916,25.323s13.542,1.935,21.28,9.189,64.322,53.917,64.322,53.917" transform="translate(-2697.814 -3747.219)"/><path class="t" d="M2901.293,3829.957l-61.174-51.451s-5.32-7.254-20.8-11.124-123.8-32.891-123.8-32.891" transform="translate(-2695.526 -3734.491)"/><path class="t" d="M2707.843,3803l103.332,22.005s10.156,0,23.7,10.64,49.6,42.036,60.348,44.474" transform="translate(-2701.886 -3769.867)"/></g></g><path class="d" d="M3115,3928.894s-10.1,11.453-8.89,15.1l-5.984-2.786,12.2-14.508Z" transform="translate(-2903.709 -3827.667)"/><path class="u" d="M3189.3,3923.309s-10.184,18.7-31.285,25.331c0,0-.708,8.909-9.189,11.124,0,0-13.933-9.774-12.185-13.909a19.1,19.1,0,0,0,6.621-13.585s24.4-4.75,38.185-11.728C3181.384,3920.568,3188.718,3916.273,3189.3,3923.309Z" transform="translate(-2922.488 -3823.828)"/></g><path class="d" d="M2478.977,3773.55" transform="translate(-105.524 -272.858)"/><g transform="translate(2371.896 3469.256)"><rect class="d" width="9.859" height="3.648" rx="1.824" transform="translate(15.33 19.94) rotate(128.532)"/><rect class="d" width="9.859" height="3.648" rx="1.824" transform="translate(11.417 17.915) rotate(128.532)"/><rect class="d" width="9.859" height="3.648" rx="1.824" transform="translate(9.374 13.412) rotate(128.532)"/><rect class="d" width="6.124" height="2.692" rx="1.346" transform="translate(5.921 11.405) rotate(128.532)"/><path class="d" d="M2498.927,3722.525l-8.181-9.029-5.363,3.963a52.256,52.256,0,0,0-5,5.354l9.845,11.142a.643.643,0,0,0,1.021-.068s.873-.68,1.36-1.041,1.526-1.5,2.374-1.378c0,0,1.174.649.69,1.132a1.225,1.225,0,0,1-.93.43l-.909,1.511a2.955,2.955,0,0,0,4.741-.974c1.934-3.385.351-11.044.351-11.044" transform="translate(-2478.147 -3711.105)"/><path class="c" d="M2488.566,3762.268" transform="translate(-2482.371 -3736.289)"/><circle class="c" cx="6.111" cy="6.111" r="6.111" transform="translate(11.121 0)"/><path class="c" d="M2506.836,3732.11a19.791,19.791,0,0,0,3.385,7.254s1.451,3.385.484,3.869c0,0-1.742.875-2.564-.288a9.953,9.953,0,0,1-1.459,1.2s4.43,3.186,6.4-.8a33.934,33.934,0,0,0-.763-12.073Z" transform="translate(-2491.726 -3720.286)"/><path class="c" d="M2493.119,3725.345s-3.908-1.313-5.359-3.732-7.563,2.609-7.651,3l-1,.182s2.547-5.409,10.2-10.1l5.014,9.154Z" transform="translate(-2477.486 -3711.724)"/><g transform="translate(-4.989 0.626) rotate(-30)"><g transform="translate(0 0)"><path class="v" d="M2.27,0V1.17H0L1.773,0Z" transform="translate(8.547 3.085)"/><rect class="v" width="19.469" height="1.17" transform="translate(4.185 9.291)"/><path class="v" d="M0,.106H0L2.234,1.525ZM4.539,3.014l1.809,1.17H17.519l1.809-1.17ZM8.653,5.639l1.809,1.17H13.4l1.809-1.17ZM21.7,1.489V.532H2.234v.957l.284.177H21.349l.355-.177L24.008,0Z" transform="translate(1.951 11.029)"/><path class="w" d="M27.768,17.944H0V0L1.95,1.277h0L4.185,2.7h0l.284.177h0L6.49,4.185h0L8.3,5.355h0L10.6,6.809h0l1.809,1.17h0l1.49.957Z" transform="translate(0 9.859)"/><path class="x" d="M13.866,0V17.944L0,8.937l1.454-.957,1.809-1.17h0L5.568,5.355l1.809-1.17L9.4,2.872l.355-.213L12.057,1.17h0Z" transform="translate(13.901 9.859)"/><path class="y" d="M1.809,1.17,0,2.341V0Z" transform="translate(25.959 8.688)"/><path class="y" d="M1.95,0V2.553L0,1.277Z" transform="translate(0 8.582)"/><line class="v" transform="translate(23.654 12.518)"/><path class="a" d="M2.234,0V1.17H8.866V0ZM4.539,10.958l1.809,1.17H17.519l1.809-1.17Zm4.114,2.624,1.809,1.17H13.4l1.809-1.17ZM21.7,9.433V8.476H2.234v.958l.284.177H21.349l.355-.177,2.305-1.489ZM2.234,6.206v1.17H21.7V6.206ZM0,8.05H0L2.234,9.469Z" transform="translate(1.951 3.085)"/><g transform="translate(4.468 12.731)"><path class="i" d="M2.943,0,1.49.957,0,0Z" transform="translate(7.944 5.107)"/><path class="i" d="M11.171,0,8.866,1.454H2.305L0,0Z" transform="translate(3.83 2.482)"/><path class="i" d="M18.831,0,16.809,1.312H2.021L0,0Z" transform="translate(0 0)"/></g><path class="i" d="M0,0V11.135l2.234,1.419V11.6H21.7v.958l2.305-1.489V0ZM2.234,3.085H8.866v1.17H2.234ZM21.7,10.462H2.234V9.291H21.7Zm0-2.8H2.234V6.49H21.7Z" transform="translate(1.951 0)"/><rect class="z" width="19.469" height="1.17" transform="translate(4.185 6.49)"/><rect class="z" width="6.632" height="1.17" transform="translate(4.185 3.085)"/><rect class="z" width="19.469" height="1.17" transform="translate(4.185 9.291)"/><path class="z" d="M19.469,0V.958l-.355.213H.284L0,.993V0Z" transform="translate(4.185 11.561)"/><path class="z" d="M14.788,0,12.98,1.17H1.809L0,0Z" transform="translate(6.49 14.043)"/><path class="z" d="M6.561,0,4.752,1.17H1.809L0,0Z" transform="translate(10.603 16.668)"/></g></g><rect class="c" width="9.859" height="3.648" rx="1.824" transform="translate(11.465 16.239) rotate(150)"/><rect class="c" width="9.859" height="3.648" rx="1.824" transform="translate(13.399 20.592) rotate(150)"/><rect class="c" width="6.124" height="2.692" rx="1.346" transform="translate(7.061 15.092) rotate(173.532)"/><rect class="c" width="9.859" height="3.648" rx="1.824" transform="translate(17.268 22.526) rotate(150)"/></g><path class="aa" d="M2656.449,3265.624l134.726-20.247a21.872,21.872,0,0,1,24.881,18.379l44.582,296.644a21.874,21.874,0,0,1-18.38,24.881l-134.726,20.247a21.873,21.873,0,0,1-24.881-18.379L2638.07,3290.5A21.874,21.874,0,0,1,2656.449,3265.624Z" transform="translate(-187.547)"/><rect class="ab" width="88.743" height="9.999" rx="5" transform="translate(2492.387 3262.094) rotate(-8.547)"/><g transform="translate(2506.771 3329.115)"><path class="c" d="M3054.148,3522.09v11.375l-71.123,11.834-3.5-17.337Z" transform="translate(-2870.761 -3472.127)"/><path class="i" d="M2754.635,3564s64.135-11.847,87.894-14.542,67.609-4.551,70.35-6.767c0,0,2.169-19.587-1.414-25.652,0,0-108.278,8.109-131.861,9.486S2754.635,3564,2754.635,3564Z" transform="translate(-2754.635 -3469.519)"/><g transform="translate(165.256 0)"><rect class="c" width="9.859" height="3.648" rx="1.824" transform="translate(21.323 37.257) rotate(-24.028)"/><g transform="translate(0.74 6.093)"><ellipse class="ac" cx="13.834" cy="1.729" rx="13.834" ry="1.729" transform="translate(0 5.317) rotate(-11.08)"/></g><path class="ad" d="M3128.743,3441.981l-.115-.565-1.389-6.329-1.783-8.173h0l-.02-.04h0l-.011-.07h0l-.072-.287.019-.06c-.01-.069-.051-.148-.062-.218-1.422-4.49-8.794-8.657-16.454-7.137-8.016,1.6-13.348,8.8-12.421,13.49.2,1.022,6.863.535,14.869-1.039a93.747,93.747,0,0,0,9.144-2.229h0l1.442,6.676,1.482,6.755.073.387.768,3.551,6.553,33.465h.1l.707.063.417.036a4.761,4.761,0,0,1,.523-.392c.306-.231.721-.493,1.215-.8h0c.208-.131.445-.252.692-.4.4-.2.792-.4,1.208-.567a.468.468,0,0,0,.158-.081l-6.333-32.3Zm-4.255-15.546-.4.1c.02.04.05.049.041.079.041.179-.156.379-.531.621a17.173,17.173,0,0,1-3.327,1.4,79.345,79.345,0,0,1-9.094,2.279c-5.933,1.187-11.077,1.67-12.888,1.349h0c-.438-.075-.688-.223-.729-.4-.031-.109.028-.189.126-.289.886-1,6.247-2.671,12.854-4,6.628-1.292,12.239-1.79,13.407-1.214a3.9,3.9,0,0,1,.538.075Z" transform="translate(-3096.332 -3418.783)"/><path class="ad" d="M3168.582,3522.433l6.39,32.316a2.688,2.688,0,0,1-1.581,2.994h0a2.689,2.689,0,0,1-3.7-1.954l-6.336-32.263Z" transform="translate(-3130.942 -3472.304)"/><path class="d" d="M3184.32,3501.827" transform="translate(-3141.766 -3461.664)"/><rect class="c" width="9.859" height="3.648" rx="1.824" transform="translate(26.561 43.176) rotate(-24.028)"/><rect class="c" width="9.859" height="3.648" rx="1.824" transform="translate(27.573 47.619) rotate(-24.028)"/><rect class="c" width="9.859" height="3.648" rx="1.824" transform="translate(28.838 51.715) rotate(-24.028)"/><rect class="c" width="6.124" height="2.692" rx="1.346" transform="translate(29.451 55.929) rotate(-24.028)"/><path class="c" d="M3168.85,3526.779l-1.057,3.541-1.981-1.693.3-.627Z" transform="translate(-3132.209 -3474.548)"/><path class="c" d="M3173.413,3518.84l1.426-3.9s.157-.946-1.734-1.259l-.924,1.308-1.09,1.467Z" transform="translate(-3134.935 -3467.784)"/><path class="c" d="M3142.022,3500.489a.644.644,0,0,1,.938.41l3.6,14.426a52.188,52.188,0,0,1-6.9,2.448l-6.585,1.046-3.1-11.783a32.288,32.288,0,0,1,6.1-12.177.564.564,0,0,1,.888.058c1.651,2.422,1.358,2.814,1.358,2.814s-2.11,2.177-.722,3.184c.694.5,2.143-.033,2.742-.129S3142.022,3500.489,3142.022,3500.489Z" transform="translate(-3113.703 -3457.968)"/><path class="c" d="M3170.611,3507.421" transform="translate(-3134.687 -3464.552)"/><path class="c" d="M3169.111,3498.5a17.444,17.444,0,0,0-.381-4.8.7.7,0,0,0-.9-.287l-.352,2.981s-.239.71-.752.743Z" transform="translate(-3132.681 -3457.29)"/><path class="c" d="M3170.911,3508.721a13.251,13.251,0,0,0-.056-5.136,1.326,1.326,0,0,0-.946-.157c-.6.1-1.511,2.082-1.511,2.082a2.045,2.045,0,0,1-.191,1.384Z" transform="translate(-3133.446 -3462.48)"/><circle class="c" cx="6.111" cy="6.111" r="6.111" transform="translate(10.861 49.303)"/></g></g></g></g></svg>