<svg xmlns="http://www.w3.org/2000/svg" xmlns:xlink="http://www.w3.org/1999/xlink" width="359" height="300" viewBox="0 0 359 300"><defs><style>.a,.r{fill:none;}.b,.g,.m{fill:#fff;}.b{stroke:#707070;}.c{opacity:0.503;}.d,.j{fill:#f9f9f9;}.e,.i,.k,.o{fill:#fac24a;}.e{opacity:0.504;}.f,.g,.p{isolation:isolate;}.g,.p{font-size:8px;font-family:Futura-Bold, Futura;font-weight:700;}.h{opacity:0.698;}.i{opacity:0.503;}.j{stroke:#1d1d1d;}.j,.t{stroke-width:3px;}.l{fill:#ededed;}.n{fill:#8a5c26;}.n,.o{stroke:rgba(0,0,0,0);stroke-miterlimit:10;}.p,.w{fill:#1d1d1d;}.q{clip-path:url(#a);}.r{stroke:#fac24a;stroke-linecap:round;stroke-width:5px;}.s{clip-path:url(#b);}.t,.u{fill:#f7e1d6;}.t{stroke:#000;opacity:0;}.v,.w{stroke:none;}</style><clipPath id="a"><circle class="a" cx="124" cy="124" r="124" transform="translate(1708.5 2751)"/></clipPath><clipPath id="b"><rect class="b" width="150" height="65" transform="translate(1744.128 2921.5)"/></clipPath></defs><g transform="translate(-435 -1808.5)"><g transform="translate(-1217.128 -904.5)"><g transform="translate(-3 4.376)"><g class="c"><rect class="d" width="132" height="121" rx="5" transform="translate(1770.128 2747.124)"/><path class="e" d="M1768.809,2747.124h122.638a4.848,4.848,0,0,1,4.681,5v15h-132v-15A4.848,4.848,0,0,1,1768.809,2747.124Z" transform="translate(6)"/><g class="f" transform="translate(1826.807 2752.124)"><text class="g" transform="translate(0 8)"><tspan x="0" y="0">APR</tspan></text></g></g><g class="h"><rect class="d" width="160" height="121" rx="5" transform="translate(1756.128 2771.124)"/><path class="i" d="M1754.862,2771.124h150.533a4.872,4.872,0,0,1,4.734,5v15h-160v-15A4.872,4.872,0,0,1,1754.862,2771.124Z" transform="translate(6)"/><g class="f" transform="translate(1825.643 2776.124)"><text class="g" transform="translate(0 8)"><tspan x="0" y="0">MAY</tspan></text></g></g><g transform="translate(0 -1)"><rect class="j" width="186" height="122" rx="5" transform="translate(1742.128 2796.124)"/><path class="k" d="M1741.821,2796.124h173.619a4.66,4.66,0,0,1,4.692,4.627v13.881h-183v-13.881A4.659,4.659,0,0,1,1741.821,2796.124Z" transform="translate(6.486 1.491)"/><g transform="translate(-10 0.624)"><rect class="l" width="17" height="17" rx="2" transform="translate(1882.128 2823.5)"/><rect class="l" width="17" height="17" rx="2" transform="translate(1836.128 2846.5)"/><rect class="l" width="17" height="17" rx="2" transform="translate(1882.128 2846.5)"/><rect class="l" width="17" height="17" rx="2" transform="translate(1836.128 2869.5)"/><g transform="translate(1859.128 2823.5)"><rect class="m" width="17" height="17" rx="2"/><path class="n" d="M1081.128,914.5h-13a2,2,0,0,1-2-2v-13a2,2,0,0,1,2-2h13a2,2,0,0,1,2,2v13A2,2,0,0,1,1081.128,914.5Zm-10.3-7.04a.783.783,0,0,0-.563.2.473.473,0,0,0-.133.357,3.825,3.825,0,0,0,.621,2.028,3.616,3.616,0,0,0,1.626,1.343,5.594,5.594,0,0,0,1.587.4v.885a.833.833,0,1,0,1.667,0v-.87a4.905,4.905,0,0,0,1.5-.406,3.413,3.413,0,0,0,1.484-1.239,3.074,3.074,0,0,0,.517-1.7,2.816,2.816,0,0,0-.47-1.606,3.448,3.448,0,0,0-1.457-1.15,10.385,10.385,0,0,0-1.57-.5v-3.614a2.124,2.124,0,0,1,1.723,2.056.591.591,0,0,0,.655.467.92.92,0,0,0,.647-.24.449.449,0,0,0,.132-.334,3.423,3.423,0,0,0-.554-1.778,3.209,3.209,0,0,0-1.477-1.189,5,5,0,0,0-1.126-.319v-.919a.833.833,0,1,0-1.667,0v.859a5.168,5.168,0,0,0-1.5.358,3.021,3.021,0,0,0-1.418,1.128,2.874,2.874,0,0,0-.486,1.6,2.586,2.586,0,0,0,.4,1.4,3.078,3.078,0,0,0,1.207,1.05,8.854,8.854,0,0,0,1.8.609v4.071a3.886,3.886,0,0,1-.819-.251,2.563,2.563,0,0,1-1.138-.878,3.119,3.119,0,0,1-.466-1.389C1071.506,907.609,1071.154,907.46,1070.823,907.46Zm4.806,2.98h0V906.76c.333.09.577.166.729.225a2.3,2.3,0,0,1,1.018.665,1.477,1.477,0,0,1,.308.928,1.621,1.621,0,0,1-.32.966,2.1,2.1,0,0,1-.976.7,3.647,3.647,0,0,1-.758.2Zm-1.667-5.64h0a4.158,4.158,0,0,1-1.52-.623,1.29,1.29,0,0,1-.439-1,1.5,1.5,0,0,1,.621-1.2,2.565,2.565,0,0,1,1.339-.464V904.8Z" transform="translate(-1066.128 -897.5)"/></g><g transform="translate(1905.128 2823.5)"><rect class="m" width="17" height="17" rx="2"/><path class="n" d="M1081.128,914.5h-13a2,2,0,0,1-2-2v-13a2,2,0,0,1,2-2h13a2,2,0,0,1,2,2v13A2,2,0,0,1,1081.128,914.5Zm-10.3-7.04a.783.783,0,0,0-.563.2.473.473,0,0,0-.133.357,3.825,3.825,0,0,0,.621,2.028,3.616,3.616,0,0,0,1.626,1.343,5.594,5.594,0,0,0,1.587.4v.885a.833.833,0,1,0,1.667,0v-.87a4.905,4.905,0,0,0,1.5-.406,3.413,3.413,0,0,0,1.484-1.239,3.074,3.074,0,0,0,.517-1.7,2.816,2.816,0,0,0-.47-1.606,3.448,3.448,0,0,0-1.457-1.15,10.385,10.385,0,0,0-1.57-.5v-3.614a2.124,2.124,0,0,1,1.723,2.056.591.591,0,0,0,.655.467.92.92,0,0,0,.647-.24.449.449,0,0,0,.132-.334,3.423,3.423,0,0,0-.554-1.778,3.209,3.209,0,0,0-1.477-1.189,5,5,0,0,0-1.126-.319v-.919a.833.833,0,1,0-1.667,0v.859a5.168,5.168,0,0,0-1.5.358,3.021,3.021,0,0,0-1.418,1.128,2.874,2.874,0,0,0-.486,1.6,2.586,2.586,0,0,0,.4,1.4,3.078,3.078,0,0,0,1.207,1.05,8.854,8.854,0,0,0,1.8.609v4.071a3.886,3.886,0,0,1-.819-.251,2.563,2.563,0,0,1-1.138-.878,3.119,3.119,0,0,1-.466-1.389C1071.506,907.609,1071.154,907.46,1070.823,907.46Zm4.806,2.98h0V906.76c.333.09.577.166.729.225a2.3,2.3,0,0,1,1.018.665,1.477,1.477,0,0,1,.308.928,1.621,1.621,0,0,1-.32.966,2.1,2.1,0,0,1-.976.7,3.647,3.647,0,0,1-.758.2Zm-1.667-5.64h0a4.158,4.158,0,0,1-1.52-.623,1.29,1.29,0,0,1-.439-1,1.5,1.5,0,0,1,.621-1.2,2.565,2.565,0,0,1,1.339-.464V904.8Z" transform="translate(-1066.128 -897.5)"/></g><g transform="translate(1836.128 2823.5)"><rect class="m" width="17" height="17" rx="2"/><path class="n" d="M1081.128,914.5h-13a2,2,0,0,1-2-2v-13a2,2,0,0,1,2-2h13a2,2,0,0,1,2,2v13A2,2,0,0,1,1081.128,914.5Zm-10.3-7.04a.783.783,0,0,0-.563.2.473.473,0,0,0-.133.357,3.825,3.825,0,0,0,.621,2.028,3.616,3.616,0,0,0,1.626,1.343,5.594,5.594,0,0,0,1.587.4v.885a.833.833,0,1,0,1.667,0v-.87a4.905,4.905,0,0,0,1.5-.406,3.413,3.413,0,0,0,1.484-1.239,3.074,3.074,0,0,0,.517-1.7,2.816,2.816,0,0,0-.47-1.606,3.448,3.448,0,0,0-1.457-1.15,10.385,10.385,0,0,0-1.57-.5v-3.614a2.124,2.124,0,0,1,1.723,2.056.591.591,0,0,0,.655.467.92.92,0,0,0,.647-.24.449.449,0,0,0,.132-.334,3.423,3.423,0,0,0-.554-1.778,3.209,3.209,0,0,0-1.477-1.189,5,5,0,0,0-1.126-.319v-.919a.833.833,0,1,0-1.667,0v.859a5.168,5.168,0,0,0-1.5.358,3.021,3.021,0,0,0-1.418,1.128,2.874,2.874,0,0,0-.486,1.6,2.586,2.586,0,0,0,.4,1.4,3.078,3.078,0,0,0,1.207,1.05,8.854,8.854,0,0,0,1.8.609v4.071a3.886,3.886,0,0,1-.819-.251,2.563,2.563,0,0,1-1.138-.878,3.119,3.119,0,0,1-.466-1.389C1071.506,907.609,1071.154,907.46,1070.823,907.46Zm4.806,2.98h0V906.76c.333.09.577.166.729.225a2.3,2.3,0,0,1,1.018.665,1.477,1.477,0,0,1,.308.928,1.621,1.621,0,0,1-.32.966,2.1,2.1,0,0,1-.976.7,3.647,3.647,0,0,1-.758.2Zm-1.667-5.64h0a4.158,4.158,0,0,1-1.52-.623,1.29,1.29,0,0,1-.439-1,1.5,1.5,0,0,1,.621-1.2,2.565,2.565,0,0,1,1.339-.464V904.8Z" transform="translate(-1066.128 -897.5)"/></g><g transform="translate(1790.128 2823.5)"><rect class="m" width="17" height="17" rx="2"/><path class="n" d="M1081.128,914.5h-13a2,2,0,0,1-2-2v-13a2,2,0,0,1,2-2h13a2,2,0,0,1,2,2v13A2,2,0,0,1,1081.128,914.5Zm-10.3-7.04a.783.783,0,0,0-.563.2.473.473,0,0,0-.133.357,3.825,3.825,0,0,0,.621,2.028,3.616,3.616,0,0,0,1.626,1.343,5.594,5.594,0,0,0,1.587.4v.885a.833.833,0,1,0,1.667,0v-.87a4.905,4.905,0,0,0,1.5-.406,3.413,3.413,0,0,0,1.484-1.239,3.074,3.074,0,0,0,.517-1.7,2.816,2.816,0,0,0-.47-1.606,3.448,3.448,0,0,0-1.457-1.15,10.385,10.385,0,0,0-1.57-.5v-3.614a2.124,2.124,0,0,1,1.723,2.056.591.591,0,0,0,.655.467.92.92,0,0,0,.647-.24.449.449,0,0,0,.132-.334,3.423,3.423,0,0,0-.554-1.778,3.209,3.209,0,0,0-1.477-1.189,5,5,0,0,0-1.126-.319v-.919a.833.833,0,1,0-1.667,0v.859a5.168,5.168,0,0,0-1.5.358,3.021,3.021,0,0,0-1.418,1.128,2.874,2.874,0,0,0-.486,1.6,2.586,2.586,0,0,0,.4,1.4,3.078,3.078,0,0,0,1.207,1.05,8.854,8.854,0,0,0,1.8.609v4.071a3.886,3.886,0,0,1-.819-.251,2.563,2.563,0,0,1-1.138-.878,3.119,3.119,0,0,1-.466-1.389C1071.506,907.609,1071.154,907.46,1070.823,907.46Zm4.806,2.98h0V906.76c.333.09.577.166.729.225a2.3,2.3,0,0,1,1.018.665,1.477,1.477,0,0,1,.308.928,1.621,1.621,0,0,1-.32.966,2.1,2.1,0,0,1-.976.7,3.647,3.647,0,0,1-.758.2Zm-1.667-5.64h0a4.158,4.158,0,0,1-1.52-.623,1.29,1.29,0,0,1-.439-1,1.5,1.5,0,0,1,.621-1.2,2.565,2.565,0,0,1,1.339-.464V904.8Z" transform="translate(-1066.128 -897.5)"/></g><rect class="l" width="17" height="17" rx="2" transform="translate(1836.128 2892.5)"/><rect class="l" width="17" height="17" rx="2" transform="translate(1882.128 2892.5)"/><rect class="l" width="17" height="17" rx="2" transform="translate(1767.128 2823.5)"/><rect class="l" width="17" height="17" rx="2" transform="translate(1813.128 2823.5)"/><rect class="l" width="17" height="17" rx="2" transform="translate(1767.128 2846.5)"/><rect class="l" width="17" height="17" rx="2" transform="translate(1813.128 2846.5)"/><rect class="l" width="17" height="17" rx="2" transform="translate(1905.128 2846.5)"/><rect class="l" width="17" height="17" rx="2" transform="translate(1767.128 2869.5)"/><rect class="l" width="17" height="17" rx="2" transform="translate(1813.128 2869.5)"/><rect class="l" width="17" height="17" rx="2" transform="translate(1859.128 2869.5)"/><rect class="l" width="17" height="17" rx="2" transform="translate(1882.128 2869.5)"/><rect class="l" width="17" height="17" rx="2" transform="translate(1905.128 2869.5)"/><rect class="l" width="17" height="17" rx="2" transform="translate(1767.128 2892.5)"/><rect class="l" width="17" height="17" rx="2" transform="translate(1813.128 2892.5)"/><rect class="l" width="17" height="17" rx="2" transform="translate(1859.128 2892.5)"/><rect class="l" width="17" height="17" rx="2" transform="translate(1905.128 2892.5)"/><g transform="translate(1859.128 2846.5)"><rect class="m" width="17" height="17" rx="2" transform="translate(0 0)"/><g transform="translate(-973 -1751.623)"><path class="o" d="M193-180H180a2,2,0,0,1-2-2v-13a2,2,0,0,1,2-2h13a2,2,0,0,1,2,2v13A2,2,0,0,1,193-180Zm-11.656-9.886a.827.827,0,0,0-.589.244.828.828,0,0,0-.244.59.828.828,0,0,0,.244.589l3.535,3.535a.828.828,0,0,0,.59.244.828.828,0,0,0,.589-.244l5.892-5.892a.828.828,0,0,0,.244-.589.828.828,0,0,0-.244-.59.83.83,0,0,0-.59-.244.829.829,0,0,0-.589.244l-5.3,5.3-2.947-2.947A.828.828,0,0,0,181.343-189.886Z" transform="translate(795 1948.624)"/></g></g><g transform="translate(1790.128 2846.5)"><rect class="m" width="17" height="17" rx="2" transform="translate(0 0)"/><g transform="translate(-973 -1751.623)"><path class="o" d="M193-180H180a2,2,0,0,1-2-2v-13a2,2,0,0,1,2-2h13a2,2,0,0,1,2,2v13A2,2,0,0,1,193-180Zm-11.656-9.886a.827.827,0,0,0-.589.244.828.828,0,0,0-.244.59.828.828,0,0,0,.244.589l3.535,3.535a.828.828,0,0,0,.59.244.828.828,0,0,0,.589-.244l5.892-5.892a.828.828,0,0,0,.244-.589.828.828,0,0,0-.244-.59.83.83,0,0,0-.59-.244.829.829,0,0,0-.589.244l-5.3,5.3-2.947-2.947A.828.828,0,0,0,181.343-189.886Z" transform="translate(795 1948.624)"/></g></g><g transform="translate(1790.128 2869.5)"><rect class="m" width="17" height="17" rx="2" transform="translate(0 0)"/><g transform="translate(-973 -1751.623)"><path class="o" d="M193-180H180a2,2,0,0,1-2-2v-13a2,2,0,0,1,2-2h13a2,2,0,0,1,2,2v13A2,2,0,0,1,193-180Zm-11.656-9.886a.827.827,0,0,0-.589.244.828.828,0,0,0-.244.59.828.828,0,0,0,.244.589l3.535,3.535a.828.828,0,0,0,.59.244.828.828,0,0,0,.589-.244l5.892-5.892a.828.828,0,0,0,.244-.589.828.828,0,0,0-.244-.59.83.83,0,0,0-.59-.244.829.829,0,0,0-.589.244l-5.3,5.3-2.947-2.947A.828.828,0,0,0,181.343-189.886Z" transform="translate(795 1948.624)"/></g></g><g transform="translate(1859.128 2869.5)"><rect class="m" width="17" height="17" rx="2" transform="translate(0 0)"/><g transform="translate(-973 -1751.623)"><path class="o" d="M193-180H180a2,2,0,0,1-2-2v-13a2,2,0,0,1,2-2h13a2,2,0,0,1,2,2v13A2,2,0,0,1,193-180Zm-11.656-9.886a.827.827,0,0,0-.589.244.828.828,0,0,0-.244.59.828.828,0,0,0,.244.589l3.535,3.535a.828.828,0,0,0,.59.244.828.828,0,0,0,.589-.244l5.892-5.892a.828.828,0,0,0,.244-.589.828.828,0,0,0-.244-.59.83.83,0,0,0-.59-.244.829.829,0,0,0-.589.244l-5.3,5.3-2.947-2.947A.828.828,0,0,0,181.343-189.886Z" transform="translate(795 1948.624)"/></g></g><g transform="translate(1790.128 2892.5)"><rect class="m" width="17" height="17" rx="2" transform="translate(0 0)"/><g transform="translate(-973 -1751.623)"><path class="o" d="M193-180H180a2,2,0,0,1-2-2v-13a2,2,0,0,1,2-2h13a2,2,0,0,1,2,2v13A2,2,0,0,1,193-180Zm-11.656-9.886a.827.827,0,0,0-.589.244.828.828,0,0,0-.244.59.828.828,0,0,0,.244.589l3.535,3.535a.828.828,0,0,0,.59.244.828.828,0,0,0,.589-.244l5.892-5.892a.828.828,0,0,0,.244-.589.828.828,0,0,0-.244-.59.83.83,0,0,0-.59-.244.829.829,0,0,0-.589.244l-5.3,5.3-2.947-2.947A.828.828,0,0,0,181.343-189.886Z" transform="translate(795 1948.624)"/></g></g><g transform="translate(1859.128 2892.5)"><rect class="m" width="17" height="17" rx="2" transform="translate(0 0)"/><g transform="translate(-973 -1751.623)"><path class="o" d="M193-180H180a2,2,0,0,1-2-2v-13a2,2,0,0,1,2-2h13a2,2,0,0,1,2,2v13A2,2,0,0,1,193-180Zm-11.656-9.886a.827.827,0,0,0-.589.244.828.828,0,0,0-.244.59.828.828,0,0,0,.244.589l3.535,3.535a.828.828,0,0,0,.59.244.828.828,0,0,0,.589-.244l5.892-5.892a.828.828,0,0,0,.244-.589.828.828,0,0,0-.244-.59.83.83,0,0,0-.59-.244.829.829,0,0,0-.589.244l-5.3,5.3-2.947-2.947A.828.828,0,0,0,181.343-189.886Z" transform="translate(795 1948.624)"/></g></g></g><text class="p" transform="translate(1826.104 2809.124)"><tspan x="0" y="0">JUN</tspan></text></g></g><path class="r" d="M1977.935,2841.5a147.512,147.512,0,0,0-291.87,0"/><path class="r" d="M1687.883,2894.5a147.525,147.525,0,0,0,288.234,0"/><path class="k" d="M1664.128,2910a12,12,0,0,1,0-24h.01c-.007-.166-.01-.333-.01-.5a12.506,12.506,0,0,1,17.483-11.467,16,16,0,0,1,28.517,9.967,16.291,16.291,0,0,1-.124,2h.124a12,12,0,1,1,0,24Z"/><path class="k" d="M1953.128,2857a12,12,0,0,1,0-24h.01c-.007-.166-.01-.333-.01-.5a12.506,12.506,0,0,1,17.483-11.467,16,16,0,0,1,28.517,9.967,16.291,16.291,0,0,1-.124,2h.124a12,12,0,1,1,0,24Z"/><g class="s" transform="translate(13 5)"><path class="t" d="M493.746,2048.139c-6.447-1.962-5.872-8.71-27.362-7.71s-37.63-7.175-36.338,2.649,17.659,4.242,20.357,5.061,6.364,4.6,11.4,4.331,10.956,9.958,0,9.186-34-.9-46.759-10.61-18.02-7.071-18.275-2.908-2.341,16.954,36.72,29.711,37.849,13.912,60.261,3.517c17.572-3.453,42.713,1.876,42.713,1.876v-40.164S500.194,2050.1,493.746,2048.139Z" transform="translate(1364.561 891.742)"/><g class="u" transform="translate(-312.739 -269.453)"><path class="v" d="M 2150.34814453125 3248.0751953125 C 2143.110107421875 3248.0751953125 2135.02099609375 3246.68994140625 2126.305419921875 3243.957763671875 C 2117.494140625 3241.19580078125 2109.33349609375 3238.269287109375 2102.050048828125 3235.25927734375 C 2095.005126953125 3232.34814453125 2088.76904296875 3229.354736328125 2083.514892578125 3226.362548828125 C 2078.396484375 3223.44775390625 2074.2294921875 3220.54638671875 2071.129150390625 3217.739013671875 C 2068.14111328125 3215.033203125 2066.1845703125 3212.45751953125 2065.31396484375 3210.083984375 C 2064.69970703125 3208.4091796875 2064.38134765625 3206.9140625 2064.36767578125 3205.64013671875 C 2064.355712890625 3204.525634765625 2064.577880859375 3203.6337890625 2065.02783203125 3202.9892578125 C 2065.65576171875 3202.09033203125 2066.78857421875 3201.634521484375 2068.39501953125 3201.634521484375 C 2069.957763671875 3201.634521484375 2071.8681640625 3202.0654296875 2074.072998046875 3202.91552734375 C 2076.51416015625 3203.8564453125 2079.2646484375 3205.2958984375 2082.24853515625 3207.193359375 C 2086.086669921875 3209.634765625 2090.98486328125 3211.78173828125 2096.806640625 3213.57421875 C 2101.626708984375 3215.058349609375 2107.103271484375 3216.309814453125 2113.084228515625 3217.2939453125 C 2123.722900390625 3219.04443359375 2133.231689453125 3219.511474609375 2137.1728515625 3219.511474609375 C 2138.511474609375 3219.511474609375 2139.56787109375 3219.346435546875 2140.402099609375 3219.0068359375 C 2141.581787109375 3218.52685546875 2142.11083984375 3217.763427734375 2142.346923828125 3217.207763671875 C 2142.856201171875 3216.0087890625 2142.5908203125 3214.5703125 2141.557861328125 3212.93212890625 C 2140.9140625 3211.9111328125 2140.169921875 3211.135498046875 2140.138427734375 3211.10302734375 L 2139.696044921875 3210.644287109375 L 2139.058837890625 3210.644287109375 C 2138.984130859375 3210.644287109375 2131.48486328125 3210.632080078125 2123.4130859375 3209.673828125 C 2113.20751953125 3208.462158203125 2106.468994140625 3206.249267578125 2104.439208984375 3203.443115234375 C 2103.787353515625 3202.541748046875 2102.769775390625 3200.880126953125 2103.27978515625 3199.878173828125 C 2103.620849609375 3199.208251953125 2104.656982421875 3198.652587890625 2106.197021484375 3198.313720703125 C 2107.590087890625 3198.007080078125 2108.870849609375 3198 2108.883544921875 3198 L 2146.603515625 3198 C 2151.607666015625 3198 2156.261962890625 3198.293212890625 2160.4375 3198.87109375 C 2163.773681640625 3199.3330078125 2166.812744140625 3199.9765625 2169.469970703125 3200.7841796875 C 2173.880126953125 3202.12451171875 2175.763671875 3203.479736328125 2175.864013671875 3203.553466796875 L 2176.270751953125 3203.87890625 L 2176.780517578125 3203.865966796875 L 2225.457763671875 3203.865966796875 L 2225.457763671875 3239.97802734375 L 2176.780517578125 3239.97802734375 C 2176.02880859375 3239.97802734375 2175.408935546875 3240.389892578125 2174.173828125 3241.210205078125 C 2172.61865234375 3242.243408203125 2170.015869140625 3243.97265625 2166.16064453125 3245.421875 C 2161.477294921875 3247.182373046875 2156.1572265625 3248.0751953125 2150.34814453125 3248.0751953125 Z"/><path class="w" d="M 2108.881591796875 3199.5 C 2108.871826171875 3199.5 2107.86328125 3199.510009765625 2106.732421875 3199.734130859375 C 2105.408447265625 3199.996337890625 2104.80517578125 3200.3759765625 2104.641357421875 3200.53662109375 C 2104.65478515625 3200.706787109375 2104.768310546875 3201.338623046875 2105.65478515625 3202.56396484375 C 2106.15869140625 3203.2607421875 2107.66064453125 3204.629150390625 2112.059326171875 3205.967041015625 C 2115.089111328125 3206.888427734375 2118.959716796875 3207.633544921875 2123.56396484375 3208.18115234375 C 2131.5498046875 3209.131103515625 2138.985107421875 3209.144287109375 2139.058837890625 3209.144287109375 L 2140.33349609375 3209.144287109375 L 2141.21826171875 3210.061767578125 C 2141.307861328125 3210.154541015625 2142.11376953125 3211.001708984375 2142.82666015625 3212.132080078125 C 2144.459228515625 3214.721435546875 2144.2177734375 3216.640380859375 2143.7275390625 3217.79443359375 C 2143.380859375 3218.60986328125 2142.620849609375 3219.723388671875 2140.967529296875 3220.396240234375 C 2139.9501953125 3220.810302734375 2138.708984375 3221.011474609375 2137.1728515625 3221.011474609375 C 2133.18603515625 3221.011474609375 2123.574951171875 3220.540283203125 2112.8408203125 3218.774169921875 C 2106.79296875 3217.779052734375 2101.25 3216.511962890625 2096.365234375 3215.0078125 C 2090.415283203125 3213.17578125 2085.394775390625 3210.972412109375 2081.443603515625 3208.459228515625 C 2074.158935546875 3203.826171875 2070.1416015625 3203.134521484375 2068.39501953125 3203.134521484375 C 2067.6474609375 3203.134521484375 2066.669677734375 3203.25830078125 2066.2578125 3203.84814453125 C 2065.739990234375 3204.589599609375 2065.590087890625 3206.481201171875 2066.722412109375 3209.5673828125 C 2067.50830078125 3211.710693359375 2069.329833984375 3214.0859375 2072.135986328125 3216.627197265625 C 2075.155517578125 3219.361328125 2079.233642578125 3222.1982421875 2084.257080078125 3225.05908203125 C 2089.456787109375 3228.020263671875 2095.635986328125 3230.985595703125 2102.622802734375 3233.873046875 C 2109.865966796875 3236.8662109375 2117.98486328125 3239.777587890625 2126.754150390625 3242.526611328125 C 2135.32421875 3245.212890625 2143.262451171875 3246.5751953125 2150.34814453125 3246.5751953125 C 2155.976318359375 3246.5751953125 2161.118896484375 3245.71484375 2165.6328125 3244.017822265625 C 2169.328125 3242.628662109375 2171.74462890625 3241.023193359375 2173.343994140625 3239.9609375 C 2174.68798828125 3239.06787109375 2175.575927734375 3238.47802734375 2176.780517578125 3238.47802734375 L 2223.957763671875 3238.47802734375 L 2223.957763671875 3205.365966796875 L 2176.780517578125 3205.365966796875 L 2175.769775390625 3205.418212890625 L 2174.95458984375 3204.7470703125 C 2174.758056640625 3204.60986328125 2172.912109375 3203.36962890625 2168.771728515625 3202.140625 C 2164.71337890625 3200.93603515625 2157.5732421875 3199.5 2146.603515625 3199.5 L 2108.881591796875 3199.5 M 2108.881591796875 3196.5 L 2146.603515625 3196.5 C 2169.236083984375 3196.5 2176.780517578125 3202.365966796875 2176.780517578125 3202.365966796875 L 2226.957763671875 3202.365966796875 L 2226.957763671875 3241.47802734375 L 2176.780517578125 3241.47802734375 C 2175.405517578125 3241.47802734375 2168.167236328125 3249.5751953125 2150.34814453125 3249.5751953125 C 2143.726318359375 3249.5751953125 2135.64306640625 3248.456787109375 2125.856689453125 3245.38916015625 C 2089.73583984375 3234.06640625 2067.73681640625 3221.046630859375 2063.90576171875 3210.600341796875 C 2061.584228515625 3204.27197265625 2063.186279296875 3200.134521484375 2068.39501953125 3200.134521484375 C 2071.783935546875 3200.134521484375 2076.7001953125 3201.886962890625 2083.053466796875 3205.927734375 C 2099.17041015625 3216.17919921875 2129.62841796875 3218.011474609375 2137.1728515625 3218.011474609375 C 2144.717529296875 3218.011474609375 2139.058837890625 3212.144287109375 2139.058837890625 3212.144287109375 C 2139.058837890625 3212.144287109375 2108.881591796875 3212.144287109375 2103.223876953125 3204.322265625 C 2097.5654296875 3196.5 2108.881591796875 3196.5 2108.881591796875 3196.5 Z"/></g></g></g></g></svg>