<svg xmlns="http://www.w3.org/2000/svg" xmlns:xlink="http://www.w3.org/1999/xlink" width="363.09" height="300" viewBox="0 0 363.09 300"><defs><style>.a,.f{fill:#fff;}.a{stroke:#707070;}.b,.e{fill:none;}.b{stroke:#fac24a;stroke-linecap:round;stroke-width:5px;}.c,.i,.j{fill:#fac24a;}.c{stroke:#020202;}.c,.h{stroke-width:3px;}.d{fill:#1d1d1d;}.g{clip-path:url(#a);}.h{fill:#f7e1d6;stroke:#000;stroke-miterlimit:10;}.j{font-size:32px;font-family:ArialRoundedMTBold, Arial Rounded MT Bold;}</style><clipPath id="a"><rect class="a" width="101" height="137" transform="translate(1325.351 2877.795)"/></clipPath></defs><g transform="translate(-177.548 -1754.5)"><g transform="translate(-999.351 -1005.795)"><path class="b" d="M1504.749,2931.795a147.512,147.512,0,0,1-291.87,0"/><path class="b" d="M1214.7,2878.795a147.525,147.525,0,0,1,288.234,0"/><path class="b" d="M1180.351,2831.792l33.341,52.272,50.586-32.266"/><path class="b" d="M1536.589,2980.339l-30.091-54.208-52.459,29.121"/><g transform="translate(-2 18)"><g transform="translate(-0.605 -1.738)"><rect class="c" width="65" height="125" rx="10" transform="translate(1325.955 2839.032)"/><path class="d" d="M0,0H33a0,0,0,0,1,0,0V3a5,5,0,0,1-5,5H5A5,5,0,0,1,0,3V0A0,0,0,0,1,0,0Z" transform="translate(1341.955 2838.533)"/></g><g transform="translate(1003.351 982.795)"><g transform="translate(340 1873)"><rect class="e" width="30" height="30"/><path class="f" d="M3.75,4.167h22.5A3.75,3.75,0,0,1,30,7.917v15a3.75,3.75,0,0,1-3.75,3.75H3.75A3.75,3.75,0,0,1,0,22.917v-15A3.75,3.75,0,0,1,3.75,4.167Zm0,2.5A1.25,1.25,0,0,0,2.5,7.917v15a1.25,1.25,0,0,0,1.25,1.25h22.5a1.25,1.25,0,0,0,1.25-1.25v-15a1.25,1.25,0,0,0-1.25-1.25Z" transform="translate(0 2.083)"/><path class="f" d="M.833,15h27.5V12.5H.833Z" transform="translate(0.417 6.25)"/><path class="f" d="M7.5,7.083v-2.5a1.25,1.25,0,0,1,1.25-1.25h7.5a1.25,1.25,0,0,1,1.25,1.25v2.5H20v-2.5A3.75,3.75,0,0,0,16.25.833H8.75A3.75,3.75,0,0,0,5,4.583v2.5Z" transform="translate(2.5 0.417)"/><path class="f" d="M13.333,12.083v5a1.25,1.25,0,1,0,2.5,0v-5a1.25,1.25,0,1,0-2.5,0Z" transform="translate(6.667 5.417)"/><path class="f" d="M5,12.083v5a1.25,1.25,0,1,0,2.5,0v-5a1.25,1.25,0,1,0-2.5,0Z" transform="translate(2.5 5.417)"/></g></g><g class="g"><path class="h" d="M1338,2963s-.1,12.907,16.452,25.453A35.76,35.76,0,0,1,1369,3019h54s-10.331-23.825-10.666-44.913S1410,2914,1375,2894c0,0-15-8-16,0s7,18,12,20,13,16,13,16-16,11-8,33Z" transform="translate(-1.254 -0.387)"/></g></g></g><path class="i" d="M749-20a19.875,19.875,0,0,1-7.785-1.572,19.933,19.933,0,0,1-6.357-4.286,19.934,19.934,0,0,1-4.286-6.357A19.875,19.875,0,0,1,729-40a19.837,19.837,0,0,1,3.938-11.918,20.08,20.08,0,0,1,4.412-4.34,19.9,19.9,0,0,1,5.586-2.806A19.99,19.99,0,0,0,742-53a19.873,19.873,0,0,0,1.572,7.785,19.934,19.934,0,0,0,4.286,6.357,19.934,19.934,0,0,0,6.357,4.286A19.876,19.876,0,0,0,762-33a20,20,0,0,0,6.064-.936,19.9,19.9,0,0,1-2.806,5.587,20.077,20.077,0,0,1-4.339,4.412A19.837,19.837,0,0,1,749-20Z" transform="translate(-466 1991)"/><text class="j" transform="translate(359 1802)"><tspan x="-42.68" y="0">24HR</tspan></text></g></svg>