<svg xmlns="http://www.w3.org/2000/svg" xmlns:xlink="http://www.w3.org/1999/xlink" width="80" height="80" viewBox="0 0 80 80"><defs><style>.a{fill:#fae4ca;}.b,.f{fill:#fff;}.c{clip-path:url(#a);}.d{fill:#fce1d5;}.e{fill:#fd9463;}.f{stroke:#000;stroke-miterlimit:10;}.g,.l{fill:none;stroke:#ba8888;stroke-linecap:round;stroke-linejoin:round;}.h{fill:#e5b7b7;}.i{fill:#e5815a;}.j{fill:#848484;}.k{fill:#ba8888;}.l{stroke-width:0.5px;}</style><clipPath id="a"><path class="a" d="M40,0A40,40,0,1,0,80,40,40,40,0,0,0,40,0Z" transform="translate(0 0)"/></clipPath></defs><path class="b" d="M40,0A40,40,0,1,0,80,40,40,40,0,0,0,40,0Z" transform="translate(0 0)"/><g class="c" transform="translate(0 0)"><g transform="translate(1233.951 -1425.862)"><path class="d" d="M-1205,1594l5.511,1.968v34.247H-1205Z" transform="translate(-8.035 -98.25)"/><path class="e" d="M-1159.274,1545.6s-8.236-3.457-24.982.483c0,0-8.644,4.4-8.955,17.947l.083,35.986h38.184v-52.463S-1155.338,1546.69-1159.274,1545.6Z" transform="translate(-15.183 -68.054)"/><path class="e" d="M-1189.293,1547.618s-11.015.938-13.771,6.842a60.053,60.053,0,0,0-3.936,11.416l5.9,2.031Z" transform="translate(-6.822 -70.126)"/><path class="d" d="M-1162.011,1516.841v7.873s-.394,4.33,4.724,3.937,9.448-3.543,9.448-5.9.787-15.746.787-15.746Z" transform="translate(-34.097 -45.497)"/><circle class="d" cx="13.384" cy="13.384" r="13.384" transform="translate(-1205.931 1440.297)"/><circle class="d" cx="6.102" cy="6.102" r="6.102" transform="translate(-1186.661 1505.591)"/><circle class="d" cx="3.641" cy="3.641" r="3.641" transform="translate(-1207.327 1495.16)"/><path class="f" d="M-1136.924,1632.529" transform="translate(-49.313 -121.612)"/><path class="d" d="M-1187,1599.9l22.347,15.326,5.011-10.011s-13.826-4.525-23.028-11.219Z" transform="translate(-18.949 -98.25)"/><path class="d" d="M-1186.184,1494.3s1.969,12,5.911,16.085,13.45-.842,15.035-3.13,4.142-9.863,4.142-9.863Z" transform="translate(-19.444 -37.793)"/><path class="g" d="M-1167.979,1504.886s-1.41,5.457.069,4.788" transform="translate(-30.115 -44.215)"/><path class="g" d="M-1164.546,1522.666s3.556-.246,3.909-2.71" transform="translate(-32.564 -53.353)"/><path d="M-1201.761,1450.481a4.542,4.542,0,0,0,5.549-.556s5.3,2.172,8-.7c0,0-.13,1.174,1.826,1.39,0,0,.089,5.339,3.915,6.555,0,0-.058-1.123,1.968-3.149,2.362-2.362,7.5,2.3,4.33,5.9s-2.992,7.727,2.484,4.77,4.866-8.174,4.171-9.043,5.548-9.111-3.112-13.834c0,0,.394-5.117-6.3-5.9-3.981-.468-3.535-3.677-9.448-3.936s-5.342,3.309-8.66,2.756c-4.724-.787-6.3,2.755-7.086,6.692-.416,2.079-6.3,0-5.117,7.086C-1208.5,1452.94-1201.761,1450.481-1201.761,1450.481Z" transform="translate(-5.369 0)"/><path class="h" d="M-1162,1526.047s7.48-.52,11.023-4.224a29.91,29.91,0,0,0,2.254-4.221s1.6-.124,1.442,0-.153,8.783-9.994,9.964a33.154,33.154,0,0,1-4.724.19Z" transform="translate(-34.108 -51.893)"/><path class="i" d="M-1093.245,1558s1.76,12.794-2.755,19.485v30.9h7.676l-.215-39.02a16.564,16.564,0,0,0-.551-4.179C-1089.79,1562.57-1091.169,1559.3-1093.245,1558Z" transform="translate(-74.127 -76.421)"/><path class="d" d="M-1131.457,1589l-3.543,13.778,10.677,6.158s4.675-10.882,5.069-13.244Z" transform="translate(-50.48 -95.218)"/><path class="e" d="M-1122.068,1546.835s8.277,2.072,10.8,7.748-4.365,17.952-4.365,17.952l-14.368-9.126s7.479-11.022,7.479-13.778C-1122.521,1549.631-1123.19,1546.4-1122.068,1546.835Z" transform="translate(-53.511 -69.627)"/><path class="i" d="M-1128.647,1589.86-1130,1589s.207,1.427,1.088,1.894Z" transform="translate(-53.511 -95.218)"/><path class="e" d="M-1127.714,1585.56" transform="translate(-54.897 -93.132)"/><path class="i" d="M-1124,1561.418s5.9-8.192,4.921-11.927C-1119.079,1549.49-1118.883,1551.888-1124,1561.418Z" transform="translate(-57.149 -71.261)"/><rect class="j" width="7.391" height="15.909" rx="2.02" transform="translate(-1204.368 1493.544) rotate(152.596)"/><path class="d" d="M-1200.6,1589.255s-4.33-4.724-3.543-5.9,5.117-4.33,6.692-3.543c0,0,1.509,4.144,3.116,5.024l-3.983,5.391A4.525,4.525,0,0,1-1200.6,1589.255Z" transform="translate(-8.494 -89.569)"/><path class="d" d="M-1186.153,1580.027c.095-.065,1.279-5.452-2.263-7.027,0,0-1.264.168-.829,2.643S-1186.646,1580.361-1186.153,1580.027Z" transform="translate(-17.533 -85.516)"/><rect class="d" width="8.301" height="1.761" rx="0.88" transform="translate(-1211.799 1485.422) rotate(60)"/><rect class="d" width="6.882" height="1.761" rx="0.88" transform="matrix(0.486, 0.874, -0.874, 0.486, -1209.296, 1485.363)"/><rect class="d" width="6.885" height="1.508" rx="0.754" transform="translate(-1213.244 1487.15) rotate(60)"/><rect class="d" width="6.006" height="1.328" rx="0.664" transform="translate(-1213.793 1489.995) rotate(60)"/><path class="d" d="M-1190.927,1573.069l1.052-1.208A3.549,3.549,0,0,0-1192,1571Z" transform="translate(-15.917 -84.304)"/><path class="h" d="M-1127.433,1591l-.281,1.895,11.144,9.127,1.24-3.372Z" transform="translate(-54.897 -96.431)"/><path class="g" d="M-1162.32,1484.565a3.319,3.319,0,0,0-2.551,1.026" transform="translate(-32.367 -31.891)"/><path class="g" d="M-1180.551,1487.521a3.321,3.321,0,0,0-2.691-.566" transform="translate(-21.228 -33.287)"/><ellipse class="k" cx="1.151" cy="2.072" rx="1.151" ry="2.072" transform="translate(-1196.255 1456.789) rotate(-5.923)"/><ellipse class="k" cx="1.151" cy="2.072" rx="1.151" ry="2.072" transform="translate(-1203.758 1458.235) rotate(-10.291)"/><g transform="translate(-1188.034 1453.288)"><circle class="d" cx="4.468" cy="4.468" r="4.468"/><path class="h" d="M-1135.074,1490.948s3.5-.341,3.42,2.394a2.562,2.562,0,0,1-2.736,2.736s-1.684-.2-1.368-1.71c.313-1.5,2.052-.684,2.052-.684a1.022,1.022,0,0,0,1.371.032c.394-.394.057-1.08-.394-1.574A4.12,4.12,0,0,0-1135.074,1490.948Z" transform="translate(1138.038 -1489.044)"/><path class="l" d="M-1135.074,1490.948s3.5-.341,3.42,2.394a2.562,2.562,0,0,1-2.736,2.736s-1.684-.2-1.368-1.71c.313-1.5,2.052-.684,2.052-.684" transform="translate(1138.038 -1489.044)"/></g><path class="h" d="M-1205,1594.688l1.386.477a16.26,16.26,0,0,0,2.746,3.361l.518.323,0,1.477s-3.473-1.862-4.654-4.082Z" transform="translate(-8.035 -98.667)"/></g></g></svg>