<svg xmlns="http://www.w3.org/2000/svg" xmlns:xlink="http://www.w3.org/1999/xlink" width="202" height="110" viewBox="0 0 202 110"><defs><style>.a{fill:#fff;stroke:#707070;}.b{clip-path:url(#a);}.c{fill:#f9f9f9;stroke:#1d1d1d;stroke-width:10px;}.d{fill:#1d1d1d;}.e{fill:rgba(255,255,255,0.3);stroke:#fac24a;}.f{fill:#979797;font-size:12px;font-family:NotoSansCJKtc-Regular, Noto Sans CJK TC;}.g{fill:none;}.h{fill:#fac24a;fill-rule:evenodd;}.i{stroke:none;}</style><clipPath id="a"><rect class="a" width="202" height="110" transform="translate(872 3975)"/></clipPath></defs><g class="b" transform="translate(-872 -3975)"><g transform="translate(744 3029.369)"><rect class="c" width="176" height="336" rx="20" transform="translate(140 959.631)"/><rect class="d" width="87" height="10" rx="5" transform="translate(184 959.631)"/><g transform="translate(-717 -2703.369)"><g class="e" transform="translate(872 3686)"><rect class="i" width="149" height="26" rx="10"/><rect class="g" x="0.5" y="0.5" width="148" height="25" rx="9.5"/></g><text class="f" transform="translate(907 3704)"><tspan x="0" y="0">搜尋小程序</tspan></text><g transform="translate(881 3691)"><rect class="g" width="16" height="16" transform="translate(0 0)"/><path class="h" d="M11.829,10.886l3.828,3.828a.667.667,0,0,1-.943.943l-3.828-3.828a6.666,6.666,0,1,1,.943-.943ZM6.667,12A5.333,5.333,0,1,0,1.333,6.667,5.333,5.333,0,0,0,6.667,12Z"/></g></g></g></g></svg>