<svg xmlns="http://www.w3.org/2000/svg" width="200" height="42" viewBox="0 0 200 42"><defs><style>.a,.b{fill:#fac24a;}.a{opacity:0.303;}.c{fill:#979797;opacity:0.3;}</style></defs><g transform="translate(-540 -3704)"><path class="a" d="M2,0H198a2,2,0,0,1,2,2V30a12,12,0,0,1-12,12H12A12,12,0,0,1,0,30V2A2,2,0,0,1,2,0Z" transform="translate(540 3704)"/><path class="b" d="M171,11a14.9,14.9,0,0,1-10.607-4.393A14.9,14.9,0,0,1,156-4a14.9,14.9,0,0,1,4.393-10.607A14.9,14.9,0,0,1,171-19a14.9,14.9,0,0,1,10.607,4.393A14.9,14.9,0,0,1,186-4a14.9,14.9,0,0,1-4.393,10.606A14.9,14.9,0,0,1,171,11Zm5.834-25.1h0l-8.721,8.438L165.167,6.1l8.719-8.437,2.947-11.77Z" transform="translate(494 3729)"/><path class="c" d="M158.515-7.358A5.98,5.98,0,0,1,156-12c0-3.866,4.477-7,10-7s10,3.134,10,7-4.477,7-10,7a13.852,13.852,0,0,1-3.515-.445l-3.969,3.637Z" transform="translate(394 3736)"/><path class="c" d="M158.515-7.358A5.98,5.98,0,0,1,156-12c0-3.866,4.477-7,10-7s10,3.134,10,7-4.477,7-10,7a13.852,13.852,0,0,1-3.515-.445l-3.969,3.637Z" transform="translate(444 3736)"/><path class="c" d="M158.515-7.358A5.98,5.98,0,0,1,156-12c0-3.866,4.477-7,10-7s10,3.134,10,7-4.477,7-10,7a13.852,13.852,0,0,1-3.515-.445l-3.969,3.637Z" transform="translate(554 3736)"/></g></svg>