<svg xmlns="http://www.w3.org/2000/svg" xmlns:xlink="http://www.w3.org/1999/xlink" width="471.665" height="696" viewBox="0 0 471.665 696"><defs><style>.a{fill:#fff;stroke:#707070;}.b{fill:#fac24a;stroke-width:10px;}.b,.d{stroke:#1d1d1d;}.c{fill:#1d1d1d;}.d{fill:#fce1d5;stroke-miterlimit:10;stroke-width:6px;}.e{clip-path:url(#a);}</style><clipPath id="a"><rect class="a" width="337" height="369" transform="translate(566 1408)"/></clipPath></defs><g transform="translate(-431.335 -964)"><g transform="translate(356 9)"><rect class="b" width="288" height="550" rx="35" transform="translate(140 960)"/><rect class="c" width="142" height="16" rx="7" transform="translate(213 960)"/></g><g transform="translate(0 -117)"><path class="d" d="M1773.629,486.065s-44.756-24.412-54.928-6.1-2.034,40.687,20.344,52.893,34.584,11.25,34.584,11.25Z" transform="translate(-1279.927 887.588)"/><path class="d" d="M1722.178,508.012s-16.275,20.344,0,42.722,50.859,18.309,50.859,18.309,16.275-4.069,14.241-24.412-6.844-31.223-29.869-35.955S1728.281,503.943,1722.178,508.012Z" transform="translate(-1277.335 920.569)"/><path class="d" d="M1724.29,545.781s-10.172,22.378,4.069,38.653,28.481,18.309,44.756,14.24c8.137-4.069,12.206-14.24,12.206-22.378s2.034-28.481-18.309-36.618C1752.771,537.644,1732.427,533.575,1724.29,545.781Z" transform="translate(-1271.31 954.002)"/><path class="d" d="M1728.852,580.706s-8.138,22.378,4.069,36.618,28.481,12.206,36.618,8.138c6.1-10.172,8.138-12.206,6.1-32.55S1757.332,568.5,1749.2,568.5,1732.92,574.6,1728.852,580.706Z" transform="translate(-1265.7 986.211)"/></g><g class="e" transform="translate(0 -117)"><path class="d" d="M1971.833,514.6s59,14.241,75.271,85.443S2059.311,716,2057.276,740.416s14.24,48.825,14.24,48.825l40.688,87.477H1898.6s-10.172-28.481-14.241-36.618-8.137-14.241-16.274-18.309-69.168-56.962-75.272-77.306a83.817,83.817,0,0,0-18.309-32.55h147.252s53.9,7.647,53.9-32.174c0-13.006-3.378-8.734-25.747-30.881-30.737-29.586,13.793-50.639-35.031-81.384,0,0-20.344,38.653-50.859,32.55s-24.412-22.378-24.412-22.378,26.447-38.653,28.481-50.859,16.274-36.618,46.79-28.481S1971.833,514.6,1971.833,514.6Z" transform="translate(-1208.734 922.944)"/></g></g></svg>