<svg xmlns="http://www.w3.org/2000/svg" xmlns:xlink="http://www.w3.org/1999/xlink" width="485.142" height="712.446" viewBox="0 0 485.142 712.446"><defs><style>.a,.p,.r,.v{fill:none;}.b{fill:#e5b7b7;}.c{fill:#fce1d5;}.d{fill:#e57f23;}.e{fill:#fff;}.f{fill:#fac24a;}.g{fill:#848484;}.h{fill:#efefef;}.i{fill:#646464;}.j{fill:#cecece;}.k{fill:#f27a88;}.l{fill:#505050;}.m{fill:#d36272;}.n{clip-path:url(#a);}.o{opacity:0.6;fill:url(#b);}.p,.r,.v{stroke:#ba8888;stroke-linecap:round;stroke-linejoin:round;}.p{stroke-width:2px;}.q{fill:#ba8888;}.r{stroke-width:1.5px;}.s{fill:#9e9e9e;}.t{fill:#2463e6;}.u{fill:#0034a0;}</style><clipPath id="a"><path class="a" d="M1052.753,220.941c-4.336-2.319-9.556-5.438-12.967-6.114-15.452-5.147-48.634-10.261-94.9-6.03-2.578.388-2.505-.133-8.36,1C919.808,213.157,911.8,222,911.8,222l-50.657,43.389,46.187,50.167,11.327-8.572c-2.592,27.637-4.856,51.086-4.856,51.086s-7.361,63.3-8.1,65.962c0,0,123.118,14.895,152.336,4.71.367-13.4-.209-70.406-3.66-123.439l.2.328,5.4,9.7s19.158-25.751,34.337-36.991C1070.708,235.142,1060.625,226.462,1052.753,220.941Z"/></clipPath><linearGradient id="b" x1="0.976" y1="0.906" x2="0.256" y2="0.427" gradientUnits="objectBoundingBox"><stop offset="0" stop-color="#fff"/><stop offset="1" stop-color="#fff" stop-opacity="0"/></linearGradient></defs><g transform="translate(-693 -589)"><g transform="translate(-48 557)"><circle class="a" cx="11.35" cy="11.35" r="11.35" transform="translate(965.162 154.32)"/><line class="b" x1="7" y1="1" transform="translate(1019 179)"/><path class="c" d="M926.81,424.528s73.362,104.77,101.247,138.358c41.081-17.765,46.227-19.768,46.227-19.768L1019.245,419.96Z"/><path class="c" d="M1028.057,562.886s12.512,76.307,74.309,123.954l3.747,5.06,30.531-18.992-62.36-129.79Z"/><circle class="c" cx="27.066" cy="27.066" r="27.066" transform="translate(1025.849 525.85)"/><path class="b" d="M1028.556,565.3s1.869,10.361,2.67,11c6.8-5.363,46.317-34.731,46.317-34.731s-1.142-3.552-2.329-4.092C1072.027,538.939,1028.556,565.3,1028.556,565.3Z"/><path class="c" d="M906.5,544.457,940.4,423.9l96.276-4.758s-75.247,140.087-98.112,172.687C914,554.577,906.5,544.457,906.5,544.457Z"/><path class="c" d="M823.566,564.291s69.569,28.032,87.354,34.146L903.1,546.374s-30.856-22.952-68.794-12.335C828.2,551.824,823.566,564.291,823.566,564.291Z"/><circle class="c" cx="28.812" cy="28.812" r="28.812" transform="translate(890.365 542.118)"/><path class="c" d="M905,545"/><path class="c" d="M905,545"/><path class="b" d="M944.852,584.008c-6.149,12.008-15.6,13.921-15.6,13.921C933.5,583.858,901.076,545,901.076,545l2.52,1.691,1.954-1.153Z"/><path class="d" d="M1103.536,693.256c4.24,8.25,22.774,43.778,30.928,50.7l90.836-55.506-7.646-8.591a8.927,8.927,0,0,0-6.622-2.577c-7.078.261-22.3,1.216-33.51,4.69-13.352,4.137-33.476-8.668-37.935-11.674a1.711,1.711,0,0,0-1.846-.04l-33.434,20.29A2.064,2.064,0,0,0,1103.536,693.256Z"/><circle class="e" cx="9.579" cy="9.579" r="9.579" transform="translate(1124.494 689.767)"/><path class="e" d="M1219.07,681.257s-74.69,44.118-91.566,54.081c1.362,3.151,6.842,9.108,6.842,9.108l91.8-56.041Z"/><rect class="f" width="107.378" height="1" transform="matrix(0.847, -0.531, 0.531, 0.847, 1131.242, 741.088)"/><circle class="f" cx="7.095" cy="7.095" r="7.095" transform="translate(1126.977 692.25)"/><path class="d" d="M840.385,528.384c-8.716-4.851-43.014-23.641-53.489-24.863l-44.851,96.543,11.126,2.913a8.923,8.923,0,0,0,6.94-1.525c5.747-4.14,17.886-13.368,25.295-22.475,8.432-10.365,30.6-11.272,37.231-11.306a3.03,3.03,0,0,0,2.73-1.751l16.06-34.294A2.494,2.494,0,0,0,840.385,528.384Z"/><circle class="e" cx="9.579" cy="9.579" r="9.579" transform="translate(802.364 530.855)"/><path class="e" d="M751.216,602.595s37.722-78.115,46.248-95.761c-2.881-1.867-10.743-3.79-10.743-3.79l-45.354,97.521Z"/><rect class="f" width="107.378" height="1" transform="matrix(0.411, -0.912, 0.912, 0.411, 746.12, 601.597)"/><circle class="f" cx="7.095" cy="7.095" r="7.095" transform="translate(804.847 533.338)"/><path class="c" d="M1081.614,265.413l42.522,66.445L1092,367l-43.975-73.7Z"/><ellipse class="c" cx="13.044" cy="12.613" rx="13.044" ry="12.613" transform="translate(1128.912 236.703)"/><path class="c" d="M1129.671,247.3,1090.589,340.9l41.644,22.089,22.286-108.168Z"/><circle class="c" cx="23.573" cy="23.573" r="23.573" transform="translate(827.565 298.438)"/><path class="c" d="M834.055,305.777l41.229-43.527,33.461,40.306-40.246,35.4Z"/><path class="b" d="M1094.629,285.751s-18.314,18.113-29.972,35.681l-3.846-6.506s12.366-22.051,29.778-35.488Z"/><path class="b" d="M854.688,283.994s31.91,8.324,34.611,35.665l11.728-10.315L866.351,271.68Z"/><path class="e" d="M1104.861,690.209a86.321,86.321,0,0,0-10-9.5c6.138-4.713,34.5-22.965,34.5-22.965l6.545,13.622Z"/><path class="e" d="M841,532.491,825.93,565.242l7.536,2.821,16.709-36.688S843,531.983,841,532.491Z"/><path class="c" d="M1154.367,255.554S1157,239,1160,234s-1-35-11-37-8,55-8,55Z"/><path class="b" d="M1153,263s4-24,7-29-1-35-11-37-23,60-23,60Z"/><path class="b" d="M1111.829,222S1111,239,1115,245a16.4,16.4,0,0,0,10,7l-4.51-15Z"/><rect class="g" width="31" height="66" rx="8.242" transform="translate(1118 189)"/><ellipse class="c" cx="23.914" cy="23.668" rx="23.914" ry="23.668" transform="translate(1087 328.664)"/><rect class="h" width="24" height="57.613" rx="4.259" transform="translate(1120.845 192.208)"/><path class="b" d="M1106.119,303.7A106.212,106.212,0,0,0,1094,344s-5-9,0-29C1098,305,1104.238,303.41,1106.119,303.7Z"/><rect class="c" width="16" height="10" rx="5" transform="translate(1144 200)"/><rect class="c" width="25" height="10" rx="5" transform="translate(1144 210)"/><rect class="c" width="23" height="10" rx="5" transform="translate(1143 221)"/><rect class="c" width="20" height="10" rx="5" transform="translate(1143 232)"/><rect class="c" width="23" height="10" rx="5" transform="translate(1120.702 213.876) rotate(81.296)"/><path class="i" d="M912.284,428.266l127.747,2.428L949.949,589,905,545l18.245-71.82S908.6,459.917,912.284,428.266Z"/><path class="i" d="M1028.55,430.979l49.8,104.677L1024,568.063l-85.139-95.446s-30.252-10.743-25.172-49.457C952.318,426.5,1028.55,430.979,1028.55,430.979Z"/><rect class="j" width="3" height="145.435" transform="matrix(0.85, -0.527, 0.527, 0.85, 971.515, 430.255)"/><path class="k" d="M1052.782,221.611c-4.337-2.319-9.557-5.438-12.968-6.114-15.452-5.147-48.634-10.262-94.9-6.03-2.579.387-2.506-.133-8.36,1-16.721,3.359-24.728,12.2-24.728,12.2l-50.657,43.389,46.187,50.167,11.328-8.572c-2.592,27.637-4.856,51.086-4.856,51.086s-7.362,63.3-8.1,65.962c0,0,123.117,14.895,152.335,4.71.367-13.4-.209-70.406-3.659-123.439l.2.328,5.4,9.7s19.158-25.751,34.337-36.991C1070.736,235.811,1060.654,227.132,1052.782,221.611Z"/><path class="l" d="M911.763,434.84s-2.6,24.372,11.628,38.867,59.529,57.35,59.529,57.35l3.144-5.525-74.3-90.692"/><path class="l" d="M1039.032,432.45s-7.238.489-10.135.52l4.807,8.843Z"/><path class="m" d="M919,307s11-9,19-28c0,0-8.223,30.576-21.112,47.788C916.888,326.788,919,308,919,307Z"/><g class="n"><circle class="f" cx="3" cy="3" r="3" transform="translate(864.995 198.999)"/><circle class="f" cx="3" cy="3" r="3" transform="translate(884.995 198.999)"/><circle class="f" cx="3" cy="3" r="3" transform="translate(875 199)"/><circle class="f" cx="3" cy="3" r="3" transform="translate(894.995 198.999)"/><circle class="f" cx="3" cy="3" r="3" transform="translate(904.995 198.999)"/><circle class="f" cx="3" cy="3" r="3" transform="translate(914.995 198.999)"/><circle class="f" cx="3" cy="3" r="3" transform="translate(924.995 198.999)"/><circle class="f" cx="3" cy="3" r="3" transform="translate(934.995 198.999)"/><circle class="f" cx="3" cy="3" r="3" transform="translate(944.995 198.999)"/><circle class="f" cx="3" cy="3" r="3" transform="translate(954.995 198.999)"/><circle class="f" cx="3" cy="3" r="3" transform="translate(964.995 198.999)"/><circle class="f" cx="3" cy="3" r="3" transform="translate(974.995 198.999)"/><circle class="f" cx="3" cy="3" r="3" transform="translate(984.995 198.999)"/><circle class="f" cx="3" cy="3" r="3" transform="translate(994.995 198.999)"/><circle class="f" cx="3" cy="3" r="3" transform="translate(1004.995 198.999)"/><circle class="f" cx="3" cy="3" r="3" transform="translate(1014.995 198.999)"/><circle class="f" cx="3" cy="3" r="3" transform="translate(1024.995 198.999)"/><circle class="f" cx="3" cy="3" r="3" transform="translate(1034.995 198.999)"/><circle class="f" cx="3" cy="3" r="3" transform="translate(1044.995 198.999)"/><circle class="f" cx="3" cy="3" r="3" transform="translate(1054.995 198.999)"/><circle class="f" cx="3" cy="3" r="3" transform="translate(1064.995 198.999)"/><circle class="f" cx="3" cy="3" r="3" transform="translate(1074.995 198.999)"/><circle class="f" cx="3" cy="3" r="3" transform="translate(1084.995 198.999)"/><circle class="f" cx="3" cy="3" r="3" transform="translate(864.995 208.999)"/><circle class="f" cx="3" cy="3" r="3" transform="translate(884.995 208.999)"/><circle class="f" cx="3" cy="3" r="3" transform="translate(875 209)"/><circle class="f" cx="3" cy="3" r="3" transform="translate(894.995 208.999)"/><circle class="f" cx="3" cy="3" r="3" transform="translate(904.995 208.999)"/><circle class="f" cx="3" cy="3" r="3" transform="translate(914.995 208.999)"/><circle class="f" cx="3" cy="3" r="3" transform="translate(924.995 208.999)"/><circle class="f" cx="3" cy="3" r="3" transform="translate(934.995 208.999)"/><circle class="f" cx="3" cy="3" r="3" transform="translate(944.995 208.999)"/><circle class="f" cx="3" cy="3" r="3" transform="translate(954.995 208.999)"/><circle class="f" cx="3" cy="3" r="3" transform="translate(964.995 208.999)"/><circle class="f" cx="3" cy="3" r="3" transform="translate(974.995 208.999)"/><circle class="f" cx="3" cy="3" r="3" transform="translate(984.995 208.999)"/><circle class="f" cx="3" cy="3" r="3" transform="translate(994.995 208.999)"/><circle class="f" cx="3" cy="3" r="3" transform="translate(1004.995 208.999)"/><circle class="f" cx="3" cy="3" r="3" transform="translate(1014.995 208.999)"/><circle class="f" cx="3" cy="3" r="3" transform="translate(1024.995 208.999)"/><circle class="f" cx="3" cy="3" r="3" transform="translate(1034.995 208.999)"/><circle class="f" cx="3" cy="3" r="3" transform="translate(1044.995 208.999)"/><circle class="f" cx="3" cy="3" r="3" transform="translate(1054.995 208.999)"/><circle class="f" cx="3" cy="3" r="3" transform="translate(1064.995 208.999)"/><circle class="f" cx="3" cy="3" r="3" transform="translate(1074.995 208.999)"/><circle class="f" cx="3" cy="3" r="3" transform="translate(1084.995 208.999)"/><circle class="f" cx="3" cy="3" r="3" transform="translate(864.995 218.999)"/><circle class="f" cx="3" cy="3" r="3" transform="translate(884.995 218.999)"/><circle class="f" cx="3" cy="3" r="3" transform="translate(875 219)"/><circle class="f" cx="3" cy="3" r="3" transform="translate(894.995 218.999)"/><circle class="f" cx="3" cy="3" r="3" transform="translate(904.995 218.999)"/><circle class="f" cx="3" cy="3" r="3" transform="translate(914.995 218.999)"/><circle class="f" cx="3" cy="3" r="3" transform="translate(924.995 218.999)"/><circle class="f" cx="3" cy="3" r="3" transform="translate(934.995 218.999)"/><circle class="f" cx="3" cy="3" r="3" transform="translate(944.995 218.999)"/><circle class="f" cx="3" cy="3" r="3" transform="translate(954.995 218.999)"/><circle class="f" cx="3" cy="3" r="3" transform="translate(964.995 218.999)"/><circle class="f" cx="3" cy="3" r="3" transform="translate(974.995 218.999)"/><circle class="f" cx="3" cy="3" r="3" transform="translate(984.995 218.999)"/><circle class="f" cx="3" cy="3" r="3" transform="translate(994.995 218.999)"/><circle class="f" cx="3" cy="3" r="3" transform="translate(1004.995 218.999)"/><circle class="f" cx="3" cy="3" r="3" transform="translate(1014.995 218.999)"/><circle class="f" cx="3" cy="3" r="3" transform="translate(1024.995 218.999)"/><circle class="f" cx="3" cy="3" r="3" transform="translate(1034.995 218.999)"/><circle class="f" cx="3" cy="3" r="3" transform="translate(1044.995 218.999)"/><circle class="f" cx="3" cy="3" r="3" transform="translate(1054.995 218.999)"/><circle class="f" cx="3" cy="3" r="3" transform="translate(1064.995 218.999)"/><circle class="f" cx="3" cy="3" r="3" transform="translate(1074.995 218.999)"/><circle class="f" cx="3" cy="3" r="3" transform="translate(1084.995 218.999)"/><circle class="f" cx="3" cy="3" r="3" transform="translate(864.995 228.999)"/><circle class="f" cx="3" cy="3" r="3" transform="translate(884.995 228.999)"/><circle class="f" cx="3" cy="3" r="3" transform="translate(875 229)"/><circle class="f" cx="3" cy="3" r="3" transform="translate(894.995 228.999)"/><circle class="f" cx="3" cy="3" r="3" transform="translate(904.995 228.999)"/><circle class="f" cx="3" cy="3" r="3" transform="translate(914.995 228.999)"/><circle class="f" cx="3" cy="3" r="3" transform="translate(924.995 228.999)"/><circle class="f" cx="3" cy="3" r="3" transform="translate(934.995 228.999)"/><circle class="f" cx="3" cy="3" r="3" transform="translate(944.995 228.999)"/><circle class="f" cx="3" cy="3" r="3" transform="translate(954.995 228.999)"/><circle class="f" cx="3" cy="3" r="3" transform="translate(964.995 228.999)"/><circle class="f" cx="3" cy="3" r="3" transform="translate(974.995 228.999)"/><circle class="f" cx="3" cy="3" r="3" transform="translate(984.995 228.999)"/><circle class="f" cx="3" cy="3" r="3" transform="translate(994.995 228.999)"/><circle class="f" cx="3" cy="3" r="3" transform="translate(1004.995 228.999)"/><circle class="f" cx="3" cy="3" r="3" transform="translate(1014.995 228.999)"/><circle class="f" cx="3" cy="3" r="3" transform="translate(1024.995 228.999)"/><circle class="f" cx="3" cy="3" r="3" transform="translate(1034.995 228.999)"/><circle class="f" cx="3" cy="3" r="3" transform="translate(1044.995 228.999)"/><circle class="f" cx="3" cy="3" r="3" transform="translate(1054.995 228.999)"/><circle class="f" cx="3" cy="3" r="3" transform="translate(1064.995 228.999)"/><circle class="f" cx="3" cy="3" r="3" transform="translate(1074.995 228.999)"/><circle class="f" cx="3" cy="3" r="3" transform="translate(1084.995 228.999)"/><circle class="f" cx="3" cy="3" r="3" transform="translate(864.995 238.999)"/><circle class="f" cx="3" cy="3" r="3" transform="translate(884.995 238.999)"/><circle class="f" cx="3" cy="3" r="3" transform="translate(875 239)"/><circle class="f" cx="3" cy="3" r="3" transform="translate(894.995 238.999)"/><circle class="f" cx="3" cy="3" r="3" transform="translate(904.995 238.999)"/><circle class="f" cx="3" cy="3" r="3" transform="translate(914.995 238.999)"/><circle class="f" cx="3" cy="3" r="3" transform="translate(924.995 238.999)"/><circle class="f" cx="3" cy="3" r="3" transform="translate(934.995 238.999)"/><circle class="f" cx="3" cy="3" r="3" transform="translate(944.995 238.999)"/><circle class="f" cx="3" cy="3" r="3" transform="translate(954.995 238.999)"/><circle class="f" cx="3" cy="3" r="3" transform="translate(964.995 238.999)"/><circle class="f" cx="3" cy="3" r="3" transform="translate(974.995 238.999)"/><circle class="f" cx="3" cy="3" r="3" transform="translate(984.995 238.999)"/><circle class="f" cx="3" cy="3" r="3" transform="translate(994.995 238.999)"/><circle class="f" cx="3" cy="3" r="3" transform="translate(1004.995 238.999)"/><circle class="f" cx="3" cy="3" r="3" transform="translate(1014.995 238.999)"/><circle class="f" cx="3" cy="3" r="3" transform="translate(1024.995 238.999)"/><circle class="f" cx="3" cy="3" r="3" transform="translate(1034.995 238.999)"/><circle class="f" cx="3" cy="3" r="3" transform="translate(1044.995 238.999)"/><circle class="f" cx="3" cy="3" r="3" transform="translate(1054.995 238.999)"/><circle class="f" cx="3" cy="3" r="3" transform="translate(1064.995 238.999)"/><circle class="f" cx="3" cy="3" r="3" transform="translate(1074.995 238.999)"/><circle class="f" cx="3" cy="3" r="3" transform="translate(1084.995 238.999)"/><circle class="f" cx="3" cy="3" r="3" transform="translate(864.995 248.999)"/><circle class="f" cx="3" cy="3" r="3" transform="translate(884.995 248.999)"/><circle class="f" cx="3" cy="3" r="3" transform="translate(875 249)"/><circle class="f" cx="3" cy="3" r="3" transform="translate(894.995 248.999)"/><circle class="f" cx="3" cy="3" r="3" transform="translate(904.995 248.999)"/><circle class="f" cx="3" cy="3" r="3" transform="translate(914.995 248.999)"/><circle class="f" cx="3" cy="3" r="3" transform="translate(924.995 248.999)"/><circle class="f" cx="3" cy="3" r="3" transform="translate(934.995 248.999)"/><circle class="f" cx="3" cy="3" r="3" transform="translate(944.995 248.999)"/><circle class="f" cx="3" cy="3" r="3" transform="translate(954.995 248.999)"/><circle class="f" cx="3" cy="3" r="3" transform="translate(964.995 248.999)"/><circle class="f" cx="3" cy="3" r="3" transform="translate(974.995 248.999)"/><circle class="f" cx="3" cy="3" r="3" transform="translate(984.995 248.999)"/><circle class="f" cx="3" cy="3" r="3" transform="translate(994.995 248.999)"/><circle class="f" cx="3" cy="3" r="3" transform="translate(1004.995 248.999)"/><circle class="f" cx="3" cy="3" r="3" transform="translate(1014.995 248.999)"/><circle class="f" cx="3" cy="3" r="3" transform="translate(1024.995 248.999)"/><circle class="f" cx="3" cy="3" r="3" transform="translate(1034.995 248.999)"/><circle class="f" cx="3" cy="3" r="3" transform="translate(1044.995 248.999)"/><circle class="f" cx="3" cy="3" r="3" transform="translate(1054.995 248.999)"/><circle class="f" cx="3" cy="3" r="3" transform="translate(1064.995 248.999)"/><circle class="f" cx="3" cy="3" r="3" transform="translate(1074.995 248.999)"/><circle class="f" cx="3" cy="3" r="3" transform="translate(1084.995 248.999)"/><circle class="f" cx="3" cy="3" r="3" transform="translate(864.995 258.999)"/><circle class="f" cx="3" cy="3" r="3" transform="translate(884.995 258.999)"/><circle class="f" cx="3" cy="3" r="3" transform="translate(875 259)"/><circle class="f" cx="3" cy="3" r="3" transform="translate(894.995 258.999)"/><circle class="f" cx="3" cy="3" r="3" transform="translate(904.995 258.999)"/><circle class="f" cx="3" cy="3" r="3" transform="translate(914.995 258.999)"/><circle class="f" cx="3" cy="3" r="3" transform="translate(924.995 258.999)"/><circle class="f" cx="3" cy="3" r="3" transform="translate(934.995 258.999)"/><circle class="f" cx="3" cy="3" r="3" transform="translate(944.995 258.999)"/><circle class="f" cx="3" cy="3" r="3" transform="translate(954.995 258.999)"/><circle class="f" cx="3" cy="3" r="3" transform="translate(964.995 258.999)"/><circle class="f" cx="3" cy="3" r="3" transform="translate(974.995 258.999)"/><circle class="f" cx="3" cy="3" r="3" transform="translate(984.995 258.999)"/><circle class="f" cx="3" cy="3" r="3" transform="translate(994.995 258.999)"/><circle class="f" cx="3" cy="3" r="3" transform="translate(1004.995 258.999)"/><circle class="f" cx="3" cy="3" r="3" transform="translate(1014.995 258.999)"/><circle class="f" cx="3" cy="3" r="3" transform="translate(1024.995 258.999)"/><circle class="f" cx="3" cy="3" r="3" transform="translate(1034.995 258.999)"/><circle class="f" cx="3" cy="3" r="3" transform="translate(1044.995 258.999)"/><circle class="f" cx="3" cy="3" r="3" transform="translate(1054.995 258.999)"/><circle class="f" cx="3" cy="3" r="3" transform="translate(1064.995 258.999)"/><circle class="f" cx="3" cy="3" r="3" transform="translate(1074.995 258.999)"/><circle class="f" cx="3" cy="3" r="3" transform="translate(1084.995 258.999)"/><circle class="f" cx="3" cy="3" r="3" transform="translate(864.995 268.999)"/><circle class="f" cx="3" cy="3" r="3" transform="translate(884.995 268.999)"/><circle class="f" cx="3" cy="3" r="3" transform="translate(875 269)"/><circle class="f" cx="3" cy="3" r="3" transform="translate(894.995 268.999)"/><circle class="f" cx="3" cy="3" r="3" transform="translate(904.995 268.999)"/><circle class="f" cx="3" cy="3" r="3" transform="translate(914.995 268.999)"/><circle class="f" cx="3" cy="3" r="3" transform="translate(924.995 268.999)"/><circle class="f" cx="3" cy="3" r="3" transform="translate(934.995 268.999)"/><circle class="f" cx="3" cy="3" r="3" transform="translate(944.995 268.999)"/><circle class="f" cx="3" cy="3" r="3" transform="translate(954.995 268.999)"/><circle class="f" cx="3" cy="3" r="3" transform="translate(964.995 268.999)"/><circle class="f" cx="3" cy="3" r="3" transform="translate(974.995 268.999)"/><circle class="f" cx="3" cy="3" r="3" transform="translate(984.995 268.999)"/><circle class="f" cx="3" cy="3" r="3" transform="translate(994.995 268.999)"/><circle class="f" cx="3" cy="3" r="3" transform="translate(1004.995 268.999)"/><circle class="f" cx="3" cy="3" r="3" transform="translate(1014.995 268.999)"/><circle class="f" cx="3" cy="3" r="3" transform="translate(1024.995 268.999)"/><circle class="f" cx="3" cy="3" r="3" transform="translate(1034.995 268.999)"/><circle class="f" cx="3" cy="3" r="3" transform="translate(1044.995 268.999)"/><circle class="f" cx="3" cy="3" r="3" transform="translate(1054.995 268.999)"/><circle class="f" cx="3" cy="3" r="3" transform="translate(1064.995 268.999)"/><circle class="f" cx="3" cy="3" r="3" transform="translate(1074.995 268.999)"/><circle class="f" cx="3" cy="3" r="3" transform="translate(1084.995 268.999)"/><circle class="f" cx="3" cy="3" r="3" transform="translate(864.995 278.999)"/><circle class="f" cx="3" cy="3" r="3" transform="translate(884.995 278.999)"/><circle class="f" cx="3" cy="3" r="3" transform="translate(875 279)"/><circle class="f" cx="3" cy="3" r="3" transform="translate(894.995 278.999)"/><circle class="f" cx="3" cy="3" r="3" transform="translate(904.995 278.999)"/><circle class="f" cx="3" cy="3" r="3" transform="translate(914.995 278.999)"/><circle class="f" cx="3" cy="3" r="3" transform="translate(924.995 278.999)"/><circle class="f" cx="3" cy="3" r="3" transform="translate(934.995 278.999)"/><circle class="f" cx="3" cy="3" r="3" transform="translate(944.995 278.999)"/><circle class="f" cx="3" cy="3" r="3" transform="translate(954.995 278.999)"/><circle class="f" cx="3" cy="3" r="3" transform="translate(964.995 278.999)"/><circle class="f" cx="3" cy="3" r="3" transform="translate(974.995 278.999)"/><circle class="f" cx="3" cy="3" r="3" transform="translate(984.995 278.999)"/><circle class="f" cx="3" cy="3" r="3" transform="translate(994.995 278.999)"/><circle class="f" cx="3" cy="3" r="3" transform="translate(1004.995 278.999)"/><circle class="f" cx="3" cy="3" r="3" transform="translate(1014.995 278.999)"/><circle class="f" cx="3" cy="3" r="3" transform="translate(1024.995 278.999)"/><circle class="f" cx="3" cy="3" r="3" transform="translate(1034.995 278.999)"/><circle class="f" cx="3" cy="3" r="3" transform="translate(1044.995 278.999)"/><circle class="f" cx="3" cy="3" r="3" transform="translate(1054.995 278.999)"/><circle class="f" cx="3" cy="3" r="3" transform="translate(1064.995 278.999)"/><circle class="f" cx="3" cy="3" r="3" transform="translate(1074.995 278.999)"/><circle class="f" cx="3" cy="3" r="3" transform="translate(1084.995 278.999)"/><circle class="f" cx="3" cy="3" r="3" transform="translate(864.995 288.999)"/><circle class="f" cx="3" cy="3" r="3" transform="translate(884.995 288.999)"/><circle class="f" cx="3" cy="3" r="3" transform="translate(875 289)"/><circle class="f" cx="3" cy="3" r="3" transform="translate(894.995 288.999)"/><circle class="f" cx="3" cy="3" r="3" transform="translate(904.995 288.999)"/><circle class="f" cx="3" cy="3" r="3" transform="translate(914.995 288.999)"/><circle class="f" cx="3" cy="3" r="3" transform="translate(924.995 288.999)"/><circle class="f" cx="3" cy="3" r="3" transform="translate(934.995 288.999)"/><circle class="f" cx="3" cy="3" r="3" transform="translate(944.995 288.999)"/><circle class="f" cx="3" cy="3" r="3" transform="translate(954.995 288.999)"/><circle class="f" cx="3" cy="3" r="3" transform="translate(964.995 288.999)"/><circle class="f" cx="3" cy="3" r="3" transform="translate(974.995 288.999)"/><circle class="f" cx="3" cy="3" r="3" transform="translate(984.995 288.999)"/><circle class="f" cx="3" cy="3" r="3" transform="translate(994.995 288.999)"/><circle class="f" cx="3" cy="3" r="3" transform="translate(1004.995 288.999)"/><circle class="f" cx="3" cy="3" r="3" transform="translate(1014.995 288.999)"/><circle class="f" cx="3" cy="3" r="3" transform="translate(1024.995 288.999)"/><circle class="f" cx="3" cy="3" r="3" transform="translate(1034.995 288.999)"/><circle class="f" cx="3" cy="3" r="3" transform="translate(1044.995 288.999)"/><circle class="f" cx="3" cy="3" r="3" transform="translate(1054.995 288.999)"/><circle class="f" cx="3" cy="3" r="3" transform="translate(1064.995 288.999)"/><circle class="f" cx="3" cy="3" r="3" transform="translate(1074.995 288.999)"/><circle class="f" cx="3" cy="3" r="3" transform="translate(1084.995 288.999)"/><circle class="f" cx="3" cy="3" r="3" transform="translate(864.995 298.999)"/><circle class="f" cx="3" cy="3" r="3" transform="translate(884.995 298.999)"/><circle class="f" cx="3" cy="3" r="3" transform="translate(875 299)"/><circle class="f" cx="3" cy="3" r="3" transform="translate(894.995 298.999)"/><circle class="f" cx="3" cy="3" r="3" transform="translate(904.995 298.999)"/><circle class="f" cx="3" cy="3" r="3" transform="translate(914.995 298.999)"/><circle class="f" cx="3" cy="3" r="3" transform="translate(924.995 298.999)"/><circle class="f" cx="3" cy="3" r="3" transform="translate(934.995 298.999)"/><circle class="f" cx="3" cy="3" r="3" transform="translate(944.995 298.999)"/><circle class="f" cx="3" cy="3" r="3" transform="translate(954.995 298.999)"/><circle class="f" cx="3" cy="3" r="3" transform="translate(964.995 298.999)"/><circle class="f" cx="3" cy="3" r="3" transform="translate(974.995 298.999)"/><circle class="f" cx="3" cy="3" r="3" transform="translate(984.995 298.999)"/><circle class="f" cx="3" cy="3" r="3" transform="translate(994.995 298.999)"/><circle class="f" cx="3" cy="3" r="3" transform="translate(1004.995 298.999)"/><circle class="f" cx="3" cy="3" r="3" transform="translate(1014.995 298.999)"/><circle class="f" cx="3" cy="3" r="3" transform="translate(1024.995 298.999)"/><circle class="f" cx="3" cy="3" r="3" transform="translate(1034.995 298.999)"/><circle class="f" cx="3" cy="3" r="3" transform="translate(1044.995 298.999)"/><circle class="f" cx="3" cy="3" r="3" transform="translate(1054.995 298.999)"/><circle class="f" cx="3" cy="3" r="3" transform="translate(1064.995 298.999)"/><circle class="f" cx="3" cy="3" r="3" transform="translate(1074.995 298.999)"/><circle class="f" cx="3" cy="3" r="3" transform="translate(1084.995 298.999)"/><circle class="f" cx="3" cy="3" r="3" transform="translate(864.995 308.999)"/><circle class="f" cx="3" cy="3" r="3" transform="translate(884.995 308.999)"/><circle class="f" cx="3" cy="3" r="3" transform="translate(875 309)"/><circle class="f" cx="3" cy="3" r="3" transform="translate(894.995 308.999)"/><circle class="f" cx="3" cy="3" r="3" transform="translate(904.995 308.999)"/><circle class="f" cx="3" cy="3" r="3" transform="translate(914.995 308.999)"/><circle class="f" cx="3" cy="3" r="3" transform="translate(924.995 308.999)"/><circle class="f" cx="3" cy="3" r="3" transform="translate(934.995 308.999)"/><circle class="f" cx="3" cy="3" r="3" transform="translate(944.995 308.999)"/><circle class="f" cx="3" cy="3" r="3" transform="translate(954.995 308.999)"/><circle class="f" cx="3" cy="3" r="3" transform="translate(964.995 308.999)"/><circle class="f" cx="3" cy="3" r="3" transform="translate(974.995 308.999)"/><circle class="f" cx="3" cy="3" r="3" transform="translate(984.995 308.999)"/><circle class="f" cx="3" cy="3" r="3" transform="translate(994.995 308.999)"/><circle class="f" cx="3" cy="3" r="3" transform="translate(1004.995 308.999)"/><circle class="f" cx="3" cy="3" r="3" transform="translate(1014.995 308.999)"/><circle class="f" cx="3" cy="3" r="3" transform="translate(1024.995 308.999)"/><circle class="f" cx="3" cy="3" r="3" transform="translate(1034.995 308.999)"/><circle class="f" cx="3" cy="3" r="3" transform="translate(1044.995 308.999)"/><circle class="f" cx="3" cy="3" r="3" transform="translate(1054.995 308.999)"/><circle class="f" cx="3" cy="3" r="3" transform="translate(1064.995 308.999)"/><circle class="f" cx="3" cy="3" r="3" transform="translate(1074.995 308.999)"/><circle class="f" cx="3" cy="3" r="3" transform="translate(1084.995 308.999)"/><circle class="f" cx="3" cy="3" r="3" transform="translate(864.995 318.999)"/><circle class="f" cx="3" cy="3" r="3" transform="translate(884.995 318.999)"/><circle class="f" cx="3" cy="3" r="3" transform="translate(875 319)"/><circle class="f" cx="3" cy="3" r="3" transform="translate(894.995 318.999)"/><circle class="f" cx="3" cy="3" r="3" transform="translate(904.995 318.999)"/><circle class="f" cx="3" cy="3" r="3" transform="translate(914.995 318.999)"/><circle class="f" cx="3" cy="3" r="3" transform="translate(924.995 318.999)"/><circle class="f" cx="3" cy="3" r="3" transform="translate(934.995 318.999)"/><circle class="f" cx="3" cy="3" r="3" transform="translate(944.995 318.999)"/><circle class="f" cx="3" cy="3" r="3" transform="translate(954.995 318.999)"/><circle class="f" cx="3" cy="3" r="3" transform="translate(964.995 318.999)"/><circle class="f" cx="3" cy="3" r="3" transform="translate(974.995 318.999)"/><circle class="f" cx="3" cy="3" r="3" transform="translate(984.995 318.999)"/><circle class="f" cx="3" cy="3" r="3" transform="translate(994.995 318.999)"/><circle class="f" cx="3" cy="3" r="3" transform="translate(1004.995 318.999)"/><circle class="f" cx="3" cy="3" r="3" transform="translate(1014.995 318.999)"/><circle class="f" cx="3" cy="3" r="3" transform="translate(1024.995 318.999)"/><circle class="f" cx="3" cy="3" r="3" transform="translate(1034.995 318.999)"/><circle class="f" cx="3" cy="3" r="3" transform="translate(1044.995 318.999)"/><circle class="f" cx="3" cy="3" r="3" transform="translate(1054.995 318.999)"/><circle class="f" cx="3" cy="3" r="3" transform="translate(1064.995 318.999)"/><circle class="f" cx="3" cy="3" r="3" transform="translate(1074.995 318.999)"/><circle class="f" cx="3" cy="3" r="3" transform="translate(1084.995 318.999)"/><circle class="f" cx="3" cy="3" r="3" transform="translate(864.995 328.999)"/><circle class="f" cx="3" cy="3" r="3" transform="translate(884.995 328.999)"/><circle class="f" cx="3" cy="3" r="3" transform="translate(875 329)"/><circle class="f" cx="3" cy="3" r="3" transform="translate(894.995 328.999)"/><circle class="f" cx="3" cy="3" r="3" transform="translate(904.995 328.999)"/><circle class="f" cx="3" cy="3" r="3" transform="translate(914.995 328.999)"/><circle class="f" cx="3" cy="3" r="3" transform="translate(924.995 328.999)"/><circle class="f" cx="3" cy="3" r="3" transform="translate(934.995 328.999)"/><circle class="f" cx="3" cy="3" r="3" transform="translate(944.995 328.999)"/><circle class="f" cx="3" cy="3" r="3" transform="translate(954.995 328.999)"/><circle class="f" cx="3" cy="3" r="3" transform="translate(964.995 328.999)"/><circle class="f" cx="3" cy="3" r="3" transform="translate(974.995 328.999)"/><circle class="f" cx="3" cy="3" r="3" transform="translate(984.995 328.999)"/><circle class="f" cx="3" cy="3" r="3" transform="translate(994.995 328.999)"/><circle class="f" cx="3" cy="3" r="3" transform="translate(1004.995 328.999)"/><circle class="f" cx="3" cy="3" r="3" transform="translate(1014.995 328.999)"/><circle class="f" cx="3" cy="3" r="3" transform="translate(1024.995 328.999)"/><circle class="f" cx="3" cy="3" r="3" transform="translate(1034.995 328.999)"/><circle class="f" cx="3" cy="3" r="3" transform="translate(1044.995 328.999)"/><circle class="f" cx="3" cy="3" r="3" transform="translate(1054.995 328.999)"/><circle class="f" cx="3" cy="3" r="3" transform="translate(1064.995 328.999)"/><circle class="f" cx="3" cy="3" r="3" transform="translate(1074.995 328.999)"/><circle class="f" cx="3" cy="3" r="3" transform="translate(1084.995 328.999)"/><circle class="f" cx="3" cy="3" r="3" transform="translate(864.995 338.999)"/><circle class="f" cx="3" cy="3" r="3" transform="translate(884.995 338.999)"/><circle class="f" cx="3" cy="3" r="3" transform="translate(875 339)"/><circle class="f" cx="3" cy="3" r="3" transform="translate(894.995 338.999)"/><circle class="f" cx="3" cy="3" r="3" transform="translate(904.995 338.999)"/><circle class="f" cx="3" cy="3" r="3" transform="translate(914.995 338.999)"/><circle class="f" cx="3" cy="3" r="3" transform="translate(924.995 338.999)"/><circle class="f" cx="3" cy="3" r="3" transform="translate(934.995 338.999)"/><circle class="f" cx="3" cy="3" r="3" transform="translate(944.995 338.999)"/><circle class="f" cx="3" cy="3" r="3" transform="translate(954.995 338.999)"/><circle class="f" cx="3" cy="3" r="3" transform="translate(964.995 338.999)"/><circle class="f" cx="3" cy="3" r="3" transform="translate(974.995 338.999)"/><circle class="f" cx="3" cy="3" r="3" transform="translate(984.995 338.999)"/><circle class="f" cx="3" cy="3" r="3" transform="translate(994.995 338.999)"/><circle class="f" cx="3" cy="3" r="3" transform="translate(1004.995 338.999)"/><circle class="f" cx="3" cy="3" r="3" transform="translate(1014.995 338.999)"/><circle class="f" cx="3" cy="3" r="3" transform="translate(1024.995 338.999)"/><circle class="f" cx="3" cy="3" r="3" transform="translate(1034.995 338.999)"/><circle class="f" cx="3" cy="3" r="3" transform="translate(1044.995 338.999)"/><circle class="f" cx="3" cy="3" r="3" transform="translate(1054.995 338.999)"/><circle class="f" cx="3" cy="3" r="3" transform="translate(1064.995 338.999)"/><circle class="f" cx="3" cy="3" r="3" transform="translate(1074.995 338.999)"/><circle class="f" cx="3" cy="3" r="3" transform="translate(1084.995 338.999)"/><circle class="f" cx="3" cy="3" r="3" transform="translate(864.995 348.999)"/><circle class="f" cx="3" cy="3" r="3" transform="translate(884.995 348.999)"/><circle class="f" cx="3" cy="3" r="3" transform="translate(875 349)"/><circle class="f" cx="3" cy="3" r="3" transform="translate(894.995 348.999)"/><circle class="f" cx="3" cy="3" r="3" transform="translate(904.995 348.999)"/><circle class="f" cx="3" cy="3" r="3" transform="translate(914.995 348.999)"/><circle class="f" cx="3" cy="3" r="3" transform="translate(924.995 348.999)"/><circle class="f" cx="3" cy="3" r="3" transform="translate(934.995 348.999)"/><circle class="f" cx="3" cy="3" r="3" transform="translate(944.995 348.999)"/><circle class="f" cx="3" cy="3" r="3" transform="translate(954.995 348.999)"/><circle class="f" cx="3" cy="3" r="3" transform="translate(964.995 348.999)"/><circle class="f" cx="3" cy="3" r="3" transform="translate(974.995 348.999)"/><circle class="f" cx="3" cy="3" r="3" transform="translate(984.995 348.999)"/><circle class="f" cx="3" cy="3" r="3" transform="translate(994.995 348.999)"/><circle class="f" cx="3" cy="3" r="3" transform="translate(1004.995 348.999)"/><circle class="f" cx="3" cy="3" r="3" transform="translate(1014.995 348.999)"/><circle class="f" cx="3" cy="3" r="3" transform="translate(1024.995 348.999)"/><circle class="f" cx="3" cy="3" r="3" transform="translate(1034.995 348.999)"/><circle class="f" cx="3" cy="3" r="3" transform="translate(1044.995 348.999)"/><circle class="f" cx="3" cy="3" r="3" transform="translate(1054.995 348.999)"/><circle class="f" cx="3" cy="3" r="3" transform="translate(1064.995 348.999)"/><circle class="f" cx="3" cy="3" r="3" transform="translate(1074.995 348.999)"/><circle class="f" cx="3" cy="3" r="3" transform="translate(1084.995 348.999)"/><circle class="f" cx="3" cy="3" r="3" transform="translate(864.995 358.999)"/><circle class="f" cx="3" cy="3" r="3" transform="translate(884.995 358.999)"/><circle class="f" cx="3" cy="3" r="3" transform="translate(875 359)"/><circle class="f" cx="3" cy="3" r="3" transform="translate(894.995 358.999)"/><circle class="f" cx="3" cy="3" r="3" transform="translate(904.995 358.999)"/><circle class="f" cx="3" cy="3" r="3" transform="translate(914.995 358.999)"/><circle class="f" cx="3" cy="3" r="3" transform="translate(924.995 358.999)"/><circle class="f" cx="3" cy="3" r="3" transform="translate(934.995 358.999)"/><circle class="f" cx="3" cy="3" r="3" transform="translate(944.995 358.999)"/><circle class="f" cx="3" cy="3" r="3" transform="translate(954.995 358.999)"/><circle class="f" cx="3" cy="3" r="3" transform="translate(964.995 358.999)"/><circle class="f" cx="3" cy="3" r="3" transform="translate(974.995 358.999)"/><circle class="f" cx="3" cy="3" r="3" transform="translate(984.995 358.999)"/><circle class="f" cx="3" cy="3" r="3" transform="translate(994.995 358.999)"/><circle class="f" cx="3" cy="3" r="3" transform="translate(1004.995 358.999)"/><circle class="f" cx="3" cy="3" r="3" transform="translate(1014.995 358.999)"/><circle class="f" cx="3" cy="3" r="3" transform="translate(1024.995 358.999)"/><circle class="f" cx="3" cy="3" r="3" transform="translate(1034.995 358.999)"/><circle class="f" cx="3" cy="3" r="3" transform="translate(1044.995 358.999)"/><circle class="f" cx="3" cy="3" r="3" transform="translate(1054.995 358.999)"/><circle class="f" cx="3" cy="3" r="3" transform="translate(1064.995 358.999)"/><circle class="f" cx="3" cy="3" r="3" transform="translate(1074.995 358.999)"/><circle class="f" cx="3" cy="3" r="3" transform="translate(1084.995 358.999)"/><circle class="f" cx="3" cy="3" r="3" transform="translate(864.995 368.999)"/><circle class="f" cx="3" cy="3" r="3" transform="translate(884.995 368.999)"/><circle class="f" cx="3" cy="3" r="3" transform="translate(875 369)"/><circle class="f" cx="3" cy="3" r="3" transform="translate(894.995 368.999)"/><circle class="f" cx="3" cy="3" r="3" transform="translate(904.995 368.999)"/><circle class="f" cx="3" cy="3" r="3" transform="translate(914.995 368.999)"/><circle class="f" cx="3" cy="3" r="3" transform="translate(924.995 368.999)"/><circle class="f" cx="3" cy="3" r="3" transform="translate(934.995 368.999)"/><circle class="f" cx="3" cy="3" r="3" transform="translate(944.995 368.999)"/><circle class="f" cx="3" cy="3" r="3" transform="translate(954.995 368.999)"/><circle class="f" cx="3" cy="3" r="3" transform="translate(964.995 368.999)"/><circle class="f" cx="3" cy="3" r="3" transform="translate(974.995 368.999)"/><circle class="f" cx="3" cy="3" r="3" transform="translate(984.995 368.999)"/><circle class="f" cx="3" cy="3" r="3" transform="translate(994.995 368.999)"/><circle class="f" cx="3" cy="3" r="3" transform="translate(1004.995 368.999)"/><circle class="f" cx="3" cy="3" r="3" transform="translate(1014.995 368.999)"/><circle class="f" cx="3" cy="3" r="3" transform="translate(1024.995 368.999)"/><circle class="f" cx="3" cy="3" r="3" transform="translate(1034.995 368.999)"/><circle class="f" cx="3" cy="3" r="3" transform="translate(1044.995 368.999)"/><circle class="f" cx="3" cy="3" r="3" transform="translate(1054.995 368.999)"/><circle class="f" cx="3" cy="3" r="3" transform="translate(1064.995 368.999)"/><circle class="f" cx="3" cy="3" r="3" transform="translate(1074.995 368.999)"/><circle class="f" cx="3" cy="3" r="3" transform="translate(1084.995 368.999)"/><circle class="f" cx="3" cy="3" r="3" transform="translate(864.995 378.999)"/><circle class="f" cx="3" cy="3" r="3" transform="translate(884.995 378.999)"/><circle class="f" cx="3" cy="3" r="3" transform="translate(875 379)"/><circle class="f" cx="3" cy="3" r="3" transform="translate(894.995 378.999)"/><circle class="f" cx="3" cy="3" r="3" transform="translate(904.995 378.999)"/><circle class="f" cx="3" cy="3" r="3" transform="translate(914.995 378.999)"/><circle class="f" cx="3" cy="3" r="3" transform="translate(924.995 378.999)"/><circle class="f" cx="3" cy="3" r="3" transform="translate(934.995 378.999)"/><circle class="f" cx="3" cy="3" r="3" transform="translate(944.995 378.999)"/><circle class="f" cx="3" cy="3" r="3" transform="translate(954.995 378.999)"/><circle class="f" cx="3" cy="3" r="3" transform="translate(964.995 378.999)"/><circle class="f" cx="3" cy="3" r="3" transform="translate(974.995 378.999)"/><circle class="f" cx="3" cy="3" r="3" transform="translate(984.995 378.999)"/><circle class="f" cx="3" cy="3" r="3" transform="translate(994.995 378.999)"/><circle class="f" cx="3" cy="3" r="3" transform="translate(1004.995 378.999)"/><circle class="f" cx="3" cy="3" r="3" transform="translate(1014.995 378.999)"/><circle class="f" cx="3" cy="3" r="3" transform="translate(1024.995 378.999)"/><circle class="f" cx="3" cy="3" r="3" transform="translate(1034.995 378.999)"/><circle class="f" cx="3" cy="3" r="3" transform="translate(1044.995 378.999)"/><circle class="f" cx="3" cy="3" r="3" transform="translate(1054.995 378.999)"/><circle class="f" cx="3" cy="3" r="3" transform="translate(1064.995 378.999)"/><circle class="f" cx="3" cy="3" r="3" transform="translate(1074.995 378.999)"/><circle class="f" cx="3" cy="3" r="3" transform="translate(1084.995 378.999)"/><circle class="f" cx="3" cy="3" r="3" transform="translate(864.995 388.999)"/><circle class="f" cx="3" cy="3" r="3" transform="translate(884.995 388.999)"/><circle class="f" cx="3" cy="3" r="3" transform="translate(875 389)"/><circle class="f" cx="3" cy="3" r="3" transform="translate(894.995 388.999)"/><circle class="f" cx="3" cy="3" r="3" transform="translate(904.995 388.999)"/><circle class="f" cx="3" cy="3" r="3" transform="translate(914.995 388.999)"/><circle class="f" cx="3" cy="3" r="3" transform="translate(924.995 388.999)"/><circle class="f" cx="3" cy="3" r="3" transform="translate(934.995 388.999)"/><circle class="f" cx="3" cy="3" r="3" transform="translate(944.995 388.999)"/><circle class="f" cx="3" cy="3" r="3" transform="translate(954.995 388.999)"/><circle class="f" cx="3" cy="3" r="3" transform="translate(964.995 388.999)"/><circle class="f" cx="3" cy="3" r="3" transform="translate(974.995 388.999)"/><circle class="f" cx="3" cy="3" r="3" transform="translate(984.995 388.999)"/><circle class="f" cx="3" cy="3" r="3" transform="translate(994.995 388.999)"/><circle class="f" cx="3" cy="3" r="3" transform="translate(1004.995 388.999)"/><circle class="f" cx="3" cy="3" r="3" transform="translate(1014.995 388.999)"/><circle class="f" cx="3" cy="3" r="3" transform="translate(1024.995 388.999)"/><circle class="f" cx="3" cy="3" r="3" transform="translate(1034.995 388.999)"/><circle class="f" cx="3" cy="3" r="3" transform="translate(1044.995 388.999)"/><circle class="f" cx="3" cy="3" r="3" transform="translate(1054.995 388.999)"/><circle class="f" cx="3" cy="3" r="3" transform="translate(1064.995 388.999)"/><circle class="f" cx="3" cy="3" r="3" transform="translate(1074.995 388.999)"/><circle class="f" cx="3" cy="3" r="3" transform="translate(1084.995 388.999)"/><circle class="f" cx="3" cy="3" r="3" transform="translate(864.995 398.999)"/><circle class="f" cx="3" cy="3" r="3" transform="translate(884.995 398.999)"/><circle class="f" cx="3" cy="3" r="3" transform="translate(875 399)"/><circle class="f" cx="3" cy="3" r="3" transform="translate(894.995 398.999)"/><circle class="f" cx="3" cy="3" r="3" transform="translate(904.995 398.999)"/><circle class="f" cx="3" cy="3" r="3" transform="translate(914.995 398.999)"/><circle class="f" cx="3" cy="3" r="3" transform="translate(924.995 398.999)"/><circle class="f" cx="3" cy="3" r="3" transform="translate(934.995 398.999)"/><circle class="f" cx="3" cy="3" r="3" transform="translate(944.995 398.999)"/><circle class="f" cx="3" cy="3" r="3" transform="translate(954.995 398.999)"/><circle class="f" cx="3" cy="3" r="3" transform="translate(964.995 398.999)"/><circle class="f" cx="3" cy="3" r="3" transform="translate(974.995 398.999)"/><circle class="f" cx="3" cy="3" r="3" transform="translate(984.995 398.999)"/><circle class="f" cx="3" cy="3" r="3" transform="translate(994.995 398.999)"/><circle class="f" cx="3" cy="3" r="3" transform="translate(1004.995 398.999)"/><circle class="f" cx="3" cy="3" r="3" transform="translate(1014.995 398.999)"/><circle class="f" cx="3" cy="3" r="3" transform="translate(1024.995 398.999)"/><circle class="f" cx="3" cy="3" r="3" transform="translate(1034.995 398.999)"/><circle class="f" cx="3" cy="3" r="3" transform="translate(1044.995 398.999)"/><circle class="f" cx="3" cy="3" r="3" transform="translate(1054.995 398.999)"/><circle class="f" cx="3" cy="3" r="3" transform="translate(1064.995 398.999)"/><circle class="f" cx="3" cy="3" r="3" transform="translate(1074.995 398.999)"/><circle class="f" cx="3" cy="3" r="3" transform="translate(1084.995 398.999)"/><circle class="f" cx="3" cy="3" r="3" transform="translate(864.995 408.999)"/><circle class="f" cx="3" cy="3" r="3" transform="translate(884.995 408.999)"/><circle class="f" cx="3" cy="3" r="3" transform="translate(875 409)"/><circle class="f" cx="3" cy="3" r="3" transform="translate(894.995 408.999)"/><circle class="f" cx="3" cy="3" r="3" transform="translate(904.995 408.999)"/><circle class="f" cx="3" cy="3" r="3" transform="translate(914.995 408.999)"/><circle class="f" cx="3" cy="3" r="3" transform="translate(924.995 408.999)"/><circle class="f" cx="3" cy="3" r="3" transform="translate(934.995 408.999)"/><circle class="f" cx="3" cy="3" r="3" transform="translate(944.995 408.999)"/><circle class="f" cx="3" cy="3" r="3" transform="translate(954.995 408.999)"/><circle class="f" cx="3" cy="3" r="3" transform="translate(964.995 408.999)"/><circle class="f" cx="3" cy="3" r="3" transform="translate(974.995 408.999)"/><circle class="f" cx="3" cy="3" r="3" transform="translate(984.995 408.999)"/><circle class="f" cx="3" cy="3" r="3" transform="translate(994.995 408.999)"/><circle class="f" cx="3" cy="3" r="3" transform="translate(1004.995 408.999)"/><circle class="f" cx="3" cy="3" r="3" transform="translate(1014.995 408.999)"/><circle class="f" cx="3" cy="3" r="3" transform="translate(1024.995 408.999)"/><circle class="f" cx="3" cy="3" r="3" transform="translate(1034.995 408.999)"/><circle class="f" cx="3" cy="3" r="3" transform="translate(1044.995 408.999)"/><circle class="f" cx="3" cy="3" r="3" transform="translate(1054.995 408.999)"/><circle class="f" cx="3" cy="3" r="3" transform="translate(1064.995 408.999)"/><circle class="f" cx="3" cy="3" r="3" transform="translate(1074.995 408.999)"/><circle class="f" cx="3" cy="3" r="3" transform="translate(1084.995 408.999)"/><circle class="f" cx="3" cy="3" r="3" transform="translate(864.995 418.999)"/><circle class="f" cx="3" cy="3" r="3" transform="translate(884.995 418.999)"/><circle class="f" cx="3" cy="3" r="3" transform="translate(875 419)"/><circle class="f" cx="3" cy="3" r="3" transform="translate(894.995 418.999)"/><circle class="f" cx="3" cy="3" r="3" transform="translate(904.995 418.999)"/><circle class="f" cx="3" cy="3" r="3" transform="translate(914.995 418.999)"/><circle class="f" cx="3" cy="3" r="3" transform="translate(924.995 418.999)"/><circle class="f" cx="3" cy="3" r="3" transform="translate(934.995 418.999)"/><circle class="f" cx="3" cy="3" r="3" transform="translate(944.995 418.999)"/><circle class="f" cx="3" cy="3" r="3" transform="translate(954.995 418.999)"/><circle class="f" cx="3" cy="3" r="3" transform="translate(964.995 418.999)"/><circle class="f" cx="3" cy="3" r="3" transform="translate(974.995 418.999)"/><circle class="f" cx="3" cy="3" r="3" transform="translate(984.995 418.999)"/><circle class="f" cx="3" cy="3" r="3" transform="translate(994.995 418.999)"/><circle class="f" cx="3" cy="3" r="3" transform="translate(1004.995 418.999)"/><circle class="f" cx="3" cy="3" r="3" transform="translate(1014.995 418.999)"/><circle class="f" cx="3" cy="3" r="3" transform="translate(1024.995 418.999)"/><circle class="f" cx="3" cy="3" r="3" transform="translate(1034.995 418.999)"/><circle class="f" cx="3" cy="3" r="3" transform="translate(1044.995 418.999)"/><circle class="f" cx="3" cy="3" r="3" transform="translate(1054.995 418.999)"/><circle class="f" cx="3" cy="3" r="3" transform="translate(1064.995 418.999)"/><circle class="f" cx="3" cy="3" r="3" transform="translate(1074.995 418.999)"/><circle class="f" cx="3" cy="3" r="3" transform="translate(1084.995 418.999)"/><circle class="f" cx="3" cy="3" r="3" transform="translate(864.995 428.999)"/><circle class="f" cx="3" cy="3" r="3" transform="translate(884.995 428.999)"/><circle class="f" cx="3" cy="3" r="3" transform="translate(875 429)"/><circle class="f" cx="3" cy="3" r="3" transform="translate(894.995 428.999)"/><circle class="f" cx="3" cy="3" r="3" transform="translate(904.995 428.999)"/><circle class="f" cx="3" cy="3" r="3" transform="translate(914.995 428.999)"/><circle class="f" cx="3" cy="3" r="3" transform="translate(924.995 428.999)"/><circle class="f" cx="3" cy="3" r="3" transform="translate(934.995 428.999)"/><circle class="f" cx="3" cy="3" r="3" transform="translate(944.995 428.999)"/><circle class="f" cx="3" cy="3" r="3" transform="translate(954.995 428.999)"/><circle class="f" cx="3" cy="3" r="3" transform="translate(964.995 428.999)"/><circle class="f" cx="3" cy="3" r="3" transform="translate(974.995 428.999)"/><circle class="f" cx="3" cy="3" r="3" transform="translate(984.995 428.999)"/><circle class="f" cx="3" cy="3" r="3" transform="translate(994.995 428.999)"/><circle class="f" cx="3" cy="3" r="3" transform="translate(1004.995 428.999)"/><circle class="f" cx="3" cy="3" r="3" transform="translate(1014.995 428.999)"/><circle class="f" cx="3" cy="3" r="3" transform="translate(1024.995 428.999)"/><circle class="f" cx="3" cy="3" r="3" transform="translate(1034.995 428.999)"/><circle class="f" cx="3" cy="3" r="3" transform="translate(1044.995 428.999)"/><circle class="f" cx="3" cy="3" r="3" transform="translate(1054.995 428.999)"/><circle class="f" cx="3" cy="3" r="3" transform="translate(1064.995 428.999)"/><circle class="f" cx="3" cy="3" r="3" transform="translate(1074.995 428.999)"/><circle class="f" cx="3" cy="3" r="3" transform="translate(1084.995 428.999)"/><circle class="f" cx="3" cy="3" r="3" transform="translate(864.995 438.999)"/><circle class="f" cx="3" cy="3" r="3" transform="translate(884.995 438.999)"/><circle class="f" cx="3" cy="3" r="3" transform="translate(875 439)"/><circle class="f" cx="3" cy="3" r="3" transform="translate(894.995 438.999)"/><circle class="f" cx="3" cy="3" r="3" transform="translate(904.995 438.999)"/><circle class="f" cx="3" cy="3" r="3" transform="translate(914.995 438.999)"/><circle class="f" cx="3" cy="3" r="3" transform="translate(924.995 438.999)"/><circle class="f" cx="3" cy="3" r="3" transform="translate(934.995 438.999)"/><circle class="f" cx="3" cy="3" r="3" transform="translate(944.995 438.999)"/><circle class="f" cx="3" cy="3" r="3" transform="translate(954.995 438.999)"/><circle class="f" cx="3" cy="3" r="3" transform="translate(964.995 438.999)"/><circle class="f" cx="3" cy="3" r="3" transform="translate(974.995 438.999)"/><circle class="f" cx="3" cy="3" r="3" transform="translate(984.995 438.999)"/><circle class="f" cx="3" cy="3" r="3" transform="translate(994.995 438.999)"/><circle class="f" cx="3" cy="3" r="3" transform="translate(1004.995 438.999)"/><circle class="f" cx="3" cy="3" r="3" transform="translate(1014.995 438.999)"/><circle class="f" cx="3" cy="3" r="3" transform="translate(1024.995 438.999)"/><circle class="f" cx="3" cy="3" r="3" transform="translate(1034.995 438.999)"/><circle class="f" cx="3" cy="3" r="3" transform="translate(1044.995 438.999)"/><circle class="f" cx="3" cy="3" r="3" transform="translate(1054.995 438.999)"/><circle class="f" cx="3" cy="3" r="3" transform="translate(1064.995 438.999)"/><circle class="f" cx="3" cy="3" r="3" transform="translate(1074.995 438.999)"/><circle class="f" cx="3" cy="3" r="3" transform="translate(1084.995 438.999)"/></g><path class="o" d="M1141,192s4,1,4,5v49s0,3-4,4h-16L741,174,824,32l300.136,160.323Z"/><path class="c" d="M974,178l-3.253,40.91,33.224,5.957,6.582-20.589L976,180Z"/><ellipse class="c" cx="18.179" cy="17.942" rx="18.179" ry="17.942" transform="translate(969.813 201.119) rotate(-2.829)"/><path class="b" d="M1008.117,212.051l-.942,4.174a.912.912,0,0,1-.975.711c-3.669-.347-18.937-2.409-24.2-12.936a98.937,98.937,0,0,1-7.387-20.22c-.212-.874-1.284-4.378-.613-3.78l33.833,31.165A.915.915,0,0,1,1008.117,212.051Z"/><circle class="c" cx="38.416" cy="38.416" r="38.416" transform="translate(965.453 116.336)"/><path class="c" d="M965.457,155.776S976.488,191.488,987,202c10,10,24.543,11.726,35.144,9.061,4.543-1.141,9.04-4.755,12.829-9.486a44.159,44.159,0,0,0,9.279-31.359,258.217,258.217,0,0,0-4.187-28.348Z"/><path class="b" d="M960.83,430.423"/><path class="b" d="M988.856,129.153S1007,146,1031,143c0,0,6-1,7.735-4.4L1038,137c-1-2-49.79-9.828-49.79-9.828l.646,1.981"/><path class="p" d="M1001.371,151.253a8.435,8.435,0,0,1,6.977-.344"/><path class="p" d="M1025.4,149.937a8.433,8.433,0,0,1,6.976-.344"/><ellipse class="e" cx="4.047" cy="7.285" rx="4.047" ry="7.285" transform="translate(1001.531 157.873) rotate(-8.704)"/><ellipse class="q" cx="2.925" cy="5.264" rx="2.925" ry="5.264" transform="translate(1003.909 159.478) rotate(-8.704)"/><ellipse class="q" cx="4.047" cy="7.285" rx="4.047" ry="7.285" transform="translate(1001.531 157.873) rotate(-8.704)"/><ellipse class="e" cx="4.047" cy="7.285" rx="4.047" ry="7.285" transform="translate(1026.531 155.873) rotate(-8.704)"/><ellipse class="q" cx="2.925" cy="5.264" rx="2.925" ry="5.264" transform="translate(1028.909 157.478) rotate(-8.704)"/><ellipse class="q" cx="4.047" cy="7.285" rx="4.047" ry="7.285" transform="translate(1026.531 155.873) rotate(-8.704)"/><path class="r" d="M1011.412,192.324s11.352,6.03,18.088-1.206"/><path class="r" d="M1012.618,187.5s1.206,2.412-3.618,7.235"/><path class="s" d="M974.527,400.116,876,457l-35-58,98.07-60.3Z"/><rect class="t" width="114" height="70" transform="translate(842.343 393.703) rotate(-30)"/><path class="u" d="M877,454s2,2-1,3l100-56s2-1,0-4Z"/><path class="e" d="M843.092,395,842,399l34.644,57.608s1.323-.188.839-1.9S843.092,395,843.092,395Z"/><rect class="c" width="23" height="8.511" rx="4.256" transform="translate(937.225 386.356) rotate(30)"/><rect class="c" width="23" height="8.511" rx="4.256" transform="translate(933.225 404.356) rotate(30)"/><rect class="c" width="23" height="8.511" rx="4.256" transform="translate(926.225 412.356) rotate(30)"/><rect class="c" width="23" height="8.511" rx="4.256" transform="translate(920.225 420.356) rotate(30)"/><rect class="c" width="14.288" height="6.279" rx="3.14" transform="translate(913.109 427.289) rotate(30)"/><path class="c" d="M929.943,435.8l-8.133,2.857.481-6.061,1.6-.291Z"/><path class="c" d="M934.678,437.654,944,435s2-1,0-5l-3.736.047L936,430Z"/><path class="c" d="M936.872,406.777a1.5,1.5,0,0,1,.51,2.333l-22.3,26.57S904,429,901,426l-11-11,18-22s15.57-6.554,31.344-5.175a1.317,1.317,0,0,1,1.109,1.757C938.142,396.018,937,396,937,396s-7-1-7,3c0,2,3,4,4,5S936.872,406.777,936.872,406.777Z"/><path class="c" d="M946.637,421.613"/><path class="c" d="M950.462,420.294S957,416,959,413a1.623,1.623,0,0,0-.691-2.093l-6.11,3.421s-1.668.521-2.434-.4Z"/><path class="c" d="M942.38,429.143S949,426,952,422a3.1,3.1,0,0,0-1-2c-1-1-6,0-6,0a4.776,4.776,0,0,1-2.876,1.536Z"/><path d="M988.027,122.454s10.438,17.323,41.124,17.788,28.18-39.541,28.18-39.541S1042,113.145,1037.614,110.87c-2.423-1.256-32.228-24.952-56.3-7.906-16.717,10.737-15.779,20.545-15.779,20.545Z"/><path d="M991.569,132.347a18.637,18.637,0,0,0,.69,2.191c1.658,4.256,7.152,21.969-11.032,32.981-20.781,12.586-31.879-22.456-14.3-45.8C982.487,101.049,990.041,126.284,991.569,132.347Z"/><path d="M960.19,137.035s-10.036,18.254,13.485,55.531a.365.365,0,0,0,.675-.205c-.5-12.881,2.082-29.9,2.082-29.9Z"/><circle class="c" cx="11.35" cy="11.35" r="11.35" transform="translate(965.51 152.131)"/><path class="b" d="M973.041,156.969s8.9-.866,8.687,6.081c-.228,7.45-6.95,6.95-6.95,6.95s-4.278-.5-3.475-4.344c.8-3.8,5.213-1.737,5.213-1.737s1.9,1.662,3.484.081c1-1,.145-2.745-1-4C978.153,159.072,977,158,973.041,156.969Z"/><path class="v" d="M973.041,156.969s8.9-.866,8.687,6.081c-.228,7.45-6.95,6.95-6.95,6.95s-4.278-.5-3.475-4.344c.8-3.8,5.213-1.737,5.213-1.737"/><path d="M1012,104.737s22.3,7.432,30.966-3.715c0,0,1.238,11.147-11.148,14.863S1012,104.737,1012,104.737Z"/><circle class="c" cx="16" cy="16" r="16" transform="translate(882.39 386)"/><path class="r" d="M1021.093,168l6.018,13-7.222-1.3"/><path class="b" d="M872.34,336.808S867,318,856,314c-5-2-8-1-8-1S865.68,322.617,872.34,336.808Z"/><path class="c" d="M829,330a769.264,769.264,0,0,0,57.062,82.2L908,389a25.653,25.653,0,0,1-11-12c-9-20-30.143-50.6-35.856-54.475Z"/></g></g></svg>