<svg xmlns="http://www.w3.org/2000/svg" xmlns:xlink="http://www.w3.org/1999/xlink" width="150" height="150" viewBox="0 0 150 150"><defs><style>.a,.i,.l{fill:none;}.b{clip-path:url(#a);}.c{fill:#e9e8e8;}.d{fill:#2463e6;}.e{fill:#fff;}.f{fill:#d9d8d8;}.g{fill:#f3d7cb;}.h{fill:#161616;}.i{stroke:#a67273;stroke-linejoin:round;}.i,.l{stroke-linecap:round;}.j{fill:#a67273;}.k{fill:#d8a3a5;}.l{stroke:#d8a3a5;stroke-miterlimit:10;}.m{fill:#414141;}.n{fill:#261611;}.o{fill:#2c5c86;}.p{fill:#356a98;}.q{fill:#265781;}</style><clipPath id="a"><circle class="a" cx="75" cy="75" r="75"/></clipPath></defs><g class="b"><g transform="translate(16.033 19.098)"><path class="c" d="M716.782,404.771s21.588,1.086,24.495,22.086-2.3,66.977-2.3,66.977H684.445l-3.072-67.34c.34-20.085,24.989-21.724,24.989-21.724Z" transform="translate(-648.26 -359.249)"/><circle class="c" cx="7.137" cy="7.137" r="7.137" transform="translate(81.067 91.474)"/><circle class="c" cx="7.137" cy="7.137" r="7.137" transform="translate(25.288 88.595)"/><g transform="translate(50.094 68.081)"><path class="d" d="M771.048,527.591l19.006,3.306,3.519,32.31L773.237,555.8Z" transform="translate(-771.048 -526.892)"/><path class="e" d="M771.048,524.6l7.462-.7,17.551,2.618-6.007,1.386Z" transform="translate(-771.048 -523.901)"/><path class="e" d="M874.935,571.423l6.005-1.18-3.517-32.517-6.007,1.386Z" transform="translate(-852.41 -535.109)"/><g transform="translate(0.769 0.006)"><path class="c" d="M874.652,544.081l3.55,32.325.238-.047-3.565-32.33Z" transform="translate(-855.802 -540.223)"/><path class="c" d="M878.25,543.223l3.55,32.325.238-.047-3.565-32.33Z" transform="translate(-858.719 -539.528)"/><path class="c" d="M882.023,542.412l3.549,32.325.238-.047-3.565-32.33Z" transform="translate(-861.777 -538.871)"/><path class="c" d="M885.779,541.263l3.55,32.325.238-.047L886,541.212Z" transform="translate(-864.822 -537.939)"/><path class="c" d="M890,540.479l3.55,32.325.238-.047-3.565-32.33Z" transform="translate(-868.243 -537.303)"/><path class="c" d="M894.177,539.475l3.55,32.325.238-.047-3.565-32.33Z" transform="translate(-871.629 -536.49)"/><path class="c" d="M898.253,538.73l3.55,32.325.238-.047-3.565-32.33Z" transform="translate(-874.934 -535.885)"/><path class="c" d="M775.107,527.054l18.85,3.236.223-.051L775.5,527.018Z" transform="translate(-775.107 -526.433)"/><path class="c" d="M779.871,526.548l18.664,3.161.223-.051-18.5-3.146Z" transform="translate(-778.969 -526.023)"/><path class="c" d="M785.579,526.078l18.289,3.1.223-.051-18.122-3.085Z" transform="translate(-783.596 -525.642)"/><path class="c" d="M791.712,525.487l17.842,2.99.223-.051L792.1,525.451Z" transform="translate(-788.567 -525.163)"/><path class="c" d="M799.084,524.905l17.21,2.967.223-.051-17.043-2.952Z" transform="translate(-794.544 -524.691)"/><path class="c" d="M803.757,524.229l17.129,2.884.223-.051-16.962-2.869Z" transform="translate(-798.332 -524.143)"/><path class="c" d="M807.7,523.967l17.142,2.814.223-.051-16.976-2.8Z" transform="translate(-801.527 -523.93)"/></g></g><path class="c" d="M923.748,425.388s10.127,6.015,11.79,13.385,2.484,35.8,2.484,35.8l-14.225-.828-2.588-33.264Z" transform="translate(-842.68 -375.962)"/><path class="c" d="M832.923,622.332l-29.8-14.846,4.094-8.187s23.844,8.018,29.069,9.115Z" transform="translate(-746.951 -516.941)"/><path class="c" d="M660.129,426.134s-13.316,5.469-14.808,11.974-3.975,32.334-3.975,32.334l8.342,4.736,5.687-31.279Z" transform="translate(-615.812 -376.566)"/><path class="c" d="M560.665,528.41l-20.281-32.6,9.184-5.7s14.415,20.833,20.027,27.3Z" transform="translate(-533.969 -428.422)"/><path class="f" d="M674.4,555.257l.725,28.85a19.217,19.217,0,0,1-2.641-.071Z" transform="translate(-641.052 -481.238)"/><path class="f" d="M824.738,536.659l19.121,6.236-1.782-20.869-.094,15.666a1.864,1.864,0,0,1-2.132,1.833Z" transform="translate(-764.477 -454.3)"/><path class="f" d="M803.118,642.533l29.8,14.846a6.289,6.289,0,0,0,6.564-1.109l-.517,7.87Z" transform="translate(-746.951 -551.987)"/><path class="f" d="M931.527,637.693s6.589-.274,8.847,4.243C940.374,641.936,938.142,639.552,931.527,637.693Z" transform="translate(-851.044 -548.062)"/><path class="f" d="M654.146,581.842s3.615,3.957,3.472,8.436C657.618,590.278,657.713,588.122,654.146,581.842Z" transform="translate(-626.189 -502.789)"/><path class="g" d="M751.374,574.6l-3.753,7.407s-12.826-2.73-13.182-8.458c-.45-7.253,5.718-3.717,6.873-3.156s1.315-4.177,3.8-.348C746.4,572.032,751.374,574.6,751.374,574.6Z" transform="translate(-691.259 -492.005)"/><g transform="translate(0 25.956)"><path class="d" d="M506.677,301.445l19.409,7.006L529.2,337.06l-20.337-7.406Z" transform="translate(-506.645 -301.445)"/><path class="g" d="M520.9,440.324l-7.057,4.377s-9.537-9-6.864-14.078c3.385-6.43,6.817-.2,7.512.877s3.3-2.885,3.429,1.679C517.992,435.546,520.9,440.324,520.9,440.324Z" transform="translate(-506.509 -403.835)"/><path class="d" d="M548.676,439.822l1.179,3.074,13.393,4.877-.711-6.531-13.861-3.223Z" transform="translate(-540.691 -412.156)"/></g><path class="h" d="M888.735,278.535s3.488-3.284,4.541-17.788l-3.639,1.385Z" transform="translate(-816.356 -242.497)"/><path class="h" d="M757.194,272.48s-5.167-9.057-6.021-15.113,5.668.928,5.668.928Z" transform="translate(-704.78 -237.755)"/><path class="g" d="M0,0H10.358a0,0,0,0,1,0,0V5.807a5.179,5.179,0,0,1-5.179,5.179h0A5.179,5.179,0,0,1,0,5.807V0A0,0,0,0,1,0,0Z" transform="translate(57.428 40.832)"/><g transform="translate(49.464 7.007)"><circle class="g" cx="13.153" cy="13.153" r="13.153"/><path class="g" d="M781.1,293.491s-7.639-.154-9.974-7.375-3.148-12.017-3.127-15.283h13.1Z" transform="translate(-767.942 -257.68)"/><path class="g" d="M837.179,293.491s7.639-.154,9.974-7.375,3.148-12.017,3.127-15.283h-13.1Z" transform="translate(-824.026 -257.68)"/></g><g transform="translate(56.11 20.829)"><path class="i" d="M805.374,274.766a1.886,1.886,0,0,0-2.32,0" transform="translate(-803.009 -274.367)"/><path class="i" d="M861.373,274.766a1.886,1.886,0,0,0-2.319,0" transform="translate(-848.405 -274.367)"/><path class="i" d="M826.954,350.771s-.785.984-3.008.984a4.793,4.793,0,0,1-3.211-.984h0" transform="translate(-817.342 -336.303)"/><ellipse class="j" cx="1.205" cy="2.035" rx="1.205" ry="2.035" transform="translate(10.604 1.72)"/><ellipse class="j" cx="1.205" cy="2.035" rx="1.205" ry="2.035" transform="translate(0 1.72)"/><path class="i" d="M836.265,302.125l.94,4.345-1.306.693" transform="translate(-829.634 -296.868)"/></g><path class="k" d="M809.779,382.53s5.133,3.775,10.358.01v2.067s-4.331,6.027-10.358,0Z" transform="translate(-752.351 -341.219)"/><path class="g" d="M753.937,282.83s-3.728.616-4.794-2.53.918-4.879,3.4-3.266A23.422,23.422,0,0,1,753.937,282.83Z" transform="translate(-702.958 -255.203)"/><path class="g" d="M898.372,282.83s3.728.616,4.794-2.53-.918-4.879-3.4-3.266A23.422,23.422,0,0,0,898.372,282.83Z" transform="translate(-824.168 -255.203)"/><path class="l" d="M828.992,366.843a2.946,2.946,0,0,0,1.491.258,3.851,3.851,0,0,0,1.591-.258h0" transform="translate(-767.926 -328.503)"/><g transform="translate(27.543 134.586)"><rect class="g" width="13.12" height="5.517" transform="translate(36.525 146.703)"/><rect class="g" width="13.12" height="5.517" transform="translate(22.272 146.703)"/><path class="m" d="M697.672,875.1l11.538,147.125H724.9V875.1Z" transform="translate(-689.016 -875.103)"/><path class="m" d="M869.1,875.1l-11.538,147.125H841.874V875.1Z" transform="translate(-805.912 -875.103)"/><path class="n" d="M671.958,1678.954h15.4v15.2H652.444s-4.159-8.051,11.943-7.6c3.093,0,6.291-.826,6.825-3.386S671.958,1678.954,671.958,1678.954Z" transform="translate(-651.962 -1526.735)"/><path class="n" d="M860.242,1678.954h-15.4v15.2h34.909s4.159-8.051-11.943-7.6c-3.092,0-6.291-.826-6.825-3.386S860.242,1678.954,860.242,1678.954Z" transform="translate(-808.322 -1526.735)"/></g><path class="k" d="M786.066,232.193s.594-.064,1.347-1.192l13.458-2.7a2.555,2.555,0,0,0,1.7.96s.982,3.626,3.435,2.595l-3.021-7.405-17.132,2.891Z" transform="translate(-732.952 -213.073)"/><path class="h" d="M765.062,194.6s.222,3.728-5.425,3.057c0,0,.7,2.95-3.249,3.128a2.5,2.5,0,0,1-1.869,2.907s-.153,2.7-2.245,1.672-3.584-1.379-3.229-3.654-2.1-2.488,2.078-5.189,6.907-10.734,15.246-7.606,14.169,4.55,13.387,12.654-5.687,2.346-3.91,1.422c0,0-3.341-1.351-2.062-3.91,0,0-4.007.213-3.177-2.843C770.607,196.239,767.359,199.153,765.062,194.6Z" transform="translate(-702.795 -183.692)"/><g transform="translate(44.815)"><path class="o" d="M786.2,173.8a4.275,4.275,0,0,0-.781.027l-25.989,3.191a3.727,3.727,0,0,0-1.549.536A14.687,14.687,0,0,1,786.2,173.8Z" transform="translate(-755.095 -164.373)"/><path class="o" d="M745.227,215.081l29.566-3.63a2.341,2.341,0,0,1,2.608,2.038h0a2.341,2.341,0,0,1-2.038,2.608l-29.566,3.63a2.341,2.341,0,0,1-2.608-2.038h0A2.341,2.341,0,0,1,745.227,215.081Z" transform="translate(-743.172 -202.521)"/><path class="p" d="M854.811,176.569l1.591-.2s-3.949-7.317-10.812-7.714C845.575,168.709,851.541,168.766,854.811,176.569Z" transform="translate(-826.196 -167.848)"/><path class="q" d="M746.248,215.112l29.777-3.656a2.834,2.834,0,0,1,1.4.346,3.89,3.89,0,0,1,.591.514l-33.451,4.061a2.2,2.2,0,0,1,.5-.666A2.828,2.828,0,0,1,746.248,215.112Z" transform="translate(-744.298 -202.54)"/></g><path class="n" d="M.276,0h0A.276.276,0,0,1,.552.276V131.844a0,0,0,0,1,0,0H0a0,0,0,0,1,0,0V.276A.276.276,0,0,1,.276,0Z" transform="translate(63.127 149.576)"/></g></g></svg>