<svg xmlns="http://www.w3.org/2000/svg" xmlns:xlink="http://www.w3.org/1999/xlink" width="150" height="150" viewBox="0 0 150 150"><defs><style>.a,.h,.i,.k{fill:none;}.b{clip-path:url(#a);}.c{fill:#c0c1c1;}.d{fill:#f3d7cb;}.e{fill:#414141;}.f{fill:#d8a3a5;}.g{fill:#161616;}.h{stroke:#363536;stroke-width:3px;}.h,.i,.k{stroke-linecap:round;}.h,.k{stroke-miterlimit:10;}.i{stroke:#a67273;stroke-linejoin:round;}.j{fill:#a67273;}.k{stroke:#d8a3a5;}.l{fill:#e9e8e8;}.m{fill:#d9d8d8;}.n{fill:#1a1311;}.o{fill:#f2ad36;}.p{fill:#c3cad5;}.q{fill:#fff;}</style><clipPath id="a"><circle class="a" cx="75" cy="75" r="75"/></clipPath></defs><g class="b"><g transform="translate(27.014 16.889)"><path class="c" d="M2640.279,131.882s-.167-4.229,10.793.165v12.072l-10.793-5.723v-6.514" transform="translate(-2604.131 -84.549)"/><path class="c" d="M2708.621,131.882s.167-4.229-10.794.165v12.072l10.794-5.723v-6.514" transform="translate(-2650.782 -84.549)"/><path class="d" d="M2694.526,816.894V935.189s2.9,4.071,12.593,6.363c9.676,2.291,10.112-2.348,10.112-2.348-7.366-1.363-15.755-6.609-15.755-6.609s10.756-81.956,14.6-115.7Z" transform="translate(-2648.106 -641.33)"/><path class="d" d="M2574.626,939.2s.435,4.639,10.112,2.348,12.593-6.363,12.593-6.363V816.894h-21.568c3.844,33.744,14.619,115.7,14.619,115.7S2581.992,937.859,2574.626,939.2Z" transform="translate(-2550.91 -641.33)"/><path class="e" d="M2694.151,1441.595v13.18c3.219.947,7.84,0,7.84,0v-2.5s23.538,6.1,23.538-.776-8.673-5.908-8.673-5.908-.436,4.639-10.112,2.348C2697.067,1445.666,2694.151,1441.595,2694.151,1441.595Z" transform="translate(-2647.802 -1147.736)"/><path class="e" d="M2528.826,1451.6c0,6.874,23.538.776,23.538.776v2.5s4.62.947,7.84,0v-13.18s-2.9,4.071-12.593,6.363c-9.676,2.291-10.112-2.348-10.112-2.348S2528.826,1444.724,2528.826,1451.6Z" transform="translate(-2513.783 -1147.816)"/><path class="f" d="M2694.526,816.894V935.208s1.035,1.1,1.414,1.387v-119.7Z" transform="translate(-2648.106 -641.33)"/><path class="f" d="M2688.474,816.894V935.208s-1.034,1.1-1.414,1.387v-119.7Z" transform="translate(-2642.054 -641.33)"/><path class="g" d="M2694.526,1441.694v13.18a9.9,9.9,0,0,0,2.023.342l-.609-12.135Z" transform="translate(-2648.106 -1147.816)"/><path class="g" d="M2685.865,1441.694v13.18a9.9,9.9,0,0,1-2.023.342l.61-12.135Z" transform="translate(-2639.445 -1147.816)"/><line class="h" y1="122.155" transform="translate(46.42 165.799)"/><path class="e" d="M2572.334,727.758h7.384V570.839a61,61,0,0,1-18.789-2.547s-9.964,8.858-7.693,25.972S2572.334,727.758,2572.334,727.758Z" transform="translate(-2533.297 -439.804)"/><path class="e" d="M2701.91,726.468h-7.384V569.548a67.446,67.446,0,0,0,18.814-2.848s9.939,9.159,7.668,26.274S2701.91,726.468,2701.91,726.468Z" transform="translate(-2648.106 -438.513)"/><path class="g" d="M2611.76,38.347s.944,14.873,4.932,17.129,10.609,2.233,10.609,2.233V38.347Z" transform="translate(-2581.012 -10.21)"/><path class="g" d="M2715.94,38.347s-.943,14.873-4.931,17.129-10.609,2.233-10.609,2.233V38.347Z" transform="translate(-2652.866 -10.21)"/><path class="d" d="M0,0H10.358a0,0,0,0,1,0,0V5.807a5.179,5.179,0,0,1-5.179,5.179h0A5.179,5.179,0,0,1,0,5.807V0A0,0,0,0,1,0,0Z" transform="translate(41.342 47.499)"/><g transform="translate(33.378 13.673)"><circle class="d" cx="13.153" cy="13.153" r="13.153"/><path class="d" d="M2639.026,54.084s-7.639-.154-9.974-7.375-3.147-12.017-3.127-15.283h13.1Z" transform="translate(-2625.874 -18.273)"/><path class="d" d="M2695.11,54.084s7.639-.154,9.973-7.375,3.148-12.017,3.127-15.283h-13.1Z" transform="translate(-2681.958 -18.273)"/></g><g transform="translate(40.024 27.495)"><path class="i" d="M2663.306,35.36a1.886,1.886,0,0,0-2.319,0" transform="translate(-2660.941 -34.961)"/><path class="i" d="M2719.305,35.36a1.886,1.886,0,0,0-2.319,0" transform="translate(-2706.336 -34.961)"/><path class="i" d="M2684.885,111.365s-.785.984-3.008.984a4.8,4.8,0,0,1-3.211-.984h0" transform="translate(-2675.273 -96.897)"/><ellipse class="j" cx="1.205" cy="2.035" rx="1.205" ry="2.035" transform="translate(10.604 1.72)"/><ellipse class="j" cx="1.205" cy="2.035" rx="1.205" ry="2.035" transform="translate(0 1.72)"/><path class="i" d="M2694.2,62.718l.94,4.345-1.306.693" transform="translate(-2687.565 -57.462)"/></g><path class="f" d="M2667.71,143.123s5.133,3.775,10.358.01V145.2s-4.331,6.028-10.358,0Z" transform="translate(-2626.368 -95.146)"/><path class="d" d="M2611.868,43.423s-3.727.616-4.794-2.53.918-4.879,3.4-3.266A23.422,23.422,0,0,1,2611.868,43.423Z" transform="translate(-2576.975 -9.13)"/><path class="d" d="M2756.3,43.423s3.727.616,4.794-2.53-.918-4.879-3.4-3.266A23.422,23.422,0,0,0,2756.3,43.423Z" transform="translate(-2698.185 -9.13)"/><path class="k" d="M2686.923,127.437a2.947,2.947,0,0,0,1.491.258,3.851,3.851,0,0,0,1.591-.258h0" transform="translate(-2641.943 -82.43)"/><path class="f" d="M2650.019-9.015s-3.241-.8-4.378-2.417l-5.705.107s-8.157,4.887-10.735,4.336c0,0-2.048,2.6-2.907,2.679l3.654-10.41,17.452.866,2.915,3.008Z" transform="translate(-2592.794 32.808)"/><path class="g" d="M2630.813-52.719s-5.936,7.678-14.04,7.464c0,0-1.246,3.434-2.329,3.8a2.7,2.7,0,0,0-2.752-.361s-1.059-16.018,14.061-18.364S2630.813-52.719,2630.813-52.719Z" transform="translate(-2580.944 69.956)"/><path class="g" d="M2718.994-42.609s1.962,5.856,6.014,7.189c0,0,.608,5.193,2.3,5.556,0,0,2.654-1.806,3.561.718,0,0,.089-12.885-9.926-17.1C2720.947-46.243,2718.1-44.651,2718.994-42.609Z" transform="translate(-2667.799 58.361)"/><g transform="translate(31.71)"><path class="l" d="M2646.554-104.288v14.716h-29.711v-14.716c0-3.287,1.953-5.951,4.362-5.951h20.987c2.409,0,4.362,2.665,4.362,5.951Z" transform="translate(-2616.843 110.239)"/><rect class="m" width="1.141" height="11.688" transform="translate(3.399 8.979)"/><rect class="m" width="1.141" height="11.688" transform="translate(10.917 8.979)"/><rect class="m" width="1.141" height="11.688" transform="translate(17.998 8.979)"/><rect class="m" width="1.141" height="11.688" transform="translate(25.515 8.979)"/></g><g transform="translate(0 47.333)"><circle class="l" cx="8.882" cy="8.882" r="8.882" transform="translate(11.719 14.977)"/><path class="l" d="M2548.254,139.723v6.514a179.293,179.293,0,0,0-18.556,9.005l-3.051,84.937,29.522-.095,2.878-10.566V151.1s-.832-5.7-5.6-6.691S2548.254,139.723,2548.254,139.723Z" transform="translate(-2512.017 -139.723)"/><circle class="l" cx="7.965" cy="7.965" r="7.965" transform="translate(0 68.004)"/><path class="l" d="M2462.439,257.07,2450.506,309l15.719,1.823,7.3-41.7Z" transform="translate(-2450.294 -234.849)"/><path class="c" d="M2535.125,324.917l-6.25,44.558-.4,11.21,6.653-22.6Z" transform="translate(-2513.497 -289.848)"/><g transform="translate(42.422 18.102)"><rect class="n" width="2.647" height="1.28" rx="0.64"/><rect class="n" width="2.647" height="1.28" rx="0.64" transform="translate(0 12.476)"/><rect class="n" width="2.647" height="1.28" rx="0.64" transform="translate(0 24.952)"/><rect class="n" width="2.647" height="1.28" rx="0.64" transform="translate(0 37.428)"/><rect class="n" width="2.647" height="1.28" rx="0.64" transform="translate(0 49.905)"/><rect class="n" width="2.647" height="1.28" rx="0.64" transform="translate(0 62.381)"/></g><g transform="translate(7.529 3.022)"><g transform="translate(0.398 1.75)"><ellipse class="o" cx="8.335" cy="1.042" rx="8.335" ry="1.042" transform="translate(0 8.082) rotate(-28.999)"/></g><path class="p" d="M2509.887,166.4l-.171-.3-1.969-3.371-2.537-4.355h0l-.019-.019h0l-.019-.038h0l-.094-.151v-.038c-.019-.038-.057-.076-.076-.114-1.647-2.31-6.647-3.333-10.756-1.042-4.3,2.4-6.022,7.518-4.62,10.036.3.549,4.033-.966,8.332-3.352a56.468,56.468,0,0,0,4.829-2.973h0l2.064,3.56,2.1,3.6.114.208,1.1,1.894,9.961,17.97.057-.019h0l.417-.095.246-.057a2.834,2.834,0,0,1,.227-.322c.133-.189.322-.417.549-.682h0c.095-.114.208-.227.322-.36a8.029,8.029,0,0,1,.587-.549c.019-.019.057-.038.075-.076l-9.619-17.346Zm-5.321-8.124-.208.133c.019.019.038.019.038.038.057.095-.019.246-.189.454a10.337,10.337,0,0,1-1.647,1.42,47.78,47.78,0,0,1-4.791,2.992,29.717,29.717,0,0,1-7.139,3.162h0c-.265.038-.436,0-.492-.095-.038-.057-.019-.114.019-.189.322-.739,3.086-2.689,6.627-4.677,3.56-1.969,6.685-3.295,7.461-3.181a2.345,2.345,0,0,1,.322-.057Z" transform="translate(-2489.147 -155.682)"/><path class="p" d="M2628.913,288.7l9.654,17.342a1.62,1.62,0,0,1-.352,2.01h0a1.62,1.62,0,0,1-2.481-.436l-9.613-17.321Z" transform="translate(-2600.183 -263.514)"/></g><path class="l" d="M2470.741,408.362l17.807-30.25-10.3-7.048L2458.4,398.3Z" transform="translate(-2456.689 -327.257)"/><path class="d" d="M2598.929,280.512l7.213,4.114s9.2-9.344,6.341-14.321c-3.62-6.3-6.82.048-7.475,1.153s-3.4-2.761-3.365,1.8C2601.661,275.63,2598.929,280.512,2598.929,280.512Z" transform="translate(-2570.612 -243.35)"/><rect class="c" width="14.335" height="11.58" transform="translate(27.029 33.751) rotate(33.548)"/><path class="c" d="M2468.012,445.222l-9.617,13.2S2459.093,453.087,2468.012,445.222Z" transform="translate(-2456.689 -387.372)"/><g transform="translate(24.246 78.806)"><path class="q" d="M0,0H13.947a0,0,0,0,1,0,0V10.229A6.973,6.973,0,0,1,6.973,17.2h0A6.973,6.973,0,0,1,0,10.229V0A0,0,0,0,1,0,0Z"/><rect class="l" width="13.947" height="0.533" transform="translate(0 3.276)"/></g></g><g transform="translate(47.056 34.995)"><circle class="l" cx="8.882" cy="8.882" r="8.882" transform="translate(17.546 27.387)"/><path class="l" d="M2708.677,140.1v6.514a179.249,179.249,0,0,1,18.556,9.005l3.051,84.937-29.521-.095-2.878-10.566v-78.42s.832-5.7,5.6-6.691S2708.677,140.1,2708.677,140.1Z" transform="translate(-2697.884 -127.689)"/><g transform="translate(2.58 0)"><path class="p" d="M2814.587,88.731h0l4.071-7.044c.625-1.1.473-1.95-.114-2.291l-.095-.057c-.587-.341-1.4-.057-2.045,1.042l-4.034,6.987c-.019,0-.019.019-.038.019a1.1,1.1,0,0,1-1.382.4,1.11,1.11,0,0,1-.36-1.4v-.038l4.033-6.969c.625-1.1.473-1.95-.114-2.291l-.095-.057c-.587-.341-1.4-.057-2.045,1.041l-4.033,6.969-.019.019a1.1,1.1,0,0,1-1.383.4,1.11,1.11,0,0,1-.36-1.4c0-.019,0-.019.019-.038l4.033-6.969c.625-1.1.473-1.95-.114-2.291l-.094-.057c-.587-.341-1.4-.057-2.045,1.041l-4.071,7.025-1.477,2.537-.076.17c-.019.038-.038.057-.038.095a2.084,2.084,0,0,0,.644,2.708l3.466,2.007h0l3.465,2.007a2.112,2.112,0,0,0,2.784-.966l.019-.019.019-.019h0Z" transform="translate(-2785.254 -74.564)"/><path class="p" d="M2731.6,153.081l-20.091,35.392s-.12,2.3,2.575,2.064l19.778-36.149Z" transform="translate(-2711.507 -138.213)"/></g><circle class="l" cx="7.965" cy="7.965" r="7.965" transform="translate(31.1 80.414)"/><path class="l" d="M2834.672,257.445l11.933,51.926-15.718,1.823-7.3-41.7Z" transform="translate(-2799.787 -222.815)"/><path class="c" d="M2832.027,325.292l6.25,44.558.4,11.21-6.653-22.6Z" transform="translate(-2806.625 -277.814)"/><path class="l" d="M2795.808,408.738,2778,378.488l10.3-7.048,19.851,27.239Z" transform="translate(-2762.83 -315.223)"/><path class="d" d="M2730.165,277.055l-7.213,4.114s-9.2-9.345-6.341-14.321c3.62-6.3,6.82.048,7.475,1.153s3.4-2.761,3.365,1.8C2727.432,272.173,2730.165,277.055,2730.165,277.055Z" transform="translate(-2712.618 -228.208)"/><rect class="c" width="14.335" height="11.58" transform="translate(26.401 55.811) rotate(146.452)"/><path class="c" d="M2886.45,445.6l9.617,13.2S2895.369,453.463,2886.45,445.6Z" transform="translate(-2850.742 -375.338)"/><g transform="translate(8.837 91.216)"><path class="q" d="M6.973,0h0a6.973,6.973,0,0,1,6.973,6.973V17.2a0,0,0,0,1,0,0H0a0,0,0,0,1,0,0V6.973A6.973,6.973,0,0,1,6.973,0Z" transform="translate(13.947 17.202) rotate(180)"/><rect class="l" width="13.947" height="0.533" transform="translate(13.947 3.809) rotate(-180)"/></g><g transform="translate(1.961 30.512)"><rect class="n" width="2.647" height="1.28" rx="0.64" transform="translate(2.647 1.28) rotate(180)"/><rect class="n" width="2.647" height="1.28" rx="0.64" transform="translate(2.647 13.756) rotate(-180)"/><rect class="n" width="2.647" height="1.28" rx="0.64" transform="translate(2.647 26.232) rotate(-180)"/><rect class="n" width="2.647" height="1.28" rx="0.64" transform="translate(2.647 38.708) rotate(180)"/><rect class="n" width="2.647" height="1.28" rx="0.64" transform="translate(2.647 51.184) rotate(-180)"/><rect class="n" width="2.647" height="1.28" rx="0.64" transform="translate(2.647 63.66) rotate(180)"/></g></g><rect class="e" width="0.491" height="79.069" transform="translate(46.785 59.57)"/></g></g></svg>