<?xml version="1.0" encoding="utf-8"?>
<!-- Generator: Adobe Illustrator 24.2.1, SVG Export Plug-In . SVG Version: 6.00 Build 0)  -->
<svg version="1.1" id="_17.下載" xmlns="http://www.w3.org/2000/svg" xmlns:xlink="http://www.w3.org/1999/xlink" x="0px" y="0px"
	 viewBox="0 0 20 20" style="enable-background:new 0 0 20 20;" xml:space="preserve">
<style type="text/css">
	.st0{fill:none;}
	.st1{fill:#FFFFFF;}
</style>
<rect id="Rectangle" class="st0" width="20" height="20"/>
<path id="Path-Copy-12" class="st1" d="M12,0c-1.6,0-3.1,0.7-4.2,1.9C7.4,1.8,6.9,1.7,6.4,1.7c-2.1,0-3.9,1.7-4,3.8
	C0.9,6.3,0,7.9,0,9.6c0,2.5,1.9,4.5,4.4,4.6l0,0c0.5,0,0.8-0.4,0.8-0.8s-0.4-0.8-0.8-0.8c-1.6,0-2.8-1.4-2.8-2.9
	c0-1.2,0.7-2.3,1.9-2.8C3.9,6.7,4.1,6.4,4.1,6c0-0.1,0-0.1,0-0.2c0-1.3,1-2.5,2.4-2.5c0.4,0,0.8,0.1,1.2,0.4C8,3.9,8.5,3.8,8.8,3.4
	c0.7-1.1,1.9-1.8,3.2-1.8c2.2,0.1,4,1.9,3.9,4.2c0,0.1,0,0.1,0,0.2c0,0.4,0.2,0.7,0.5,0.8c1.1,0.4,1.9,1.5,1.9,2.8
	c0,1.6-1.2,2.9-2.8,2.9c-0.5,0-0.8,0.4-0.8,0.8s0.4,0.8,0.8,0.8c2.5,0,4.5-2.1,4.4-4.6l0,0c0-1.7-0.9-3.3-2.4-4.1
	C17.5,2.5,15,0.1,12,0z"/>
<path id="Combined-Shape" class="st1" d="M10.7,16.2l1.5-1.5c0.3-0.3,0.9-0.3,1.2,0s0.3,0.9,0,1.2l-2.9,2.9c-0.3,0.3-0.9,0.3-1.2,0
	l0,0l-2.9-2.9C6,15.5,6,15,6.3,14.7s0.9-0.3,1.2,0l0,0L9,16.2v-7c0-0.5,0.4-0.8,0.8-0.8s0.8,0.4,0.8,0.8L10.7,16.2z"/>
</svg>
