<svg xmlns="http://www.w3.org/2000/svg" width="148.261" height="50" viewBox="0 0 148.261 50"><defs><style>.a{fill:#3b3938;}.b{fill:#9a7035;}.c{fill:#f6ac19;}.d{fill:#bc1224;}</style></defs><g transform="translate(-412.963 -385.858)"><g transform="translate(474.486 406.618)"><path class="a" d="M490.176,413.141q-.306-.471-.61-.928t-.666-.929a1.232,1.232,0,0,1-.291-.817,1.211,1.211,0,0,1,.429-.707,1,1,0,0,1,.832-.264,1.556,1.556,0,0,1,.915.763,14.689,14.689,0,0,1,.817,1.262q.43.734.846,1.621h6.9q.5-.858.859-1.58t.61-1.33a1.3,1.3,0,0,1,.555-.749,1.427,1.427,0,0,1,1,.027.936.936,0,0,1,.526.5,1.282,1.282,0,0,1-.138.887q-.278.554-.54,1.122t-.569,1.122h6.709a1.386,1.386,0,0,1,.845.235.887.887,0,0,1,.319.763.993.993,0,0,1-.291.734,1.185,1.185,0,0,1-.873.291H500.71v2.107h2.967a9.475,9.475,0,0,1,1.414.084,1.631,1.631,0,0,1,.817.332,1.215,1.215,0,0,1,.375.749,8.571,8.571,0,0,1,.082,1.33v2.052h1.886a1.664,1.664,0,0,1,.887.222.867.867,0,0,1,.36.8.909.909,0,0,1-.346.749,1.4,1.4,0,0,1-.9.278h-1.886v2.079a8.278,8.278,0,0,1-.082,1.316,1.33,1.33,0,0,1-.375.763,1.491,1.491,0,0,1-.817.361,9.5,9.5,0,0,1-1.414.083h-1.858q1.607,1.221,3.272,2.357a34.976,34.976,0,0,0,2.993,1.858,3.135,3.135,0,0,1,1.22.971.965.965,0,0,1-.056.942.9.9,0,0,1-.721.513,2.12,2.12,0,0,1-1.3-.429,66.644,66.644,0,0,1-6.514-4.575v5.046q0,1.108-.942,1.109a.968.968,0,0,1-1.081-1.109v-6.681h-5.627v6.709a.97.97,0,0,1-1.054,1.108q-1.026,0-1.026-1.108v-4.907a36.561,36.561,0,0,1-3.174,2.425,32.735,32.735,0,0,1-3.008,1.844,1.8,1.8,0,0,1-1.3.318,1.136,1.136,0,0,1-.637-.68,1.19,1.19,0,0,1,.07-.831,1.66,1.66,0,0,1,.79-.666q1.8-.943,3.326-1.94a30.116,30.116,0,0,0,3.021-2.274h-4.324q-1.247,0-1.247-1.025a.878.878,0,0,1,.332-.749,1.494,1.494,0,0,1,.915-.25h5.239V423.87h-7.012q-1.221,0-1.22-1.026t1.22-1.025h7.012V419.24h-4.823a1.507,1.507,0,0,1-.887-.234.9.9,0,0,1-.332-.791.8.8,0,0,1,.332-.734,1.661,1.661,0,0,1,.887-.208h4.823v-2.107h-7.041a1.168,1.168,0,0,1-.859-.277.973.973,0,0,1-.278-.72,1.01,1.01,0,0,1,.278-.748,1.168,1.168,0,0,1,.859-.278Zm2.883,4.13h5.627v-2.107h-5.627Zm0,4.547h5.627V419.24h-5.627Zm0,4.629h5.627V423.87h-5.627Zm7.651-7.208v2.579h3.6V419.6q0-.361-.555-.361Zm3.049,7.208c.369,0,.555-.166.555-.5V423.87h-3.6v2.578Z" transform="translate(-482.747 -409.406)"/><path class="a" d="M518.983,434.011a1.726,1.726,0,0,1-.874.167q-.319-.056-.54-.583a1.024,1.024,0,0,1,0-.984,1.6,1.6,0,0,1,.832-.623c.092-.038.193-.074.3-.111s.213-.074.305-.11V413.248h-.388q-1.11,0-1.109-1a1,1,0,0,1,.25-.776,1.3,1.3,0,0,1,.86-.221h7.318a1.194,1.194,0,0,1,.8.221,1,1,0,0,1,.249.776q0,1-1.054,1h-.249v21.844a1.109,1.109,0,0,1-.264.832,1.024,1.024,0,0,1-.734.249q-.971,0-.971-1.081v-3.132q-1.247.611-2.327,1.095T518.983,434.011Zm2-16.383h2.744v-4.38h-2.744Zm0,6.293h2.744V419.6h-2.744Zm0,7.1q.693-.3,1.373-.623t1.372-.68v-3.824h-2.744Zm12.807,2.883a18.635,18.635,0,0,0,2.371-2.286,21.694,21.694,0,0,0,1.9-2.565q-.222-.915-.4-1.843t-.333-1.955q-.152-1.025-.263-2.2t-.194-2.564h-9.619q-1.193,0-1.192-.971a.961.961,0,0,1,.291-.79,1.421,1.421,0,0,1,.9-.235h2.107a1.794,1.794,0,0,1-.195-.389q-.278-.747-.443-1.178c-.11-.286-.249-.652-.415-1.095a1.1,1.1,0,0,1-.084-.651.758.758,0,0,1,.361-.541,1.644,1.644,0,0,1-.9-.221.764.764,0,0,1-.346-.694.938.938,0,0,1,.277-.789,1.745,1.745,0,0,1,1-.208h1.968c-.074-.185-.143-.375-.208-.569s-.144-.411-.235-.651a2.1,2.1,0,0,1-.194-.9q.026-.345.5-.568,1.136-.637,1.607.776.139.417.278.888t.3,1.025h2.023a1.528,1.528,0,0,1,.86.221.865.865,0,0,1,.332.776.852.852,0,0,1-.86.915,1,1,0,0,1,.305,1.192q-.222.778-.429,1.414t-.43,1.247h2.357q-.055-1.5-.1-3.258t-.069-3.867a2.84,2.84,0,0,1,.153-1.025.779.779,0,0,1,.734-.443.933.933,0,0,1,.887.277,1.886,1.886,0,0,1,.249,1.109q-.029,2.079.014,3.853t.1,3.355h3.993a1.433,1.433,0,0,1,.887.235.94.94,0,0,1,.3.79q0,.972-1.192.971h-3.881q.11,1.747.249,3.188t.361,2.689q.471-1.054.859-2.12t.693-2.232a1.762,1.762,0,0,1,.485-.887.92.92,0,0,1,.873-.138q.915.249.583,1.5a26.218,26.218,0,0,1-1.206,3.506,28.913,28.913,0,0,1-1.677,3.34c.093.388.189.763.291,1.122s.217.717.346,1.068a6.26,6.26,0,0,0,.776,1.858c.037,0,.07-.047.1-.138a4.669,4.669,0,0,0,.1-.486q.055-.346.152-.942t.263-1.538a1.933,1.933,0,0,1,.375-1.039.957.957,0,0,1,.707-.18,1.053,1.053,0,0,1,.817.36,1.828,1.828,0,0,1,.1,1.165,18.217,18.217,0,0,1-.415,2.412,6.669,6.669,0,0,1-.583,1.566,2.383,2.383,0,0,1-.734.86,1.52,1.52,0,0,1-.845.264,1.936,1.936,0,0,1-1.427-.846A5.924,5.924,0,0,1,539,432.569q-.083-.3-.167-.569c-.056-.175-.11-.356-.167-.54A21.779,21.779,0,0,1,535.2,435.4a1.813,1.813,0,0,1-.956.5.9.9,0,0,1-.817-.36,1.032,1.032,0,0,1-.25-.79A1.445,1.445,0,0,1,533.786,433.9Zm-3.964-.72a2.154,2.154,0,0,1-1.732-.54,2.787,2.787,0,0,1-.43-1.733v-7.069a2.6,2.6,0,0,1,.43-1.677,2.227,2.227,0,0,1,1.732-.512h3.409a2.331,2.331,0,0,1,1.761.512,2.493,2.493,0,0,1,.458,1.677v7.069a2.421,2.421,0,0,1-.512,1.83,2.608,2.608,0,0,1-1.706.443Zm-.194-6.847h3.908v-2.245a.633.633,0,0,0-.124-.389.441.441,0,0,0-.375-.167h-2.966q-.444,0-.443.555Zm3.908,1.857h-3.908v2.55a.63.63,0,0,0,.124.389.383.383,0,0,0,.319.167h2.966c.333,0,.5-.184.5-.555Zm-3.465-13c.11.24.2.452.277.637s.138.361.195.527.115.338.18.512.143.375.235.6a1.634,1.634,0,0,1,.111.555.77.77,0,0,1-.167.471h1.5c.2-.48.374-.938.512-1.372s.281-.957.429-1.567a2.278,2.278,0,0,1,.208-.555,1.678,1.678,0,0,1,.264-.361h-4.1a1.153,1.153,0,0,1,.167.222C529.933,414.948,530,415.058,530.071,415.189Zm10.839-2.995q.582.832,1.025,1.538t1,1.733a1.864,1.864,0,0,1,.291,1.025.919.919,0,0,1-.513.693q-.915.5-1.525-.693-.471-.886-.9-1.607t-1.068-1.609a1.186,1.186,0,0,1-.221-.859.845.845,0,0,1,.526-.693A1.009,1.009,0,0,1,540.91,412.194Z" transform="translate(-486.855 -409.457)"/><path class="a" d="M557.993,421.71a2.135,2.135,0,0,1-1.732-.569,2.9,2.9,0,0,1-.457-1.815v-5.932a2.775,2.775,0,0,1,.457-1.788,2.208,2.208,0,0,1,1.732-.54h15.358a2.312,2.312,0,0,1,1.746.54,2.6,2.6,0,0,1,.5,1.788v5.932a2.714,2.714,0,0,1-.5,1.815,2.234,2.234,0,0,1-1.746.569H562.012q-.387.555-.789,1.025t-.791.915h14.609q2.689,0,2.689,2.495,0,1.58-.028,2.633t-.1,1.761c-.046.472-.1.873-.153,1.206s-.12.655-.194.97a4.539,4.539,0,0,1-1.441,2.592,4.621,4.621,0,0,1-3.021.873,12.372,12.372,0,0,1-1.8-.138q-.943-.139-2.079-.415a1.739,1.739,0,0,1-.984-.486,1.074,1.074,0,0,1-.014-.928,1.839,1.839,0,0,1,.138-.443.474.474,0,0,1,.25-.235.967.967,0,0,1,.458-.042,5.982,5.982,0,0,1,.763.139q1.025.221,1.815.346a9,9,0,0,0,1.372.124,2.456,2.456,0,0,0,1.8-.582,3.614,3.614,0,0,0,.832-1.912c.056-.333.106-.633.153-.9a8.129,8.129,0,0,0,.1-.929q.028-.526.042-1.3t.014-2.023q0-.776-.86-.776h-1.968a23.722,23.722,0,0,1-2.26,3.284,21.975,21.975,0,0,1-2.647,2.689,25.628,25.628,0,0,1-3.132,2.287q-1.691,1.054-3.687,2.079a2.332,2.332,0,0,1-1.109.278.96.96,0,0,1-.776-.609,1,1,0,0,1,.014-.874,1.705,1.705,0,0,1,1.011-.846,23.993,23.993,0,0,0,5.932-3.465,18.48,18.48,0,0,0,4.241-4.823h-4.186a22.357,22.357,0,0,1-4.768,4.587,28.53,28.53,0,0,1-6.542,3.479q-1.386.5-1.8-.415a.889.889,0,0,1,.07-.929,2.516,2.516,0,0,1,1.123-.679,28.661,28.661,0,0,0,4.933-2.481,20.8,20.8,0,0,0,4.3-3.562h-5.184a20.567,20.567,0,0,1-4.047,2.688,2.224,2.224,0,0,1-1.068.333q-.376-.028-.652-.638a2.459,2.459,0,0,1-.181-.512.565.565,0,0,1,.042-.375.93.93,0,0,1,.291-.318,5.073,5.073,0,0,1,.568-.346,20.791,20.791,0,0,0,3.313-2.023,16.377,16.377,0,0,0,2.841-2.773Zm15.5-8.039c0-.351-.138-.527-.416-.527H558.243c-.241,0-.36.176-.36.527v1.746h15.606Zm0,3.686H557.883V419.1c0,.369.119.554.36.554h14.831q.417,0,.416-.554Z" transform="translate(-490.992 -409.602)"/></g><g transform="translate(474.59 387.11)"><path class="a" d="M487.739,402.717a.491.491,0,0,1-.143-.361V389.411h-4.227a.488.488,0,0,1-.5-.5v-.854a.511.511,0,0,1,.143-.383.487.487,0,0,1,.361-.143h10.514a.483.483,0,0,1,.373.143.542.542,0,0,1,.131.383v.854a.489.489,0,0,1-.5.5h-4.205v12.945a.47.47,0,0,1-.153.361.527.527,0,0,1-.373.143H488.1A.487.487,0,0,1,487.739,402.717Z" transform="translate(-482.865 -387.307)"/><path class="a" d="M501.295,401.473a6.152,6.152,0,0,1-1.687-4.271q-.021-.659-.021-2.059,0-1.423.021-2.059a5.975,5.975,0,0,1,1.677-4.238,6.043,6.043,0,0,1,4.435-1.567,6.959,6.959,0,0,1,3.264.7A5.514,5.514,0,0,1,511,389.655a3.568,3.568,0,0,1,.723,1.807v.044a.372.372,0,0,1-.142.3.48.48,0,0,1-.317.12h-1.227a.439.439,0,0,1-.3-.086.83.83,0,0,1-.185-.329,3.566,3.566,0,0,0-1.292-1.731,4.166,4.166,0,0,0-2.541-.7,4.007,4.007,0,0,0-2.892,1.008,4.324,4.324,0,0,0-1.117,3.11q-.022.635-.022,1.949,0,1.293.022,1.949a4.356,4.356,0,0,0,1.117,3.132,4.007,4.007,0,0,0,2.892,1.008,4.249,4.249,0,0,0,2.978-1.018,3.933,3.933,0,0,0,1.117-3.057v-.942h-3.351a.471.471,0,0,1-.361-.153.532.532,0,0,1-.142-.373v-.658a.533.533,0,0,1,.142-.372.474.474,0,0,1,.361-.153h4.906a.49.49,0,0,1,.526.525v2.081a6.426,6.426,0,0,1-.734,3.122,5.028,5.028,0,0,1-2.136,2.081,7.035,7.035,0,0,1-3.307.733A5.984,5.984,0,0,1,501.295,401.473Z" transform="translate(-484.844 -387.278)"/><path class="a" d="M517.084,402.729a.422.422,0,0,1-.131-.307l.044-.242,5.433-14.171a.681.681,0,0,1,.7-.482h1.4a.681.681,0,0,1,.7.482l5.433,14.171.043.242a.407.407,0,0,1-.142.307.462.462,0,0,1-.318.131H529.22a.536.536,0,0,1-.362-.121.59.59,0,0,1-.187-.251l-1.226-3.154h-7.25l-1.2,3.154a.577.577,0,0,1-.548.372h-1.051A.422.422,0,0,1,517.084,402.729Zm3.746-5.214h6l-3-7.863Z" transform="translate(-486.9 -387.307)"/></g><g transform="translate(412.963 385.858)"><path class="b" d="M432.933,429.786a9.378,9.378,0,0,1-9.084-15.741,17.342,17.342,0,0,1-2.163-8.393,17.442,17.442,0,1,0,17.445,30.209A17.539,17.539,0,0,1,432.933,429.786Z" transform="translate(-412.963 -388.201)"/><path class="c" d="M460.089,405.652a17.332,17.332,0,0,1-2.163,8.393,9.373,9.373,0,0,1-9.083,15.741,17.535,17.535,0,0,1-6.2,6.075,17.442,17.442,0,1,0,17.445-30.209Z" transform="translate(-416.477 -388.201)"/><path class="d" d="M440.3,393.919a9.4,9.4,0,0,1,9.086,7.063,17.348,17.348,0,0,1,8.359,2.327V403.3a17.445,17.445,0,1,0-34.889,0v.005a17.354,17.354,0,0,1,8.359-2.327A9.4,9.4,0,0,1,440.3,393.919Z" transform="translate(-414.134 -385.858)"/><path class="d" d="M446.952,402.986a5.389,5.389,0,1,0,.365,1.941A5.395,5.395,0,0,0,446.952,402.986Z" transform="translate(-415.752 -387.477)"/><path class="b" d="M432.026,416.657a5.394,5.394,0,1,0,5.4,5.4A5.385,5.385,0,0,0,432.026,416.657Z" transform="translate(-414.581 -389.504)"/><path class="c" d="M456.008,418.661a5.4,5.4,0,1,0,1.2,3.393A5.385,5.385,0,0,0,456.008,418.661Z" transform="translate(-416.923 -389.504)"/></g></g></svg>