<svg xmlns="http://www.w3.org/2000/svg" width="60" height="60" viewBox="0 0 60 60"><defs><style>.a{fill:#00d40d;}.b{fill:#fff;}</style></defs><path class="a" d="M60,51a9,9,0,0,1-9,9H9a9,9,0,0,1-9-9V9A9,9,0,0,1,9,0H51a9,9,0,0,1,9,9Z"/><g transform="translate(3.916 7.584)"><path class="b" d="M55.826,52.712c-4.843.253-9.054,1.721-12.472,5.038a14.811,14.811,0,0,0-4.6,12.547c-1.893-.234-3.617-.492-5.351-.638a3.324,3.324,0,0,0-1.817.307c-1.684.95-3.3,2.023-5.211,3.218.351-1.588.578-2.978.98-4.315a1.64,1.64,0,0,0-.747-2.17c-5.813-4.1-8.264-10.246-6.43-16.57,1.7-5.85,5.863-9.4,11.524-11.247,7.727-2.524,16.411.051,21.109,6.185A14.459,14.459,0,0,1,55.826,52.712Zm-22.287-1.97a2.232,2.232,0,0,0-2.148-2.233,2.169,2.169,0,0,0-2.257,2.1,2.143,2.143,0,0,0,2.123,2.224A2.2,2.2,0,0,0,33.539,50.741Zm11.628-2.234a2.235,2.235,0,0,0-2.183,2.2,2.18,2.18,0,0,0,2.241,2.13,2.166,2.166,0,1,0-.058-4.331Z" transform="translate(-19.582 -37.92)"/><path class="b" d="M151.033,149.227c-1.533-.683-2.94-1.707-4.438-1.864s-3.06.7-4.621.864a15.441,15.441,0,0,1-12.525-4.086c-6.679-6.178-5.725-15.651,2-20.714,6.868-4.5,16.941-3,21.783,3.244a12.372,12.372,0,0,1-1.43,17.257c-1.493,1.325-2.03,2.415-1.072,4.161A4.952,4.952,0,0,1,151.033,149.227Zm-17.455-16.9a1.8,1.8,0,1,0,.013-3.608,1.8,1.8,0,1,0-.013,3.608Zm11.252-3.6a1.8,1.8,0,0,0-1.791,1.726,1.78,1.78,0,1,0,1.791-1.726Z" transform="translate(-103.91 -104.245)"/></g></svg>